<svg width="62" height="68" viewBox="0 0 62 68" fill="none" xmlns="http://www.w3.org/2000/svg">
<path d="M12.4965 39.5784C14.2645 38.2108 17.5983 37.7443 19.6144 40.4333C21.6305 43.1228 20.3017 46.2643 18.5338 47.6323L12.115 52.5983C10.347 53.9661 7.01276 54.4322 4.99655 51.7426C2.98071 49.053 4.30979 45.9122 6.07768 44.5444L12.4965 39.5784Z" fill="#333333" stroke="white" stroke-width="8"/>
<path d="M31.906 44.5904C35.2697 43.6184 37.567 46.2641 38.1269 48.2734L40.4173 56.4943C40.9769 58.5037 40.386 61.983 37.0225 62.955C33.6591 63.9268 31.3619 61.2821 30.8019 59.2729L28.5115 51.052C27.9517 49.0427 28.5423 45.5625 31.906 44.5904Z" fill="#333333" stroke="white" stroke-width="8"/>
<path d="M22.8415 7.6295L27.4413 20.7824L18.3217 24.0855L13.7219 10.9326L22.8415 7.6295Z" fill="#333333" stroke="white" stroke-width="8"/>
<path d="M30.9832 15.6199L28.9888 16.3415L14.4565 21.5997L9.91857 23.2413L9.14216 18.4558C8.23873 12.8885 11.3447 7.258 16.8246 5.27428L16.827 5.27286C22.3356 3.28267 28.3059 5.66848 31.0929 10.6116L31.878 12.0043L30.9832 15.6199Z" fill="#333333" stroke="white" stroke-width="8"/>
<path d="M16.481 4.26025C18.0591 3.69097 21.4081 3.72033 22.7078 6.78614L22.8272 7.09242L22.8376 7.12328C23.4008 8.74462 22.9595 10.2451 22.3304 11.2259C21.7001 12.2084 20.7695 12.9017 19.7594 13.2732L19.7473 13.2772L19.7362 13.2815C18.1071 13.8691 14.591 13.8189 13.39 10.4493L13.3796 10.4184C12.8164 8.79716 13.2577 7.29666 13.8868 6.31585C14.5171 5.33336 15.4478 4.64002 16.4578 4.26849L16.4699 4.26449L16.481 4.26025ZM17.1468 9.10237L15.3053 9.75495C15.7356 10.9625 16.6797 11.582 17.3877 11.8119C18.0862 12.0386 18.7291 11.976 19.2187 11.7994L18.3854 9.50389C18.3792 9.50628 18.3735 9.51007 18.3672 9.51237L18.2679 9.54363C17.7733 9.67938 17.2875 9.50027 17.1511 9.11756C17.1494 9.11258 17.1484 9.10737 17.1468 9.10237ZM19.074 8.45335C19.1892 8.84722 18.8936 9.30403 18.3944 9.50012L19.2421 11.7902C19.7238 11.613 20.2348 11.2604 20.6125 10.6717C20.989 10.0845 21.3444 9.03067 20.9226 7.81668L19.074 8.45335ZM16.9751 5.75152C16.4934 5.92873 15.9824 6.2814 15.6047 6.87005C15.2282 7.45721 14.8728 8.51106 15.2946 9.72504L17.1425 9.08718C17.0284 8.6937 17.3236 8.23634 17.8221 8.04041L16.9751 5.75152ZM18.8295 5.72982C18.131 5.50307 17.4881 5.56573 16.9985 5.74233L17.8311 8.03664C17.8373 8.03422 17.8436 8.03168 17.85 8.02935C18.3774 7.83908 18.9206 8.01586 19.0661 8.42416L19.0697 8.43816L20.9119 7.78677C20.4816 6.5792 19.5376 5.95966 18.8295 5.72982Z" fill="#333333" stroke="white" stroke-width="8"/>
<path d="M50.27 17.0946L54.7969 25.7383L42.6267 32.325L38.0998 23.6813L50.27 17.0946Z" fill="#333333" stroke="white" stroke-width="8"/>
<path d="M42.185 13.6673C47.5605 11.9052 53.5523 14.2414 56.2819 19.4528C58.9978 24.6382 57.5649 30.9117 53.1824 34.4203L49.405 37.4444L47.1457 33.1344L39.9087 19.3243L37.7127 15.1331L42.185 13.6673Z" fill="#333333" stroke="white" stroke-width="8"/>
<path d="M52.3105 21.5375C52.0471 21.039 52.1418 20.4664 52.5201 20.2598C52.8984 20.0534 53.4177 20.293 53.6802 20.7956C53.684 20.8027 53.6873 20.8103 53.6909 20.8175C53.9405 21.3109 53.8436 21.8698 53.4706 22.0733L53.3981 22.1063C53.0529 22.239 52.6189 22.0389 52.3625 21.6283L52.3105 21.5375ZM53.6909 20.8175L55.847 19.6945M53.6909 20.8175L55.847 19.6945M52.3105 21.5375L50.1617 22.6714C50.4043 23.1204 50.8289 23.5947 51.4877 23.8989C52.1741 24.2158 53.3057 24.4003 54.4425 23.7803C55.557 23.1724 56.0014 22.1576 56.1162 21.4603C56.2297 20.771 56.0888 20.1608 55.847 19.6945M52.3105 21.5375L50.1553 22.6607C50.1546 22.6593 50.153 22.6583 50.1523 22.6569C49.9048 22.1884 49.7596 21.571 49.8745 20.8729C49.9893 20.1756 50.4337 19.1608 51.5482 18.5528C52.6853 17.9326 53.8175 18.1174 54.504 18.4344C55.1626 18.7387 55.5864 19.2128 55.8289 19.6618L53.7357 20.7664L55.8354 19.6725C55.8361 19.6739 55.8377 19.6748 55.8384 19.6763C55.8416 19.6822 55.8439 19.6886 55.847 19.6945M50.8823 16.5969C52.309 15.9395 53.7636 16.1468 54.8007 16.6258C55.8949 17.1312 56.7161 17.9908 57.2179 18.9519L57.2167 18.9526C57.7212 19.9162 57.9472 21.0621 57.7572 22.2156C57.5662 23.3752 56.8859 24.7794 55.3931 25.5938C53.8777 26.4204 52.2971 26.2183 51.191 25.7076C50.1033 25.2053 49.2864 24.3522 48.7837 23.3981L48.7826 23.3988C48.2716 22.4316 48.0423 21.2781 48.2335 20.1175C48.4245 18.958 49.1048 17.5538 50.5976 16.7394L50.8823 16.5969Z" fill="#333333" stroke="white" stroke-width="8"/>
<path d="M6.12501 27.3667C10.2552 14.8078 23.671 7.92258 36.1609 12.1409L36.1597 12.1416C48.6454 16.3536 55.293 30.002 51.1609 42.5538C47.0308 55.113 33.6142 61.9981 21.1241 57.7794L21.1244 57.7785C8.64437 53.5671 1.9929 39.9186 6.12501 27.3667Z" fill="#333333" stroke="white" stroke-width="8"/>
<path d="M10.171 28.7355C13.5546 18.4534 24.5483 12.7992 34.7984 16.2544L34.8003 16.2549C45.042 19.7129 50.4878 30.9043 47.1058 41.1816C43.7223 51.4636 32.7295 57.1179 22.4794 53.663L22.4775 53.6625C12.234 50.204 6.7945 39.0131 10.1706 28.7374L10.171 28.7355Z" fill="white" stroke="white" stroke-width="8"/>
<path d="M29.7859 30.15L30.0318 30.2254L30.2744 30.3141C32.738 31.2827 33.951 34.012 33.1536 36.4525C32.3233 38.9935 29.5752 40.4494 26.9582 39.5721C24.3325 38.6917 23.0142 35.8645 23.8373 33.3452C24.6418 30.8839 27.2449 29.4404 29.7859 30.15ZM29.4558 31.9754C27.7915 31.4189 26.0792 32.3477 25.5624 33.9194L25.56 33.9248C25.0523 35.4789 25.8564 37.2598 27.5322 37.8216C29.1992 38.3802 30.916 37.4486 31.4309 35.8729C31.9225 34.3675 31.183 32.649 29.6128 32.0323L29.4587 31.9762L29.4558 31.9754ZM28.7819 34.024L28.7838 34.0245C29.2573 34.1844 29.5141 34.7064 29.3569 35.1882L29.323 35.2763C29.1472 35.674 28.7161 35.8933 28.2973 35.7991L28.2078 35.7745C27.7346 35.6156 27.4774 35.0952 27.6319 34.614L27.634 34.6095C27.7917 34.1269 28.3069 33.8648 28.7819 34.024Z" fill="#333333" stroke="white" stroke-width="8"/>
<path d="M32.8084 22.0873L28.5915 34.867" stroke="white" stroke-width="8" stroke-miterlimit="10" stroke-linecap="round"/>
<path d="M18.4858 25.0465C20.0318 23.4763 22.5613 23.4658 24.1352 25.0234C25.3162 26.1925 26.4986 27.3623 27.6812 28.5322C28.8638 29.7021 30.0474 30.8733 31.2296 32.0436C32.8032 33.6015 32.8256 36.1376 31.2795 37.7078C29.7334 39.2779 27.2041 39.2878 25.6304 37.73C24.4492 36.5608 23.2671 35.3912 22.0843 34.2212C20.9018 33.0514 19.7188 31.8811 18.5367 30.711C16.9629 29.1532 16.94 26.6169 18.4858 25.0465Z" stroke="white" stroke-width="8" stroke-miterlimit="10" stroke-linecap="round"/>
<path d="M14.902 42.788L8.48342 47.7538C7.96187 48.1573 7.81345 48.8504 8.15193 49.3019C8.4904 49.7535 9.1876 49.7924 9.70915 49.3889L16.1277 44.4231C16.6493 44.0196 16.7977 43.3265 16.4592 42.8749C16.1207 42.4234 15.4235 42.3845 14.902 42.788Z" fill="#333333"/>
<path d="M34.2897 49.3807C34.1036 48.7127 33.5165 48.2973 32.9783 48.4528C32.4402 48.6083 32.1548 49.2759 32.3409 49.9439L34.6313 58.1647C34.8174 58.8327 35.4045 59.2481 35.9427 59.0926C36.4808 58.9371 36.7662 58.2695 36.5801 57.6015L34.2897 49.3807Z" fill="#333333"/>
<path d="M20.414 12.7737L18.7969 13.3594L20.7489 18.9411L22.366 18.3554L20.414 12.7737Z" fill="#333333"/>
<path d="M27.6177 12.5694C25.771 9.29406 21.8301 7.72962 18.1976 9.04205C14.5691 10.3555 12.4802 14.1063 13.0847 17.8313L27.6167 12.5734L27.6177 12.5694Z" fill="#333333"/>
<path d="M19.066 8.42393C19.2075 8.83122 18.8957 9.318 18.3673 9.51233C17.8398 9.7026 17.2969 9.52614 17.1513 9.11784C17.0098 8.71055 17.3216 8.22376 17.85 8.02943C18.3775 7.83917 18.9205 8.01563 19.066 8.42393Z" fill="#333333"/>
<path d="M48.6233 22.5462L43.4688 25.3359L44.2738 26.8731L49.4284 24.0834L48.6233 22.5462Z" fill="#333333"/>
<path d="M43.4428 17.4747C46.9874 16.3127 50.9397 17.8498 52.7473 21.301C54.5549 24.7521 53.602 28.9463 50.6803 31.2854L43.4428 17.4747Z" fill="#333333"/>
<path d="M52.5204 20.2601C52.142 20.4665 52.0472 21.0385 52.3107 21.5372C52.5731 22.0399 53.092 22.2794 53.4704 22.0729C53.8488 21.8665 53.9436 21.2945 53.6801 20.7958C53.4177 20.2931 52.8989 20.0537 52.5204 20.2601Z" fill="#333333"/>
<path d="M47.367 41.2816C43.9116 51.7909 32.7257 57.4777 22.3831 53.9844C12.0435 50.4962 6.4594 39.1474 9.91874 28.6391C13.3741 18.1298 24.56 12.443 34.9026 15.9363C45.2463 19.4256 50.8263 30.7733 47.367 41.2816Z" fill="#333333"/>
<path d="M43.3119 39.9101C40.6029 48.1423 31.8388 52.5987 23.7353 49.8671C15.6328 47.1315 11.2602 38.2406 13.9652 30.0073C16.6742 21.7751 25.4383 17.3188 33.5418 20.0503C41.6443 22.7859 46.021 31.6778 43.3119 39.9101Z" fill="white"/>
<path d="M29.3565 35.1885C29.1988 35.6711 28.6832 35.9335 28.2083 35.7743C27.7333 35.615 27.4759 35.092 27.6336 34.6094C27.7913 34.1267 28.3068 33.8644 28.7818 34.0236C29.2568 34.1828 29.5142 34.7059 29.3565 35.1885Z" fill="#333333"/>
<path d="M32.8084 22.0873L28.5915 34.867" stroke="#333333" stroke-width="3" stroke-miterlimit="10" stroke-linecap="round"/>
<path d="M21.3359 27.8672C23.6993 30.2066 26.0667 32.5471 28.43 34.8866" stroke="#333333" stroke-width="3" stroke-miterlimit="10" stroke-linecap="round"/>
</svg>
