<svg width="56" height="62" viewBox="0 0 56 62" fill="none" xmlns="http://www.w3.org/2000/svg">
<path d="M10.4375 37.8332C11.7429 36.8273 14.0938 36.5553 15.4844 38.4029C16.8747 40.2505 15.9901 42.4708 14.6847 43.4767L8.24258 48.4412C6.97804 49.4157 4.73265 49.7021 3.32934 48.0393L3.19634 47.8723L3.07261 47.6982C1.86118 45.8871 2.73073 43.7722 3.99537 42.7977L10.4375 37.8332Z" fill="#5B3AFF" stroke="white" stroke-width="5"/>
<path d="M29.4347 43.1108C31.7381 42.4494 33.4027 44.2541 33.8265 45.7657L36.1346 53.997C36.5584 55.5086 36.0786 57.929 33.7752 58.5903C31.4719 59.2516 29.8074 57.447 29.3834 55.9354L27.0754 47.7041C26.6515 46.1925 27.1313 43.7722 29.4347 43.1108Z" fill="#5B3AFF" stroke="white" stroke-width="5"/>
<path d="M18.9703 6.58865L22.5995 16.9071L16.2836 19.1818L12.6544 8.8633L18.9703 6.58865Z" fill="#5B3AFF" stroke="white" stroke-width="5"/>
<path d="M26.7927 11.5138L25.5428 11.9627L10.9511 17.213L8.12184 18.2308L7.6332 15.2499C6.8331 10.3628 9.57024 5.43388 14.3712 3.70586L14.3724 3.70516C19.1884 1.97504 24.4136 4.05474 26.8603 8.37472L27.3538 9.24628L26.7927 11.5138Z" fill="#5B3AFF" stroke="white" stroke-width="5"/>
<path d="M16.5221 5.30133C16.2785 4.62709 15.7551 4.29909 15.4003 4.18392C15.057 4.0726 14.764 4.10661 14.5589 4.17723C14.5546 4.17871 14.5501 4.17948 14.5459 4.18099L14.863 5.05821C14.8672 5.05661 14.872 5.05506 14.8762 5.0535C15.4056 4.86383 15.9505 5.04095 16.0971 5.44952C16.0979 5.45166 16.0988 5.45402 16.0995 5.45616L16.524 5.30584C16.5235 5.30431 16.5227 5.30286 16.5221 5.30133ZM14.5589 4.17723L14.0251 2.69606M14.5589 4.17723L14.0251 2.69606M16.5221 5.30133L18.4532 4.63217M16.5221 5.30133L18.4532 4.63217M14.0251 2.69606C15.2022 2.27407 17.4892 2.35317 18.3657 4.40851L18.4468 4.61341L18.4504 4.62338L18.4532 4.63217C18.8348 5.72416 18.5428 6.74923 18.0999 7.43794C17.6567 8.12706 16.9935 8.62313 16.2626 8.89048L16.2548 8.89354L16.2482 8.89589C15.0332 9.33169 12.6338 9.23346 11.8255 6.97829L11.8227 6.96951L11.8191 6.95954C11.4376 5.86751 11.7295 4.84243 12.1724 4.15377C12.6157 3.46463 13.2788 2.96858 14.0097 2.70123L14.0173 2.69912L14.0251 2.69606ZM13.7483 6.28586C13.9913 6.9637 14.5171 7.29362 14.8728 7.40897C15.2233 7.52254 15.5219 7.48467 15.7274 7.41095L15.4096 6.53255C15.4053 6.53417 15.4014 6.53686 15.3971 6.53844L15.2978 6.5697C14.834 6.69643 14.3777 6.54859 14.2071 6.21675L14.1752 6.14219C14.1743 6.13954 14.173 6.13701 14.1722 6.13435L13.7483 6.28586ZM16.1035 5.4723C16.2256 5.86963 15.926 6.33305 15.4186 6.52878L15.7418 7.40554C15.9421 7.33219 16.1837 7.17664 16.3735 6.88157C16.563 6.58672 16.7704 6.0089 16.5314 5.32483L16.1035 5.4723ZM14.5315 4.1864C14.3311 4.25969 14.0888 4.41485 13.8989 4.71013C13.7093 5.0049 13.5028 5.58285 13.7419 6.26711L14.1681 6.11821C14.0474 5.72112 14.3469 5.25729 14.854 5.06198L14.5315 4.1864Z" fill="#5B3AFF" stroke="white" stroke-width="5"/>
<path d="M46.8275 16.202L49.9721 22.1782L40.4074 27.3306L37.2628 21.3544L46.8275 16.202Z" fill="#5B3AFF" stroke="white" stroke-width="5"/>
<path d="M39.8092 12.1413C44.5083 10.6102 49.7505 12.6482 52.1469 17.202C54.537 21.744 53.2837 27.2456 49.4337 30.316L47.0776 32.1942L45.6666 29.5136L38.3844 15.683L37.0014 13.0558L39.8092 12.1413Z" fill="#5B3AFF" stroke="white" stroke-width="5"/>
<path d="M50.8851 17.8688C51.14 18.3645 51.0444 18.9265 50.6684 19.1306C50.3122 19.324 49.8318 19.125 49.5556 18.6844L49.5036 18.5936M50.8851 17.8688L51.7102 17.4372M49.5036 18.5936C49.2385 18.0943 49.3326 17.5211 49.7124 17.3148C50.0923 17.1085 50.6139 17.3495 50.878 17.8529L50.8818 17.8619C50.883 17.8642 50.884 17.8666 50.8851 17.8688M50.8851 17.8688L51.7102 17.4372M51.7048 17.4268C51.7056 17.4284 51.7067 17.4299 51.7076 17.4315C51.7086 17.4333 51.7093 17.4353 51.7102 17.4372C51.8128 17.6355 51.8866 17.9175 51.8297 18.2633C51.7718 18.6157 51.5362 19.177 50.9098 19.5172C50.2713 19.8639 49.6515 19.7508 49.305 19.591C48.9771 19.4398 48.7863 19.2161 48.6827 19.0284L49.5036 18.5936M49.5036 18.5936L48.6796 19.0246C48.6776 19.0209 48.6752 19.0175 48.6732 19.0139C48.5693 18.8154 48.4948 18.531 48.5521 18.1823C48.6101 17.83 48.845 17.2683 49.4711 16.9282L49.4961 16.9164C50.1258 16.5856 50.7336 16.6967 51.0758 16.8543C51.4043 17.0057 51.5954 17.2303 51.6988 17.4182L50.9786 17.7998L51.701 17.4218C51.702 17.4236 51.7038 17.4249 51.7048 17.4268M50.8818 17.8619L51.7048 17.4268M50.8818 17.8619L51.7048 17.4268M48.7067 15.0169C49.6663 14.5767 50.6527 14.7118 51.373 15.0438C52.1347 15.3949 52.7221 16.0007 53.0868 16.696L53.0856 16.6967C53.6935 17.8543 53.9278 20.2133 51.8658 21.333C50.8474 21.886 49.777 21.7559 49.0088 21.4019C48.251 21.0525 47.6665 20.451 47.3014 19.7603C46.6892 18.6068 46.4466 16.2357 48.515 15.1124L48.7067 15.0169Z" fill="#5B3AFF" stroke="white" stroke-width="5"/>
<path d="M4.55649 24.8731C8.44251 13.0671 21.072 6.64842 32.7971 10.6047L32.7959 10.6054C44.5195 14.5565 50.8141 27.3529 46.9252 39.1546C43.0394 50.9607 30.4095 57.3801 18.6844 53.4239L18.6847 53.423C6.9656 49.4729 0.667361 36.6752 4.55649 24.8731Z" fill="#5B3AFF" stroke="white" stroke-width="5"/>
<path d="M8.62297 26.2458C11.7614 16.7189 21.9587 11.5302 31.4333 14.7208L31.4343 14.721C40.9047 17.9153 45.9892 28.2522 42.8516 37.7776C39.7133 47.3048 29.5157 52.4942 20.041 49.3036L20.0401 49.3034C10.5687 46.1088 5.49036 35.7723 8.6225 26.2477L8.62297 26.2458Z" fill="white" stroke="white" stroke-width="5"/>
<path d="M22.4127 30.7099C23.0553 29.036 24.9096 28.1195 26.6601 28.7055C28.4737 29.3129 29.4079 31.2714 28.8307 33.0364C28.2494 34.8138 26.3323 35.8103 24.5254 35.2054C22.7118 34.598 21.7777 32.6395 22.3548 30.8745L22.4127 30.7099ZM26.0849 30.4567C25.2341 30.1725 24.3541 30.6428 24.0872 31.4516L24.0853 31.4551C23.8403 32.2043 24.191 33.0523 24.9439 33.3923L25.0999 33.453C25.9522 33.7383 26.8346 33.267 27.1002 32.4558C27.3452 31.7067 26.9944 30.8587 26.2416 30.5186L26.0858 30.457L26.0849 30.4567ZM25.8804 31.0799C26.3572 31.2399 26.6158 31.763 26.458 32.2457C26.3 32.7287 25.7824 32.9909 25.3051 32.8311C24.8292 32.6714 24.5701 32.1497 24.7258 31.6678L24.7275 31.6652C24.8855 31.1822 25.4031 30.92 25.8804 31.0799Z" fill="#5B3AFF" stroke="white" stroke-width="5"/>
<path d="M29.9107 19.1354L25.6867 31.9241" stroke="white" stroke-width="5" stroke-miterlimit="10" stroke-linecap="round"/>
<path d="M16.6147 23.1466C17.5793 22.1635 19.1594 22.1544 20.1447 23.1264C21.3323 24.298 22.5211 25.4699 23.7101 26.6421C24.8991 27.8143 26.0889 28.9869 27.2772 30.1593C28.2625 31.1313 28.2791 32.7166 27.3145 33.6997C26.3498 34.6826 24.7687 34.6916 23.7835 33.7197C22.5959 32.548 21.4074 31.3753 20.2183 30.203C19.0295 29.0309 17.8404 27.8583 16.6522 26.6861C15.6669 25.7141 15.6501 24.1297 16.6147 23.1466Z" stroke="white" stroke-width="5" stroke-miterlimit="10" stroke-linecap="round"/>
<path d="M11.9452 39.836L5.50259 44.8008C4.97908 45.2042 4.83063 45.8979 5.17103 46.3502C5.51142 46.8025 6.21176 46.8421 6.73527 46.4387L13.1779 41.4739C13.7014 41.0705 13.8499 40.3767 13.5095 39.9244C13.1691 39.4721 12.4688 39.4325 11.9452 39.836Z" fill="#5B3AFF"/>
<path d="M31.4294 46.4538C31.2418 45.785 30.6517 45.3686 30.1113 45.5237C29.5709 45.6789 29.2849 46.3469 29.4724 47.0157L31.7805 55.247C31.968 55.9158 32.5581 56.3323 33.0985 56.1771C33.639 56.0219 33.925 55.3539 33.7375 54.6851L31.4294 46.4538Z" fill="#5B3AFF"/>
<path d="M17.4558 9.79802L15.832 10.3828L17.7979 15.972L19.4216 15.3872L17.4558 9.79802Z" fill="#5B3AFF"/>
<path d="M24.6903 9.60237C22.8324 6.32203 18.8725 4.75234 15.225 6.06271C11.5815 7.3741 9.48667 11.1267 10.0972 14.8561L24.6893 9.60644L24.6903 9.60237Z" fill="#5B3AFF"/>
<path d="M16.0975 5.44966C16.24 5.85749 15.9273 6.34448 15.3967 6.53851C14.8671 6.72848 14.3215 6.55133 14.175 6.14248C14.0325 5.73465 14.3452 5.24766 14.8758 5.05363C15.4054 4.86366 15.951 5.04081 16.0975 5.44966Z" fill="#5B3AFF"/>
<path d="M45.8 19.6029L40.625 22.3906L41.4351 23.9301L46.6101 21.1424L45.8 19.6029Z" fill="#5B3AFF"/>
<path d="M40.5911 14.5225C44.1503 13.3627 48.1216 14.905 49.9404 18.3613C51.7593 21.8176 50.8059 26.0151 47.8734 28.3539L40.5911 14.5225Z" fill="#5B3AFF"/>
<path d="M49.7128 17.3152C49.3329 17.5215 49.2382 18.0939 49.5032 18.5933C49.7673 19.0968 50.2887 19.337 50.6686 19.1307C51.0485 18.9244 51.1432 18.3519 50.8781 17.8525C50.6141 17.3491 50.0927 17.1089 49.7128 17.3152Z" fill="#5B3AFF"/>
<path d="M44.5539 38.359C41.0927 48.8757 29.8621 54.5578 19.4702 51.0514C9.08133 47.55 3.46205 36.1845 6.92726 25.6689C10.3884 15.1522 21.6191 9.47 32.011 12.9765C42.4039 16.4789 48.0191 27.8433 44.5539 38.359Z" fill="#5B3AFF"/>
<path d="M40.4805 36.9819C37.7669 45.22 28.9677 49.6726 20.8257 46.9308C12.6846 44.1848 8.28434 35.2809 10.9939 27.0418C13.7075 18.8037 22.5067 14.3511 30.6488 17.093C38.7899 19.8389 43.1941 28.7439 40.4805 36.9819Z" fill="#FAFF00"/>
<path d="M26.4583 32.246C26.3003 32.729 25.7827 32.9912 25.3055 32.8313C24.8283 32.6715 24.5692 32.1477 24.7272 31.6647C24.8852 31.1817 25.4028 30.9196 25.88 31.0794C26.3572 31.2392 26.6162 31.763 26.4583 32.246Z" fill="#5B3AFF"/>
<path d="M29.9107 19.1354L25.6867 31.9241" stroke="#5B3AFF" stroke-width="3" stroke-miterlimit="10" stroke-linecap="round"/>
<path d="M18.3984 24.9062C20.7745 27.2503 23.1545 29.5953 25.5305 31.9393" stroke="#5B3AFF" stroke-width="3" stroke-miterlimit="10" stroke-linecap="round"/>
</svg>
