<?xml version="1.0" encoding="UTF-8"?>
<svg id="_圖層_1" data-name="圖層_1" xmlns="http://www.w3.org/2000/svg" version="1.1" viewBox="0 0 33.36 44.99">
  <!-- Generator: Adobe Illustrator 30.6.0, SVG Export Plug-In . SVG Version: 2.1.4 Build 109)  -->
  <defs>
    <style>
      .st0 {
        fill: #fff;
      }

      .st1 {
        fill: #333;
      }
    </style>
  </defs>
  <ellipse class="st1" cx="17.16" cy="30.51" rx="14.03" ry="12.43"/>
  <path class="st0" d="M5.2,10.12c-.68,5.4,4.3,7.87,4.3,7.87C9.28-.23,23.54,0,23.54,0c-2.94,2.25-6.34,10.34,2.26,15.52.12.08.25.15.37.23,13.2,8.26,6.98,28.71-8.61,29.23-.2,0-.39,0-.58,0C7.61,44.99.15,37.44,0,28.12-.13,19.82,5.21,10.12,5.21,10.12h0ZM14.04,40.54c5.84,1.92,12.14-1.23,14.07-7.04,1.93-5.8-1.24-12.06-7.08-13.98,0,0,5.81,6.51,1.8,12.24,0,0,.52-3.71-2.84-5.45,0,0,3.65,11.01-6.65,13.99l.7.23Z"/>
</svg>