<svg width="34" height="45" viewBox="0 0 34 45" fill="none" xmlns="http://www.w3.org/2000/svg">
<ellipse cx="14.0272" cy="12.4309" rx="14.0272" ry="12.4309" transform="matrix(-1 0 0 1 31.1863 18.082)" fill="#333333"/>
<path d="M5.20227 10.121C4.52387 15.5184 9.50307 17.9914 9.50307 17.9914C9.27587 -0.225555 23.5383 0.000131919 23.5383 0.000131919C20.5943 2.24745 17.1991 10.3435 25.8007 15.5152C25.9255 15.5915 26.0503 15.6678 26.1751 15.7441C39.3751 24.0055 33.1543 44.4571 17.5639 44.9784C17.3687 44.9847 17.1767 44.9879 16.9815 44.9879C7.60547 44.9879 0.146267 37.4354 0.00226729 28.1219C-0.125733 19.816 5.20547 10.1178 5.20547 10.1178L5.20227 10.121ZM14.0439 40.5377C19.8839 42.4545 26.1847 39.3044 28.1143 33.5002C30.0439 27.6991 26.8727 21.4403 21.0295 19.5235C21.0295 19.5235 26.8439 26.0303 22.8247 31.7646C22.8247 31.7646 23.3463 28.0551 19.9863 26.3164C19.9863 26.3164 23.6343 37.3305 13.3399 40.3057L14.0439 40.5377Z" fill="white"/>
</svg>
