<?xml version="1.0" encoding="UTF-8"?>
<svg id="_圖層_1" data-name="圖層_1" xmlns="http://www.w3.org/2000/svg" xmlns:xlink="http://www.w3.org/1999/xlink" version="1.1" viewBox="0 0 58.5 60">
  <!-- Generator: Adobe Illustrator 30.6.0, SVG Export Plug-In . SVG Version: 2.1.4 Build 109)  -->
  <defs>
    <style>
      .st0 {
        fill: url(#_未命名漸層);
      }

      .st1 {
        fill: url(#_未命名漸層_2);
      }

      .st2 {
        fill: #0271e5;
      }
    </style>
    <linearGradient id="_未命名漸層" data-name="未命名漸層" x1="3.74" y1="65.33" x2="61.47" y2="4.92" gradientTransform="translate(0 62) scale(1 -1)" gradientUnits="userSpaceOnUse">
      <stop offset="0" stop-color="#b5deff"/>
      <stop offset=".35" stop-color="#d8f3ff"/>
      <stop offset=".75" stop-color="#b2d8ff"/>
      <stop offset="1" stop-color="#4fa2ff"/>
    </linearGradient>
    <linearGradient id="_未命名漸層_2" data-name="未命名漸層 2" x1="29" y1="38" x2="29" y2="17.91" gradientTransform="translate(0 62) scale(1 -1)" gradientUnits="userSpaceOnUse">
      <stop offset="0" stop-color="#3e9cff"/>
      <stop offset="1" stop-color="#0271e5"/>
    </linearGradient>
  </defs>
  <path class="st0" d="M0,5.54v35.64c0,2,1.08,3.84,2.84,4.82l23.67,13.27c1.7.96,3.79.96,5.49,0l23.67-13.27c1.76-.98,2.84-2.83,2.84-4.82V5.54c0-3.06-2.5-5.54-5.58-5.54H5.58C2.5,0,0,2.48,0,5.54Z"/>
  <path class="st1" d="M28.75,24.06c1.61-.38,2.39,1.03,2.69,1.88.68,1.95.49,4.19-.5,6.01,2.35-.5,3.61-.61,5.81-.61.75,0,1.61.15,2.03.77.28.43.27,1.01.06,1.47-.2.43-.55.77-.94,1.03h0c.25.11.46.28.61.51.28.43.27,1.01.06,1.47-.2.43-.55.77-.95,1.03.25.11.46.28.61.51.28.43.27,1.01.06,1.47-.19.41-.52.74-.89.99.24.1.45.24.6.46.24.36.22.85.05,1.25-.41.94-1.72,1.77-4.65,1.77h-4.77c-1.06,0-2.21-.39-3.13-1.14-.4-.32-.63-.81-.63-1.32v-8.13c0-.48.2-.93.55-1.25,1.08-1,1.83-2.62,2.24-3.98.58-1.92-.52-3.83,1.1-4.21ZM23.05,32.27c.52,0,.93.42.93.93v9.1c0,.52-.42.93-.93.93h-3.12c-.51,0-.93-.42-.93-.93v-9.1c0-.52.42-.93.93-.93h3.12Z"/>
  <path class="st2" d="M21.06,10.2h2.27v9.8h-2.27v-9.8ZM16.61,20h-2.27v-9.8h2.27v9.8ZM21.23,15.98h-4.79v-1.92h4.79v1.92ZM30.41,20.17c-.77,0-1.49-.13-2.16-.38-.65-.25-1.22-.61-1.71-1.06-.48-.46-.85-.99-1.12-1.61-.26-.62-.39-1.29-.39-2.02s.13-1.4.39-2.02c.27-.62.65-1.15,1.13-1.61.49-.46,1.05-.81,1.71-1.06.65-.25,1.36-.38,2.13-.38s1.48.13,2.13.38c.65.25,1.22.61,1.69,1.06.49.46.86.99,1.13,1.61.27.61.41,1.28.41,2.02s-.14,1.4-.41,2.03c-.27.62-.65,1.15-1.13,1.61-.48.45-1.04.8-1.69,1.05-.64.25-1.35.38-2.11.38ZM30.4,18.24c.44,0,.84-.07,1.2-.22.37-.15.7-.36.98-.64s.49-.61.64-.99c.16-.38.24-.81.24-1.27s-.08-.89-.24-1.27c-.15-.38-.36-.71-.64-.99-.27-.28-.59-.49-.97-.64-.37-.15-.78-.22-1.22-.22s-.84.07-1.22.22c-.36.15-.69.36-.97.64-.28.28-.5.61-.66.99-.15.38-.22.81-.22,1.27s.07.88.22,1.27c.16.38.37.71.64.99.28.28.61.49.98.64.37.15.78.22,1.22.22ZM39.36,20v-7.95h-3.14v-1.85h8.54v1.85h-3.14v7.95h-2.27Z"/>
</svg>