<?xml version="1.0" encoding="UTF-8"?>
<svg id="_圖層_1" data-name="圖層_1" xmlns="http://www.w3.org/2000/svg" xmlns:xlink="http://www.w3.org/1999/xlink" version="1.1" viewBox="0 0 50 51.28">
  <!-- Generator: Adobe Illustrator 30.6.0, SVG Export Plug-In . SVG Version: 2.1.4 Build 109)  -->
  <defs>
    <style>
      .st0 {
        fill: url(#_未命名漸層);
      }

      .st1 {
        fill: #8f6201;
      }

      .st2 {
        fill: url(#_未命名漸層_2);
      }
    </style>
    <linearGradient id="_未命名漸層" data-name="未命名漸層" x1="3.2" y1="56.85" x2="52.54" y2="5.21" gradientTransform="translate(0 54) scale(1 -1)" gradientUnits="userSpaceOnUse">
      <stop offset="0" stop-color="#ffdf6b"/>
      <stop offset=".35" stop-color="#fcf4ae"/>
      <stop offset=".75" stop-color="#ffd744"/>
      <stop offset="1" stop-color="#cd901a"/>
    </linearGradient>
    <linearGradient id="_未命名漸層_2" data-name="未命名漸層 2" x1="24.61" y1="40.57" x2="24.61" y2="13.57" gradientTransform="translate(0 54) scale(1 -1)" gradientUnits="userSpaceOnUse">
      <stop offset="0" stop-color="#9c6c00"/>
      <stop offset="1" stop-color="#5b3f00"/>
    </linearGradient>
  </defs>
  <path class="st0" d="M0,4.74v30.47c0,1.71.92,3.28,2.42,4.12l20.23,11.34c1.45.82,3.24.82,4.69,0l20.23-11.34c1.5-.84,2.42-2.42,2.42-4.12V4.74c0-2.62-2.14-4.74-4.77-4.74H4.77C2.14,0,0,2.12,0,4.74Z"/>
  <path class="st1" d="M18.94,8.06h1.64v7.07h-1.64v-2.9h-3.21v2.9h-1.64v-7.07h1.64v2.79h3.21v-2.79ZM25.67,15.25c-2.23,0-3.87-1.55-3.87-3.65s1.64-3.65,3.87-3.65,3.87,1.54,3.87,3.65-1.65,3.65-3.87,3.65ZM25.67,13.86c1.26,0,2.21-.92,2.21-2.26s-.95-2.26-2.21-2.26-2.21.92-2.21,2.26.95,2.26,2.21,2.26ZM32.14,15.13v-5.73h-2.26v-1.33h6.16v1.33h-2.26v5.73h-1.64Z"/>
  <path class="st2" d="M20.61,34.74c-1.33,0-2.52-.32-3.55-.95-1.02-.64-1.83-1.55-2.42-2.75-.59-1.2-.89-2.66-.89-4.38s.3-3.18.89-4.38c.59-1.2,1.4-2.12,2.42-2.75,1.04-.64,2.22-.96,3.55-.96s2.49.32,3.51.96c1.04.64,1.85,1.55,2.44,2.75.59,1.2.89,2.66.89,4.38s-.3,3.18-.89,4.38c-.59,1.2-1.41,2.12-2.44,2.75-1.02.64-2.19.95-3.51.95ZM20.61,31.15c.47,0,.89-.15,1.24-.44.37-.3.66-.77.87-1.42.21-.67.31-1.54.31-2.62s-.1-1.97-.31-2.62c-.21-.65-.5-1.13-.87-1.42-.36-.3-.77-.44-1.24-.44s-.9.15-1.27.44c-.36.3-.64.77-.87,1.42-.21.65-.31,1.53-.31,2.62s.1,1.95.31,2.62c.22.65.51,1.13.87,1.42.37.3.79.44,1.27.44ZM31.07,34.43v-13.97l1.89,1.82h-4.78v-3.4h7.29v15.55h-4.4Z"/>
</svg>