<?xml version="1.0" encoding="UTF-8"?>
<svg id="_圖層_1" data-name="圖層_1" xmlns="http://www.w3.org/2000/svg" xmlns:xlink="http://www.w3.org/1999/xlink" version="1.1" viewBox="0 0 50 51.28">
  <!-- Generator: Adobe Illustrator 30.6.0, SVG Export Plug-In . SVG Version: 2.1.4 Build 109)  -->
  <defs>
    <style>
      .st0 {
        fill: url(#_未命名漸層);
      }

      .st1 {
        fill: #ba5c23;
      }

      .st2 {
        fill: url(#_未命名漸層_2);
      }
    </style>
    <linearGradient id="_未命名漸層" data-name="未命名漸層" x1="3.2" y1="56.85" x2="52.54" y2="5.21" gradientTransform="translate(0 54) scale(1 -1)" gradientUnits="userSpaceOnUse">
      <stop offset="0" stop-color="#fdcda4"/>
      <stop offset=".35" stop-color="#ffe9d7"/>
      <stop offset=".75" stop-color="#ffcb9d"/>
      <stop offset="1" stop-color="#eba05e"/>
    </linearGradient>
    <linearGradient id="_未命名漸層_2" data-name="未命名漸層 2" x1="26" y1="40.57" x2="26" y2="13.57" gradientTransform="translate(0 54) scale(1 -1)" gradientUnits="userSpaceOnUse">
      <stop offset="0" stop-color="#ba5c23"/>
      <stop offset="1" stop-color="#7f3000"/>
    </linearGradient>
  </defs>
  <path class="st0" d="M0,4.74v30.47c0,1.71.92,3.28,2.42,4.12l20.23,11.34c1.45.82,3.24.82,4.69,0l20.23-11.34c1.5-.84,2.42-2.42,2.42-4.12V4.74c0-2.62-2.14-4.74-4.77-4.74H4.77C2.14,0,0,2.12,0,4.74Z"/>
  <path class="st1" d="M18.94,8.06h1.64v7.07h-1.64v-2.9h-3.21v2.9h-1.64v-7.07h1.64v2.79h3.21v-2.79ZM25.67,15.25c-2.23,0-3.87-1.55-3.87-3.65s1.64-3.65,3.87-3.65,3.87,1.54,3.87,3.65-1.65,3.65-3.87,3.65ZM25.67,13.86c1.26,0,2.21-.92,2.21-2.26s-.95-2.26-2.21-2.26-2.21.92-2.21,2.26.95,2.26,2.21,2.26ZM32.14,15.13v-5.73h-2.26v-1.33h6.16v1.33h-2.26v5.73h-1.64Z"/>
  <path class="st2" d="M19.39,34.74c-1.33,0-2.52-.32-3.55-.95-1.02-.64-1.83-1.55-2.42-2.75-.59-1.2-.89-2.66-.89-4.38s.3-3.18.89-4.38c.59-1.2,1.4-2.12,2.42-2.75,1.04-.64,2.22-.96,3.55-.96s2.49.32,3.51.96c1.04.64,1.85,1.55,2.44,2.75.59,1.2.89,2.66.89,4.38s-.3,3.18-.89,4.38c-.59,1.2-1.41,2.12-2.44,2.75-1.02.64-2.19.95-3.51.95ZM19.39,31.15c.47,0,.89-.15,1.24-.44.37-.3.66-.77.87-1.42.21-.67.31-1.54.31-2.62s-.1-1.97-.31-2.62c-.21-.65-.5-1.13-.87-1.42-.36-.3-.77-.44-1.24-.44s-.9.15-1.27.44c-.36.3-.64.77-.87,1.42-.21.65-.31,1.53-.31,2.62s.1,1.95.31,2.62c.22.65.51,1.13.87,1.42.37.3.79.44,1.27.44ZM32.71,34.74c-1.08,0-2.16-.13-3.24-.4-1.07-.27-2-.64-2.8-1.13l1.6-3.31c.62.41,1.31.73,2.07.95.77.22,1.52.33,2.24.33s1.35-.14,1.8-.42c.44-.28.67-.68.67-1.2,0-.46-.19-.82-.56-1.09-.37-.28-.98-.42-1.82-.42h-1.84v-2.78l4.18-4.51.42,1.51h-7.95v-3.4h11.24v2.75l-4.18,4.51-2.15-1.22h1.2c1.94,0,3.41.44,4.4,1.31,1.01.86,1.51,1.97,1.51,3.33,0,.89-.24,1.73-.73,2.51-.47.78-1.21,1.43-2.2,1.93-.99.49-2.27.73-3.84.73Z"/>
</svg>