<?xml version="1.0" encoding="UTF-8"?>
<svg id="_圖層_1" data-name="圖層_1" xmlns="http://www.w3.org/2000/svg" version="1.1" viewBox="0 0 20 20">
  <!-- Generator: Adobe Illustrator 30.6.0, SVG Export Plug-In . SVG Version: 2.1.4 Build 109)  -->
  <defs>
    <style>
      .st0 {
        fill: #f7f7f7;
      }
    </style>
  </defs>
  <path class="st0" d="M10,0c-2.71,0-3.05.01-4.12.06-1.07.05-1.79.22-2.43.46-.67.25-1.27.64-1.77,1.15-.51.5-.9,1.1-1.15,1.77-.25.63-.42,1.36-.46,2.42-.05,1.07-.06,1.41-.06,4.13s.01,3.06.06,4.12c.05,1.06.22,1.79.46,2.43.26.66.6,1.22,1.15,1.77.56.56,1.11.9,1.77,1.15.64.25,1.36.42,2.43.47,1.07.05,1.41.06,4.12.06s3.06-.01,4.12-.06c1.06-.05,1.79-.22,2.43-.47.67-.25,1.27-.64,1.77-1.15.56-.56.9-1.11,1.15-1.77.25-.64.41-1.36.47-2.43.05-1.07.06-1.41.06-4.12s-.01-3.06-.06-4.12c-.05-1.06-.22-1.79-.47-2.43-.25-.67-.64-1.27-1.15-1.77-.5-.51-1.1-.9-1.77-1.15-.64-.25-1.36-.42-2.43-.46-1.07-.05-1.41-.06-4.12-.06h0ZM9.1,1.8h.9c2.67,0,2.99,0,4.04.06.98.04,1.51.21,1.86.34.47.18.8.4,1.15.75.35.35.57.68.75,1.15.14.35.3.88.34,1.86.05,1.05.06,1.37.06,4.04s-.01,2.99-.06,4.04c-.04.97-.21,1.5-.34,1.86-.16.43-.42.83-.75,1.15-.35.35-.68.57-1.15.75-.35.14-.88.3-1.86.34-1.05.05-1.37.06-4.04.06s-2.99-.01-4.04-.06c-.97-.05-1.5-.21-1.86-.34-.43-.16-.83-.42-1.15-.75-.33-.32-.59-.72-.75-1.15-.14-.35-.3-.88-.34-1.86-.05-1.05-.06-1.37-.06-4.04s0-2.98.06-4.04c.04-.98.21-1.51.34-1.86.18-.47.4-.8.75-1.15.35-.35.68-.57,1.15-.75.35-.14.88-.3,1.86-.35.92-.04,1.28-.06,3.14-.06h0ZM15.34,3.46c-.16,0-.31.03-.46.09-.15.06-.28.15-.39.26-.11.11-.2.24-.26.39s-.09.3-.09.46.03.31.09.46c.06.15.15.28.26.39.11.11.24.2.39.26.15.06.3.09.46.09.32,0,.62-.13.85-.35.23-.23.35-.53.35-.85s-.13-.62-.35-.85c-.23-.23-.53-.35-.85-.35ZM10,4.86c-.68-.01-1.36.11-1.99.37-.63.25-1.21.63-1.69,1.11-.49.48-.87,1.05-1.13,1.68-.26.63-.4,1.3-.4,1.98s.14,1.36.4,1.98c.26.63.65,1.2,1.13,1.68.49.48,1.06.85,1.69,1.11.63.25,1.31.38,1.99.37,1.35-.02,2.63-.57,3.58-1.53.95-.96,1.48-2.26,1.48-3.6s-.53-2.64-1.48-3.6c-.95-.96-2.23-1.51-3.58-1.53ZM10,6.67c.44,0,.87.09,1.28.25.4.17.77.41,1.08.72.31.31.56.68.72,1.08.17.4.25.84.25,1.28s-.09.87-.25,1.28c-.17.4-.41.77-.72,1.08-.31.31-.68.56-1.08.72-.4.17-.84.25-1.28.25-.88,0-1.73-.35-2.36-.98s-.98-1.47-.98-2.36.35-1.73.98-2.36,1.47-.98,2.36-.98Z"/>
</svg>