<?xml version="1.0" encoding="UTF-8"?>
<svg id="_圖層_1" data-name="圖層_1" xmlns="http://www.w3.org/2000/svg" version="1.1" viewBox="0 0 16.26 258.03">
  <!-- Generator: Adobe Illustrator 30.6.0, SVG Export Plug-In . SVG Version: 2.1.4 Build 109)  -->
  <defs>
    <style>
      .st0 {
        fill: #ff7d04;
      }

      .st1 {
        fill: #fff;
      }

      .st2 {
        fill: #23a099;
      }
    </style>
  </defs>
  <path class="st1" d="M.72,5.9c0-1.15.14-2.25.42-3.32.29-1.05.67-1.91,1.12-2.58l2.92,1.3c-.4.63-.73,1.35-1,2.16-.25.83-.38,1.65-.38,2.46,0,.55.05.99.14,1.32.11.33.24.57.4.72.17.16.37.24.6.24.32,0,.57-.15.76-.44.19-.29.34-.67.46-1.14.12-.47.24-.99.36-1.56.12-.56.27-1.13.46-1.7.19-.56.43-1.07.72-1.54.31-.47.7-.85,1.18-1.14.49-.29,1.11-.44,1.86-.44.84,0,1.6.23,2.28.68.68.47,1.23,1.16,1.64,2.08.41.92.62,2.07.62,3.44,0,.92-.11,1.82-.32,2.7-.2.89-.5,1.69-.9,2.38l-2.94-1.22c.36-.67.63-1.33.8-1.98.19-.65.28-1.29.28-1.9,0-.55-.06-.99-.18-1.32-.11-.33-.25-.57-.44-.72-.19-.15-.4-.22-.64-.22-.31,0-.55.14-.74.42-.17.29-.32.67-.44,1.14-.11.48-.22,1-.34,1.56-.12.57-.27,1.14-.46,1.7-.17.57-.41,1.09-.72,1.56-.29.47-.69.84-1.18,1.12-.48.29-1.09.44-1.82.44-.81,0-1.57-.23-2.26-.7-.68-.45-1.23-1.14-1.64-2.06-.41-.91-.62-2.05-.62-3.44Z"/>
  <path class="st1" d="M1,15.93h14v6.4c0,1.28-.21,2.38-.62,3.3-.41.93-1.01,1.65-1.8,2.16-.77.51-1.69.76-2.76.76s-1.97-.25-2.74-.76c-.77-.51-1.37-1.23-1.8-2.16-.41-.92-.62-2.02-.62-3.3v-4.2l1.72,1.76H1v-3.96ZM5.96,19.89l1.82-1.76v3.96c0,.83.18,1.44.54,1.84.36.41.86.62,1.5.62s1.16-.21,1.52-.62c.36-.4.54-1.01.54-1.84v-3.96l1.82,1.76h-7.74Z"/>
  <path class="st1" d="M9.58,36.12v6.5h-2.96v-6.5h2.96ZM4.06,36.4v7.32H1v-11.24h14v10.98h-3.06v-7.06h-7.88Z"/>
  <path class="st1" d="M.72,54.9c0-1.11.17-2.13.52-3.08.36-.93.87-1.75,1.52-2.44.65-.68,1.42-1.21,2.3-1.6.89-.39,1.87-.58,2.94-.58s2.04.19,2.92.58c.89.39,1.67.92,2.32,1.6.65.69,1.15,1.51,1.5,2.44.36.95.54,1.97.54,3.08,0,1.29-.23,2.45-.68,3.46-.45,1.03-1.11,1.88-1.96,2.56l-2.28-2.52c.53-.45.94-.95,1.22-1.5.28-.53.42-1.13.42-1.8,0-.57-.09-1.1-.28-1.58-.19-.48-.46-.89-.82-1.24-.35-.33-.77-.6-1.26-.8-.49-.19-1.04-.28-1.64-.28s-1.15.09-1.64.28c-.49.2-.92.47-1.28.8-.35.35-.61.76-.8,1.24-.19.48-.28,1.01-.28,1.58,0,.67.14,1.27.42,1.8.28.55.69,1.05,1.22,1.5l-2.28,2.52c-.84-.68-1.49-1.53-1.96-2.56-.45-1.01-.68-2.17-.68-3.46Z"/>
  <path class="st1" d="M1,64.68h14v3.96H1v-3.96Z"/>
  <path class="st1" d="M1,71.78l14,6.18v3.9l-14,6.2v-4.12l12.06-4.84v1.56l-12.06-4.84v-4.04ZM3.72,75.16l2.92,1.02v6.84l-2.92,1.02v-8.88Z"/>
  <path class="st1" d="M1,91.18h14v3.96H4.14v6.68H1v-10.64Z"/>
  <path class="st1" d="M.72,120.27c0-1.12.18-2.15.54-3.1.36-.95.87-1.77,1.52-2.48.67-.69,1.44-1.23,2.32-1.62.88-.39,1.85-.58,2.9-.58s2.02.19,2.9.58c.88.39,1.65.93,2.3,1.62.67.71,1.18,1.53,1.54,2.48.36.95.54,1.98.54,3.1s-.18,2.17-.54,3.1c-.36.95-.87,1.77-1.54,2.46-.65.69-1.42,1.23-2.3,1.62-.88.4-1.85.6-2.9.6s-2.03-.2-2.92-.6c-.88-.39-1.65-.93-2.3-1.62-.65-.69-1.16-1.51-1.52-2.46-.36-.93-.54-1.97-.54-3.1ZM4,120.27c0,.53.09,1.03.28,1.48.19.47.45.87.8,1.2.36.35.79.61,1.28.8.49.2,1.04.3,1.64.3s1.16-.1,1.64-.3c.49-.19.91-.45,1.26-.8.36-.33.63-.73.82-1.2.19-.45.28-.95.28-1.48s-.09-1.03-.28-1.5c-.19-.45-.46-.85-.82-1.2-.35-.33-.77-.6-1.26-.8-.48-.19-1.03-.28-1.64-.28s-1.15.09-1.64.28c-.49.2-.92.47-1.28.8-.35.35-.61.75-.8,1.2-.19.47-.28.97-.28,1.5Z"/>
  <path class="st1" d="M8.86,135.8v6.46h-3.06v-6.46h3.06ZM1,136.09v-3.96h14v10.98h-3.06v-7.02H1Z"/>
  <path class="st1" d="M8.86,150.64v6.46h-3.06v-6.46h3.06ZM1,150.92v-3.96h14v10.98h-3.06v-7.02H1Z"/>
  <path class="st1" d="M9.58,165.43v6.5h-2.96v-6.5h2.96ZM4.06,165.71v7.32H1v-11.24h14v10.98h-3.06v-7.06h-7.88Z"/>
  <path class="st1" d="M1,177.23h14v6.4c0,1.28-.21,2.38-.62,3.3-.41.93-1.01,1.65-1.8,2.16-.77.51-1.69.76-2.76.76s-1.97-.25-2.74-.76c-.76-.51-1.35-1.23-1.76-2.16-.4-.92-.6-2.02-.6-3.3v-4.2l1.66,1.76H1v-3.96ZM1,185.89l5.1-3.48v4.22l-5.1,3.5v-4.24ZM5.96,181.19l1.82-1.76v3.96c0,.83.18,1.44.54,1.84.36.41.86.62,1.5.62s1.16-.21,1.52-.62c.36-.4.54-1.01.54-1.84v-3.96l1.82,1.76h-7.74Z"/>
  <path class="st1" d="M8.25,203.23c-.82,4.54-4.2,7.95-8.25,7.95,4.05,0,7.42,3.41,8.25,7.95.81-4.46,4.07-7.81,8.01-7.94v-.03c-3.94-.13-7.21-3.48-8.02-7.94h0Z"/>
  <path class="st0" d="M8.25,222.68c-.82,4.54-4.2,7.95-8.25,7.95,4.05,0,7.42,3.41,8.25,7.95.81-4.46,4.07-7.81,8.01-7.93v-.03c-3.94-.13-7.21-3.48-8.02-7.94h0Z"/>
  <path class="st2" d="M8.25,242.13c-.82,4.54-4.2,7.95-8.25,7.95,4.05,0,7.42,3.41,8.25,7.95.81-4.46,4.07-7.81,8.01-7.94v-.03c-3.94-.13-7.21-3.48-8.02-7.94h0Z"/>
</svg>