<svg width="81" height="100" viewBox="0 0 81 100" fill="none" xmlns="http://www.w3.org/2000/svg">
<path d="M51.6041 2.20396C61.0238 -2.71056 72.6866 0.869552 77.6443 10.2023C82.602 19.535 78.9853 31.0808 69.5657 35.9953L61.8203 40.0718C68.4929 40.3159 74.8566 43.9855 78.1888 50.2588C83.1466 59.5915 79.538 71.1374 70.1102 76.0519L28.8068 97.7767C19.3871 102.691 7.72431 99.1111 2.7666 89.7784C-2.19112 80.4457 1.42557 68.8998 10.8452 63.9853L18.5906 59.9088C11.918 59.6647 5.55429 55.9951 2.22206 49.7218C-2.73565 40.3891 0.881039 28.8432 10.3007 23.9287L51.6041 2.20396ZM29.3107 34.604L54.3105 50.0554L29.3107 65.4336V34.604Z" fill="#FF1A47"/>
<path d="M29.3125 34.6016V65.4312L54.3124 50.053L29.3125 34.6016Z" fill="white"/>
</svg>
