<?xml version="1.0" encoding="UTF-8"?>
<svg id="_圖層_1" data-name="圖層_1" xmlns="http://www.w3.org/2000/svg" xmlns:xlink="http://www.w3.org/1999/xlink" version="1.1" viewBox="0 0 36 44">
  <!-- Generator: Adobe Illustrator 30.6.0, SVG Export Plug-In . SVG Version: 2.1.4 Build 109)  -->
  <defs>
    <style>
      .st0 {
        fill: url(#_未命名漸層);
      }

      .st1 {
        fill: #fff;
      }

      .st2 {
        fill: #c1914c;
      }
    </style>
    <linearGradient id="_未命名漸層" data-name="未命名漸層" x1="23.92" y1="48.87" x2="14.01" y2="7.24" gradientTransform="translate(0 46) scale(1 -1)" gradientUnits="userSpaceOnUse">
      <stop offset="0" stop-color="#efd9a2"/>
      <stop offset="1" stop-color="#caa546"/>
    </linearGradient>
  </defs>
  <rect class="st0" width="36" height="44"/>
  <path class="st2" d="M12,12.96l10.01,9.07-10.01,9.01.94.96,10.93-9.84h0s.01-.01.01-.01h0s.12-.12.12-.12l-.12-.12h0s-10.94-9.92-10.94-9.92l-.94.96Z"/>
  <path class="st1" d="M12,12.96l10.01,9.07-10.01,9.01.94.96,10.93-9.84h0s.01-.01.01-.01h0s.12-.12.12-.12l-.12-.12h0s-10.94-9.92-10.94-9.92l-.94.96Z"/>
</svg>