<?xml version="1.0" encoding="UTF-8"?>
<svg id="_圖層_1" data-name="圖層_1" xmlns="http://www.w3.org/2000/svg" version="1.1" viewBox="0 0 86.35 62.35">
  <!-- Generator: Adobe Illustrator 30.6.0, SVG Export Plug-In . SVG Version: 2.1.4 Build 109)  -->
  <defs>
    <style>
      .st0 {
        fill: #fff;
      }

      .st1 {
        fill: #ffff45;
      }
    </style>
  </defs>
  <path class="st1" d="M85.22,32.66l-3.54,7.93,3.72,7.84c3.79,7.99-4.41,16.39-12.49,12.78l-7.93-3.54-7.85,3.72c-7.99,3.79-16.39-4.41-12.78-12.49l3.54-7.93-3.72-7.85c-3.79-7.99,4.41-16.39,12.49-12.78l7.93,3.54,7.85-3.72c7.99-3.79,16.39,4.41,12.78,12.49Z"/>
  <path class="st0" d="M22.69,7.32l-1.96,4.26,1.96,4.26c2,4.35-2.49,8.83-6.83,6.83l-4.26-1.96-4.26,1.96c-4.35,2-8.83-2.49-6.83-6.83l1.96-4.26L.49,7.32C-1.51,2.98,2.98-1.51,7.32.49l4.26,1.96L15.85.49c4.35-2,8.83,2.49,6.83,6.83Z"/>
</svg>