<?xml version="1.0" encoding="UTF-8"?>
<svg id="_圖層_1" data-name="圖層_1" xmlns="http://www.w3.org/2000/svg" version="1.1" viewBox="0 0 36 44">
  <!-- Generator: Adobe Illustrator 30.6.0, SVG Export Plug-In . SVG Version: 2.1.4 Build 109)  -->
  <defs>
    <style>
      .st0 {
        fill: #fff;
      }

      .st1 {
        fill: #c1914c;
      }

      .st2 {
        fill: #333;
      }
    </style>
  </defs>
  <rect class="st2" width="36" height="44"/>
  <path class="st1" d="M12,12.96l10.01,9.07-10.01,9.01.94.96,10.93-9.84h0s.01-.01.01-.01h0s.12-.12.12-.12l-.12-.12h0s-10.94-9.92-10.94-9.92l-.94.96Z"/>
  <path class="st0" d="M12,12.96l10.01,9.07-10.01,9.01.94.96,10.93-9.84h0s.01-.01.01-.01h0s.12-.12.12-.12l-.12-.12h0s-10.94-9.92-10.94-9.92l-.94.96Z"/>
</svg>