<?xml version="1.0" encoding="UTF-8"?>
<svg id="_圖層_1" data-name="圖層_1" xmlns="http://www.w3.org/2000/svg" version="1.1" viewBox="0 0 80.41 99.98">
  <!-- Generator: Adobe Illustrator 30.6.0, SVG Export Plug-In . SVG Version: 2.1.4 Build 109)  -->
  <defs>
    <style>
      .st0 {
        fill: #ff1a47;
      }

      .st1 {
        fill: #fff;
      }
    </style>
  </defs>
  <path class="st0" d="M51.6,2.2c9.42-4.91,21.08-1.33,26.04,8,4.96,9.33,1.34,20.88-8.08,25.79l-7.75,4.08c6.67.24,13.04,3.91,16.37,10.19,4.96,9.33,1.35,20.88-8.08,25.79l-41.3,21.72c-9.42,4.91-21.08,1.33-26.04-8-4.96-9.33-1.34-20.88,8.08-25.79l7.75-4.08c-6.67-.24-13.04-3.91-16.37-10.19-4.96-9.33-1.34-20.88,8.08-25.79L51.6,2.2ZM29.31,34.6l25,15.45-25,15.38v-30.83Z"/>
  <path class="st1" d="M29.31,34.6v30.83l25-15.38-25-15.45Z"/>
</svg>