<svg width="87" height="63" viewBox="0 0 87 63" fill="none" xmlns="http://www.w3.org/2000/svg">
<path d="M85.2217 32.6608L81.6864 40.5889L85.4026 48.4338C89.1898 56.4281 80.9885 64.8197 72.9095 61.2168L64.9814 57.6815L57.1364 61.3977C49.1422 65.1849 40.7506 56.9836 44.3534 48.9046L47.8887 40.9765L44.1725 33.1315C40.3853 25.1373 48.5866 16.7457 56.6656 20.3485L64.5937 23.8838L72.4387 20.1676C80.4329 16.3805 88.8245 24.5818 85.2217 32.6608Z" fill="#FFFF45"/>
<path d="M22.6854 7.32299L20.7249 11.5874L22.6854 15.8517C24.6833 20.1973 20.1973 24.6833 15.8517 22.6854L11.5874 20.7249L7.32299 22.6854C2.97744 24.6833 -1.50858 20.1973 0.489373 15.8517L2.44986 11.5874L0.489373 7.32299C-1.50858 2.97744 2.97744 -1.50858 7.32299 0.489372L11.5874 2.44986L15.8517 0.489373C20.1973 -1.50858 24.6833 2.97745 22.6854 7.32299Z" fill="white"/>
</svg>
