<svg width="36" height="44" viewBox="0 0 36 44" fill="none" xmlns="http://www.w3.org/2000/svg">
<rect width="36" height="44" fill="url(#paint0_linear_843_11944)"/>
<path d="M12 12.9551L22.0126 22.0293L12.0016 31.0419L12.937 32L23.8636 22.163L23.8643 22.1625L23.8782 22.15L23.8778 22.1495L24 22.0322L23.8793 21.9162L23.8798 21.9157L12.9387 12L12 12.9551Z" fill="#C1914C"/>
<path d="M12 12.9551L22.0126 22.0293L12.0016 31.0419L12.937 32L23.8636 22.163L23.8643 22.1625L23.8782 22.15L23.8778 22.1495L24 22.0322L23.8793 21.9162L23.8798 21.9157L12.9387 12L12 12.9551Z" fill="white"/>
<defs>
<linearGradient id="paint0_linear_843_11944" x1="35.9944" y1="0.0062888" x2="26.0857" y2="41.6404" gradientUnits="userSpaceOnUse">
<stop stop-color="#EFD9A2"/>
<stop offset="1" stop-color="#CAA546"/>
</linearGradient>
</defs>
</svg>
