<?xml version="1.0" encoding="UTF-8"?>
<svg id="_圖層_1" data-name="圖層_1" xmlns="http://www.w3.org/2000/svg" version="1.1" viewBox="0 0 16.08 143.89">
  <!-- Generator: Adobe Illustrator 30.6.0, SVG Export Plug-In . SVG Version: 2.1.4 Build 109)  -->
  <defs>
    <style>
      .st0 {
        fill: #333;
      }
    </style>
  </defs>
  <path class="st0" d="M.88,5.98L14.88,0v4.28L2.76,9.32v-2.52l12.12,5.16v3.92L.88,9.88v-3.9Z"/>
  <path class="st0" d="M.88,18.7h14v3.96H.88v-3.96Z"/>
  <path class="st0" d="M.88,27.48h14v6.62c0,1.55-.29,2.91-.86,4.08-.57,1.17-1.38,2.09-2.42,2.74-1.04.67-2.28,1-3.72,1s-2.67-.33-3.72-1c-1.04-.65-1.85-1.57-2.42-2.74-.57-1.17-.86-2.53-.86-4.08v-6.62ZM4.04,31.44v2.5c0,.8.15,1.49.44,2.08.31.6.75,1.07,1.32,1.4.59.33,1.28.5,2.08.5s1.51-.17,2.08-.5c.57-.33,1.01-.8,1.3-1.4.31-.59.46-1.28.46-2.08v-2.5h-7.68Z"/>
  <path class="st0" d="M9.46,49.64v6.5h-2.96v-6.5h2.96ZM3.94,49.92v7.32H.88v-11.24h14v10.98h-3.06v-7.06H3.94Z"/>
  <path class="st0" d="M.6,68.5c0-1.12.18-2.15.54-3.1.36-.95.87-1.77,1.52-2.48.67-.69,1.44-1.23,2.32-1.62.88-.39,1.85-.58,2.9-.58s2.02.19,2.9.58c.88.39,1.65.93,2.3,1.62.67.71,1.18,1.53,1.54,2.48.36.95.54,1.98.54,3.1s-.18,2.17-.54,3.1c-.36.95-.87,1.77-1.54,2.46-.65.69-1.42,1.23-2.3,1.62-.88.4-1.85.6-2.9.6s-2.03-.2-2.92-.6c-.88-.39-1.65-.93-2.3-1.62-.65-.69-1.16-1.51-1.52-2.46-.36-.93-.54-1.97-.54-3.1ZM3.88,68.5c0,.53.09,1.03.28,1.48.19.47.45.87.8,1.2.36.35.79.61,1.28.8.49.2,1.04.3,1.64.3s1.16-.1,1.64-.3c.49-.19.91-.45,1.26-.8.36-.33.63-.73.82-1.2.19-.45.28-.95.28-1.48s-.09-1.03-.28-1.5c-.19-.45-.46-.85-.82-1.2-.35-.33-.77-.6-1.26-.8-.48-.19-1.03-.28-1.64-.28s-1.15.09-1.64.28c-.49.2-.92.47-1.28.8-.35.35-.61.75-.8,1.2-.19.47-.28.97-.28,1.5Z"/>
  <path class="st0" d="M8.15,89.08c-.82,4.54-4.15,7.95-8.15,7.95,4,0,7.34,3.41,8.15,7.95.8-4.46,4.03-7.81,7.93-7.94v-.03c-3.9-.13-7.13-3.48-7.93-7.94h0Z"/>
  <path class="st0" d="M8.15,108.54c-.82,4.54-4.15,7.95-8.15,7.95,4,0,7.34,3.41,8.15,7.95.8-4.46,4.03-7.81,7.93-7.94v-.03c-3.9-.13-7.13-3.48-7.93-7.94h0Z"/>
  <path class="st0" d="M8.15,127.99c-.82,4.54-4.15,7.95-8.15,7.95,4,0,7.34,3.41,8.15,7.95.8-4.46,4.03-7.81,7.93-7.94v-.03c-3.9-.13-7.13-3.48-7.93-7.94h0Z"/>
</svg>