<?xml version="1.0" encoding="UTF-8"?>
<svg id="_圖層_1" data-name="圖層_1" xmlns="http://www.w3.org/2000/svg" version="1.1" viewBox="0 0 19.56 18.63">
  <!-- Generator: Adobe Illustrator 30.6.0, SVG Export Plug-In . SVG Version: 2.1.4 Build 109)  -->
  <defs>
    <style>
      .st0 {
        fill: #f7f7f7;
      }
    </style>
  </defs>
  <path class="st0" d="M9.78,0c5.39,0,9.78,3.56,9.78,7.93,0,1.75-.68,3.33-2.1,4.88-2.05,2.36-6.64,5.24-7.68,5.68-1.01.43-.9-.24-.85-.5v-.02s.14-.84.14-.84c.03-.25.07-.64-.03-.88-.11-.27-.54-.41-.86-.48C3.48,15.14,0,11.86,0,7.93,0,3.56,4.39,0,9.78,0ZM6.14,9.39h-1.86v-3.38c0-.05-.02-.1-.06-.13-.04-.04-.08-.06-.13-.06h-.69s-.05,0-.07.01c-.02,0-.04.02-.06.04-.02.02-.03.04-.04.06,0,.02-.01.05-.01.07v4.26c0,.05.02.1.05.13h0s0,0,0,0h0s.04.03.06.04c.02,0,.05.01.07.01h2.74c.11,0,.19-.09.19-.19v-.68s0-.05-.01-.07c0-.02-.02-.04-.04-.06-.02-.02-.04-.03-.06-.04-.02,0-.05-.01-.07-.01ZM7.1,5.82c-.05,0-.1.02-.13.06-.04.04-.06.08-.06.13v4.26c0,.11.09.19.19.19h.69c.11,0,.19-.09.19-.19v-4.26c0-.05-.02-.1-.06-.13-.04-.04-.08-.06-.13-.06h-.69ZM11.83,5.82c-.05,0-.1.02-.13.06-.04.04-.06.08-.06.13v2.53l-1.95-2.64-.02-.02h-.01s0-.02,0-.02h-.01s0-.02,0-.02h0s0,0,0,0h0s0,0,0,0h0s-.01,0-.01,0h0s-.01,0-.01,0h0s-.01,0-.01,0h-.01s0,0,0,0h0s-.7,0-.7,0c-.05,0-.1.02-.13.06-.04.04-.06.08-.06.13v4.26c0,.11.09.19.19.19h.68c.11,0,.19-.09.19-.19v-2.53l1.96,2.64s.03.03.05.05h0s.01,0,.01,0h0s0,0,0,0h0s0,0,0,0h.01s0,0,0,0c.02,0,.03,0,.05,0h.68c.11,0,.19-.09.19-.19v-4.26c0-.05-.02-.1-.06-.13-.04-.04-.08-.06-.13-.06h-.69ZM16.49,6.7v-.68s0-.05-.01-.07c0-.02-.02-.04-.04-.06-.02-.02-.04-.03-.06-.04-.02,0-.05-.01-.07-.01h-2.74s-.1.02-.13.05h0s0,0,0,0c-.03.04-.05.08-.05.13v4.26c0,.05.02.1.05.13h0s0,0,0,0c.04.03.08.05.13.05h2.74c.11,0,.19-.09.19-.19v-.68s0-.05-.01-.07c0-.02-.02-.04-.04-.06-.02-.02-.04-.03-.06-.04-.02,0-.05-.01-.07-.01h-1.87v-.72h1.86c.11,0,.19-.09.19-.19v-.68s0-.05-.01-.07c0-.02-.02-.04-.04-.06-.02-.02-.04-.03-.06-.04-.02,0-.05-.01-.07-.01h-1.86v-.72h1.86c.11,0,.19-.09.19-.19h0Z"/>
</svg>