<svg width="176" height="28" viewBox="0 0 176 28" fill="none" xmlns="http://www.w3.org/2000/svg">
<g clip-path="url(#clip0_811_30983)">
<path fill-rule="evenodd" clip-rule="evenodd" d="M110.181 5.71875C108.8 5.70687 107.379 5.71309 106.004 5.71932C103.947 5.72837 101.824 5.73799 99.7942 5.6865C99.8459 5.29158 99.9754 4.94192 100.111 4.57698C100.292 4.08644 100.48 3.57949 100.464 2.96617L100.457 2.68272L100.174 2.61652C99.6328 2.49034 98.5842 2.29175 97.6406 2.38228L97.3108 2.41396L97.2992 2.73646C97.2946 2.86659 97.2905 3.00182 97.2864 3.14101C97.2626 3.95801 97.233 4.95436 97.0263 5.71932H86.0081L85.9228 5.97392C85.8543 6.1793 85.8212 6.40279 85.7892 6.61836C85.7712 6.73944 85.7544 6.8543 85.7318 6.9618L85.6406 7.39972L86.0993 7.40368C87.512 7.41613 88.9659 7.4099 90.3716 7.40424C92.4689 7.39576 94.6323 7.38727 96.7058 7.43819C96.6385 7.78276 96.5804 8.13411 96.5229 8.47755C96.4242 9.0688 96.3232 9.67703 96.1803 10.2304H86.479L86.0192 12.7323C85.1941 17.2185 84.3411 21.8574 83.5503 26.4658L83.4766 26.8952H86.2282L86.2868 26.5953C86.7101 24.4261 87.1073 22.1895 87.4905 20.0265C87.9661 17.3469 88.4567 14.5802 89.0031 11.9147H92.0189C91.9963 11.9515 91.9753 11.9911 91.9568 12.0336L91.8935 12.1795L91.9585 12.3249C92.1054 12.6537 92.2581 12.9829 92.4056 13.3009C92.6698 13.8712 92.9415 14.4568 93.1883 15.0583H90.2311L90.1742 15.3604C90.1556 15.4583 90.1388 15.5573 90.1225 15.6569C90.0854 15.8792 90.05 16.0891 89.9965 16.2759L89.8671 16.7336L90.3542 16.7426C91.0068 16.7551 91.685 16.7483 92.3411 16.7426C93.2353 16.7342 94.1551 16.7257 95.0144 16.7647C94.8925 17.5166 94.752 18.2929 94.5876 19.1201H88.6884L88.6855 19.4862C88.6843 19.6287 88.657 19.7515 88.6251 19.893C88.5908 20.0457 88.5519 20.2189 88.5473 20.4282L88.5391 20.7988L88.9195 20.8045C89.6464 20.8158 90.4012 20.8096 91.1311 20.8033C92.1809 20.7948 93.2626 20.7864 94.2764 20.8288C94.1626 21.553 94.0296 22.2676 93.9002 22.9624C93.7457 23.7918 93.586 24.6501 93.4583 25.5266L93.3973 25.9469H96.1316L96.1948 25.6539C96.3737 24.8267 96.5252 23.9604 96.6715 23.1225C96.8063 22.3542 96.9444 21.5626 97.1035 20.8039H102.938L103.002 20.5119C103.031 20.3756 103.054 20.2353 103.077 20.0995C103.107 19.9133 103.135 19.7374 103.179 19.5869L103.313 19.119H97.3962C97.4572 18.8038 97.5123 18.4841 97.5657 18.1718C97.6476 17.6943 97.7324 17.2032 97.8369 16.7415H102.894L102.955 16.4467C102.981 16.3234 103 16.1972 103.018 16.0756C103.048 15.8781 103.075 15.692 103.127 15.546L103.3 15.0571H100.348C100.615 14.8042 100.902 14.54 101.221 14.2532C101.275 14.2045 101.382 14.1196 101.507 14.0217C102.411 13.3077 102.838 12.8947 102.822 12.4788C102.812 12.2361 102.698 12.0585 102.551 11.9204C102.785 11.9193 103.018 11.917 103.248 11.9147C104.01 11.9074 104.792 11.8995 105.519 11.9334C105.248 13.5035 104.946 15.1562 104.626 16.8977C104.311 18.6177 103.985 20.3965 103.693 22.0882C103.658 22.2885 103.626 22.5324 103.593 22.791C103.492 23.5627 103.324 24.855 102.946 25.1577C102.509 25.5062 101.728 25.3104 100.972 25.1203C100.553 25.0151 100.156 24.9149 99.7814 24.8929L99.2827 24.8634L99.3889 25.3393C99.4156 25.4604 99.4307 25.6018 99.447 25.7512C99.4842 26.1042 99.5231 26.4692 99.7344 26.7458L99.8482 26.8952L100.039 26.8946C100.43 26.8935 100.86 26.9173 101.275 26.9399C101.699 26.9637 102.127 26.9869 102.542 26.9869C103.407 26.9869 104.215 26.8839 104.801 26.4595C105.876 25.6827 106.15 24.1138 106.415 22.5969C106.45 22.3943 106.485 22.1918 106.523 21.9904C106.85 20.2274 107.18 18.3518 107.5 16.5378C107.871 14.4348 108.221 12.4483 108.558 10.6649L108.64 10.2332L108.19 10.2292C106.983 10.2185 105.739 10.2247 104.536 10.2309C102.705 10.24 100.817 10.2496 99.015 10.1998C99.0806 9.85978 99.1375 9.51409 99.1938 9.17631C99.2931 8.5777 99.3947 7.96211 99.5393 7.40255H110.292L110.363 7.12135C110.403 6.96293 110.429 6.79885 110.455 6.63929C110.481 6.47408 110.506 6.31792 110.544 6.181L110.669 5.72158L110.181 5.71875ZM97.719 14.9344C97.7248 14.9791 97.7341 15.0204 97.7457 15.0583H95.7988C95.8308 15.0023 95.8558 14.94 95.8714 14.871C95.9835 14.3527 95.6415 13.8656 95.3105 13.3948C95.2101 13.2523 95.1154 13.117 95.0388 12.9886L94.8512 12.6712C94.6858 12.3917 94.5394 12.1444 94.41 11.9159H99.8604C99.3007 12.8517 98.6237 13.7021 97.8044 14.6503L97.6975 14.7742L97.719 14.9344Z" fill="url(#paint0_linear_811_30983)"/>
<path fill-rule="evenodd" clip-rule="evenodd" d="M80.9051 5.53693C79.5621 5.52561 78.179 5.53183 76.8418 5.53749C74.805 5.54654 72.703 5.5556 70.6929 5.50411C70.7504 5.29364 70.8415 5.10862 70.9414 4.90493C71.122 4.53774 71.3264 4.12188 71.3264 3.51422V3.2483L71.0674 3.16456C70.3433 2.92976 69.243 2.81377 68.3285 2.87601L68.026 2.89638L67.9807 3.18889C67.9366 3.47518 67.9157 3.8073 67.893 4.15922C67.864 4.61978 67.8315 5.13069 67.7398 5.53636H56.9504L56.912 5.86339C56.883 6.10838 56.8395 6.33865 56.7936 6.58194C56.7721 6.69623 56.75 6.81052 56.7303 6.92651L56.656 7.35312L57.1002 7.35651C58.4403 7.3667 59.8204 7.36104 61.1547 7.35481C63.2201 7.34576 65.3504 7.33614 67.3885 7.38819C67.3461 7.61791 67.3066 7.84932 67.2677 8.07563C67.1963 8.49205 67.1231 8.92036 67.0337 9.32603H59.7426L59.6927 9.63778C59.4274 11.2939 59.1225 12.9465 58.8276 14.5443C58.5558 16.0165 58.2754 17.5391 58.0251 19.065L57.9549 19.4922H62.9449C60.6031 21.6467 57.5502 23.3662 53.6425 24.7331L53.3516 24.8349L53.3957 25.1331C53.4392 25.4279 53.5403 25.6633 53.6291 25.8709C53.6854 26.0022 53.7383 26.1266 53.7748 26.2579L53.8724 26.6104L54.2353 26.5193C58.5924 25.4217 61.9508 23.2055 64.9033 21.1313C64.8313 21.5302 64.7605 21.929 64.6891 22.3279C64.4249 23.8063 64.1514 25.3351 63.8599 26.818L63.774 27.256H66.7678L66.8247 26.9538C67.1742 25.1037 67.5644 23.0386 67.9232 20.9315C69.6715 23.3288 72.2623 25.1433 75.9918 26.5974L76.1625 26.6642L76.3216 26.5748C76.5509 26.4458 76.6769 26.224 76.7884 26.0288C76.8296 25.9563 76.8685 25.8884 76.9074 25.8336C76.9376 25.7911 76.9911 25.7357 77.0433 25.6819C77.2053 25.5145 77.5067 25.2027 77.2965 24.8502L77.2256 24.7314L77.0927 24.6867C74.0983 23.6756 71.7067 21.8866 70.1372 19.4927H75.4779L75.5348 19.19C75.9686 16.876 76.3942 14.5087 76.8053 12.2189C76.9527 11.3991 77.0996 10.5787 77.2477 9.75886L77.3249 9.33169L76.8802 9.32603C75.9581 9.31415 75.0053 9.32037 74.0832 9.3266C72.7396 9.33508 71.3554 9.34414 70.0455 9.29774C70.0594 9.21061 70.0733 9.12291 70.0879 9.03578C70.1825 8.44339 70.2731 7.8793 70.4055 7.35651H81.0213L81.1176 6.93217C81.1891 6.62268 81.2628 6.30188 81.2802 5.9211L81.2976 5.53919L80.9051 5.53693ZM73.3232 14.9828C73.279 15.2244 73.2332 15.4649 73.1885 15.7002C73.0677 16.3396 72.9429 16.9982 72.8401 17.6749H68.5277C68.5706 17.4321 68.6125 17.1888 68.6531 16.9501C68.7652 16.2932 68.8807 15.6165 69.0253 14.9828H73.3232ZM69.3412 13.2074C69.4416 12.4956 69.5699 11.7906 69.7238 11.1032H74.017C73.9439 11.5247 73.8666 11.9456 73.7912 12.3564C73.7395 12.6399 73.6872 12.9233 73.6367 13.2074H69.3412ZM66.0112 14.9828C65.9288 15.4841 65.837 15.9809 65.7476 16.4646C65.6744 16.8595 65.5995 17.2652 65.5293 17.6749H61.2569C61.29 17.4819 61.3226 17.289 61.3545 17.1C61.4735 16.3922 61.5966 15.6629 61.754 14.9828H66.0112ZM66.7138 11.1038C66.6 11.8348 66.4653 12.538 66.3311 13.2079H62.0722C62.1622 12.5544 62.2858 11.8715 62.4542 11.1038H66.7138Z" fill="url(#paint1_linear_811_30983)"/>
<path d="M136.456 12.7574C136.446 12.7574 136.436 12.7569 136.427 12.7569C135.589 12.7569 134.933 13.6712 134.453 14.3411C134.328 14.5148 134.211 14.6789 134.121 14.7813C133.667 15.295 133.123 15.9112 132.577 16.2829C132.492 15.8484 132.573 15.3567 132.652 14.8775C132.691 14.6376 132.728 14.4107 132.745 14.1912L132.762 13.9705L132.571 13.8523C132.188 13.6152 131.652 13.5875 131.197 13.6497C131.705 13.1003 132.219 12.5736 132.751 12.0576C133.115 11.9597 133.864 11.7045 133.859 11.0029C133.858 10.397 133.239 10.0235 132.742 9.72367C132.539 9.6009 132.285 9.44814 132.218 9.35308L131.934 8.9525L131.615 9.32762C129.385 11.9501 126.801 14.5578 123.719 17.2974C123.727 17.2464 123.735 17.1961 123.743 17.1452C123.979 15.6577 124.202 14.2528 124.497 13.0788L124.609 12.6318L124.137 12.6222C123.564 12.6103 122.966 12.6166 122.388 12.6222C121.611 12.6301 120.811 12.6381 120.07 12.6024C120.197 11.7843 120.351 10.9345 120.548 9.97489H125.17L125.238 9.68973C125.318 9.35704 125.399 8.99833 125.432 8.59831L125.465 8.21131L125.066 8.19943C124.661 8.18755 124.235 8.19378 123.824 8.2C123.338 8.20736 122.84 8.21471 122.38 8.19095C122.482 7.72473 122.538 7.24212 122.592 6.77138C122.665 6.12694 122.736 5.51758 122.916 4.98178C122.948 4.88276 123.002 4.78035 123.06 4.67228C123.213 4.38147 123.404 4.01993 123.234 3.56729L123.165 3.38455L122.972 3.33645C122.132 3.12824 121.037 3.05469 120.346 3.05469C120.341 3.05469 120.335 3.05469 120.33 3.05469L120.121 3.05525L120.01 3.22669C119.789 3.56786 119.86 3.91922 119.912 4.17609C119.931 4.26945 119.949 4.35771 119.952 4.43579C119.993 5.2658 119.782 6.13939 119.577 6.98411C119.475 7.40337 119.378 7.80451 119.31 8.19887H115.467L115.418 8.51231C115.383 8.74202 115.34 8.9723 115.299 9.19523C115.278 9.31121 115.257 9.4272 115.237 9.54262L115.164 9.95565L115.594 9.97319C115.903 9.9862 116.23 9.97998 116.546 9.97376C116.883 9.96753 117.23 9.96074 117.543 9.97885C116.509 17.2679 114.692 22.3753 111.834 26.0326L111.562 26.3806L111.96 26.5831C112.107 26.6578 112.239 26.7659 112.379 26.8807C112.512 26.9899 112.651 27.1031 112.818 27.2027L113.075 27.3571L113.286 27.1467C116.175 24.2719 118.188 20.2169 119.611 14.4028C119.817 14.4045 120.028 14.3999 120.234 14.396C120.569 14.3898 120.911 14.383 121.223 14.3994C121.051 15.2871 120.897 16.2314 120.735 17.2232C120.389 19.3399 120.032 21.5289 119.459 23.3491L119.438 23.4147C119.286 23.9001 118.821 25.3769 118.341 25.4906C117.952 25.5839 117.555 25.4719 117.094 25.3424C116.703 25.232 116.298 25.1183 115.848 25.1183C115.844 25.1183 115.84 25.1183 115.837 25.1183L115.431 25.12L115.461 25.5144C115.48 25.7678 115.522 25.9953 115.562 26.2159C115.597 26.4089 115.63 26.5905 115.649 26.7857L115.682 27.1269L116.033 27.1206C116.483 27.1127 116.911 27.1337 117.324 27.1546C118.021 27.1891 118.679 27.2219 119.371 27.1161C120.937 26.8762 121.796 25.0368 122.306 23.6744C122.924 22.0257 123.29 19.9651 123.621 17.9129C123.698 18.0482 123.781 18.1738 123.863 18.296C123.989 18.4867 124.108 18.6666 124.197 18.8663L124.36 19.2346L124.723 19.0451C125.28 18.7537 125.752 18.3339 126.207 17.9277C126.246 17.8931 126.285 17.8586 126.323 17.8241C126.117 19.0213 125.898 20.2129 125.685 21.3739C125.375 23.0616 125.054 24.8066 124.773 26.5588L124.704 26.9849H127.636L127.697 26.6872C128.094 24.729 128.464 22.5847 128.823 20.5111C129.043 19.2346 129.271 17.9146 129.501 16.6654C129.532 16.5002 129.556 16.3265 129.58 16.159C129.624 15.8376 129.67 15.5049 129.759 15.295C129.761 15.2905 129.763 15.286 129.765 15.2809C129.783 15.5372 129.822 15.8093 129.861 16.0775C129.88 16.2156 129.9 16.3457 129.913 16.4594C130.491 21.5838 132.029 25.2167 134.487 27.257L134.593 27.3453H134.92L135.027 27.2559C135.367 26.9696 135.773 26.7172 136.165 26.4734L136.607 26.1984L136.31 25.8753C134.769 24.1927 133.796 22.2531 133.25 19.7716C133.22 19.6352 133.178 19.4943 133.138 19.3585C133.089 19.1928 133.007 18.915 133.022 18.8341C133.058 18.7356 133.362 18.5364 133.525 18.4295C133.646 18.3497 133.76 18.2745 133.862 18.1941C134.329 17.8218 134.722 17.4858 135.102 17.1599C135.342 16.9539 135.59 16.7412 135.859 16.5177C135.983 16.4147 136.107 16.3021 136.226 16.1929C136.425 16.0113 136.632 15.8235 136.769 15.7471C136.896 15.6775 137.029 15.6441 137.171 15.6085C137.464 15.5349 137.867 15.4336 138.013 14.9425C138.137 14.5261 137.988 13.9818 137.616 13.4868C137.273 13.0336 136.85 12.7671 136.456 12.7574Z" fill="url(#paint2_linear_811_30983)"/>
<path d="M130.597 7.02649C131.061 6.3747 131.48 5.76082 131.868 5.16504C131.907 5.13789 131.952 5.11072 132.001 5.08243C132.217 4.95343 132.579 4.73787 132.561 4.26713C132.552 4.03403 132.404 3.80261 132.109 3.55932C131.592 3.13328 130.676 2.71799 130.099 2.78928C129.472 2.86397 129.265 3.39128 129.097 3.8145C129.056 3.91917 129.014 4.02723 128.966 4.13021C127.516 7.27714 124.849 10.4886 124.066 11.3978L123.742 11.7746L124.204 11.9726C124.57 12.1294 124.891 12.3263 125.216 12.5311L125.441 12.6725L125.652 12.5147C126.659 11.7639 127.528 10.8693 128.369 10.0037C128.741 9.62008 129.125 9.2246 129.515 8.84835H138.698L138.788 8.60619C138.871 8.38553 138.911 8.14393 138.949 7.91082C138.974 7.75863 138.998 7.61492 139.032 7.48648L139.152 7.02649H130.597Z" fill="url(#paint3_linear_811_30983)"/>
<path d="M163.714 23.3012L163.681 23.3199C163.657 23.3352 161.233 24.8209 155.365 24.8209C155.259 24.8209 155.151 24.8204 155.042 24.8192C152.064 24.7921 150.421 24.2127 149.524 23.6492L149.542 23.6311C149.942 23.2124 150.325 22.7671 150.69 22.2975C150.709 22.4282 150.734 22.5521 150.757 22.6738C150.795 22.8695 150.831 23.054 150.845 23.2576L150.868 23.6005L151.22 23.6022C151.432 23.6034 151.64 23.6062 151.843 23.609C153.267 23.6288 154.495 23.6458 155.345 22.9793C156.479 22.0933 156.783 20.5441 157.079 19.0453C157.192 18.4716 157.308 17.8815 157.47 17.3355C157.829 17.3389 158.197 17.3344 158.555 17.3293C159.141 17.3219 159.743 17.314 160.297 17.3423C160.193 17.8538 160.115 18.3913 160.04 18.9152C159.88 20.0196 159.716 21.1591 159.307 21.9937C158.878 22.0384 158.429 21.9693 157.993 21.902C157.821 21.8754 157.642 21.8477 157.47 21.8285L157.005 21.7758L157.049 22.2296C157.07 22.4401 157.107 22.6319 157.142 22.8169C157.182 23.0251 157.219 23.222 157.233 23.437L157.254 23.7618L157.611 23.7833C158.895 23.8597 160.221 23.9389 161.009 23.4545C162.312 22.6494 162.548 20.9826 162.777 19.3707C162.876 18.6742 162.978 17.9567 163.165 17.3304H165.438L165.515 17.0594C165.578 16.8353 165.618 16.5972 165.657 16.3669C165.673 16.2707 165.69 16.1745 165.707 16.08L165.787 15.6551L165.344 15.6449C164.804 15.6325 164.518 15.6404 164.289 15.6466C164.04 15.6534 163.858 15.6585 163.455 15.6313C163.458 15.6149 163.462 15.5991 163.466 15.5821C163.494 15.4571 163.525 15.3207 163.538 15.1612C163.842 14.9241 164.156 14.6395 164.485 14.3402C164.694 14.1512 164.909 13.956 165.134 13.7608C165.334 13.586 165.57 13.414 165.798 13.2477C166.236 12.9274 166.69 12.5959 166.956 12.2004C167.367 11.5871 167.291 11.1271 167.155 10.8493C166.953 10.4345 166.475 10.1601 165.846 10.0968C164.847 9.99719 163.656 10.0408 162.504 10.0832C161.589 10.1166 160.647 10.1511 159.796 10.1154C160.05 9.8433 160.292 9.57851 160.534 9.30806C160.607 9.22602 160.707 9.09532 160.834 8.92954C161.032 8.66984 161.494 8.06558 161.669 7.97052C161.889 7.90942 162.299 7.93714 162.663 7.96204C162.866 7.97562 163.075 7.99033 163.262 7.99033H168.777V7.62143C168.777 7.46697 168.806 7.33797 168.84 7.1886C168.872 7.04489 168.909 6.88194 168.918 6.69014L168.935 6.30483H162.832C163.004 6.07003 163.194 5.81712 163.414 5.5529C163.483 5.46973 163.597 5.36166 163.718 5.24794C164.125 4.86263 164.634 4.38284 164.51 3.8459C164.353 3.13187 162.507 2.81503 162.176 2.832L161.944 2.84332L161.849 3.0504C161.202 4.4711 160.444 5.84541 159.559 7.20218L159.556 6.94927L159.196 6.93682C158.853 6.92494 158.491 6.9306 158.14 6.93682C157.74 6.94361 157.33 6.9504 156.955 6.92947C156.998 6.70258 157.031 6.48023 157.065 6.2624C157.115 5.93028 157.164 5.61683 157.238 5.31639C157.286 5.12572 157.373 4.93675 157.464 4.73702C157.653 4.32852 157.865 3.8657 157.752 3.30897L157.702 3.05889L157.276 2.98873C156.54 2.86652 155.706 2.7279 154.94 2.78787L154.713 2.80541L154.623 3.00796C154.465 3.36158 154.497 3.75198 154.529 4.12936C154.547 4.34946 154.566 4.57747 154.546 4.79078C154.492 5.37977 154.334 6.02364 154.194 6.59226C154.165 6.71051 154.137 6.82479 154.111 6.93626H151.06L150.989 7.21745C150.925 7.47262 150.872 7.73912 150.83 8.01239C150.757 7.91225 150.685 7.81267 150.613 7.71252C149.586 6.29465 148.525 4.82812 147.393 3.46173L147.125 3.13753L146.827 3.43627C146.711 3.55282 146.569 3.65749 146.42 3.76839C146.222 3.91493 146.017 4.06712 145.839 4.26798L145.653 4.47959L145.811 4.71213C147.117 6.63017 148.015 8.37903 148.636 10.2145L148.8 10.6971L149.22 10.3966C149.79 9.98927 150.374 9.50778 151.061 8.88145L151.294 8.66814C151.547 8.6738 151.809 8.66928 152.064 8.66419C152.376 8.65796 152.695 8.65117 152.985 8.66645C152.8 9.55474 152.654 10.4464 152.513 11.3115C152.231 13.0462 151.963 14.6842 151.417 16.1564C150.727 18.0184 149.797 19.7893 148.431 21.8313C148.431 21.6944 148.436 21.5529 148.447 21.4075C148.507 20.5916 148.686 19.7124 148.859 18.862C148.922 18.5542 148.987 18.2362 149.044 17.9268C149.121 17.5103 149.203 17.0916 149.283 16.6871C149.435 15.9097 149.579 15.1759 149.695 14.4421L149.762 14.0171H147.901C147.936 13.9973 147.969 13.9781 148.004 13.9583C148.402 13.7303 148.815 13.4949 149.139 13.1441L149.292 12.9778L149.212 12.7684C148.488 10.8821 147.663 8.91144 146.531 7.278L146.284 6.92098L145.96 7.21463C145.869 7.29667 145.747 7.36965 145.617 7.4466C145.407 7.57051 145.17 7.71139 144.992 7.93714L144.862 8.10348L144.941 8.29812C145.649 10.034 146.125 12.0584 146.583 14.0177H144.348L144.236 14.184C144.088 14.4047 144.052 14.6808 144.02 14.9241C144.002 15.0548 143.986 15.1787 143.957 15.2721L143.811 15.7343L144.307 15.7496C144.659 15.7603 145.03 15.7541 145.389 15.7485C145.818 15.7417 146.258 15.7343 146.658 15.7569C146.345 17.5528 146.015 19.3582 145.695 21.1076C145.599 21.6321 145.503 22.1566 145.407 22.6817C145.145 22.9052 144.841 23.0987 144.521 23.3023C144.37 23.3991 144.213 23.4987 144.055 23.6056C143.879 23.7273 143.706 23.8647 143.538 23.9977C143.242 24.2336 142.935 24.4775 142.633 24.6116C142.595 24.6286 142.524 24.6399 142.456 24.6506C142.249 24.6834 141.905 24.7378 141.716 25.0886L141.648 25.2136L141.684 25.3505C141.877 26.0968 142.186 26.9087 143.009 27.268L143.252 27.3743L143.437 27.1871C144.217 26.3944 145.147 25.4846 146.201 24.6614C146.522 24.9307 146.883 25.174 147.277 25.3867C148.783 26.5013 151.105 27.8077 154.998 27.8077C156.197 27.8077 157.547 27.6838 159.068 27.3913C162.985 26.6388 166.206 24.1493 168.218 22.1934C170.389 20.0841 171.626 18.178 171.677 18.0976L171.068 17.6631C168.088 21.0907 163.757 23.2797 163.714 23.3012ZM157.9 10.2495C158.036 10.3186 158.164 10.4046 158.299 10.4962C158.447 10.5958 158.6 10.6993 158.777 10.7899L158.971 10.8889C158.944 11.0535 158.914 11.2097 158.87 11.3472L158.72 11.8241H164.091C164.078 11.8434 164.066 11.862 164.054 11.8813C163.767 12.3237 163.494 12.7441 163.177 13.117H161.106L161.039 13.4033C160.959 13.7416 160.902 14.102 160.846 14.45C160.782 14.8545 160.715 15.2709 160.615 15.6387C160.257 15.6347 159.89 15.6398 159.533 15.6444C158.962 15.6517 158.377 15.6596 157.838 15.6313C157.948 15.0842 158.046 14.5224 158.141 13.9758C158.262 13.2839 158.387 12.5681 158.535 11.8949L158.631 11.4603L158.175 11.4484C157.715 11.4366 157.233 11.4428 156.766 11.4484C156.171 11.4558 155.561 11.4637 154.998 11.4337C155.039 11.2035 155.079 10.9732 155.117 10.7474C155.237 10.0555 155.36 9.34314 155.507 8.66588H158.549C158.299 9.01045 158.04 9.35501 157.772 9.69958L157.501 10.0481L157.9 10.2495ZM154.728 13.1843C154.856 13.1837 154.986 13.1809 155.113 13.1775C155.324 13.1724 155.54 13.1673 155.735 13.1758C155.353 15.3168 154.748 17.9273 154.095 20.2482C154.078 20.3087 154.061 20.371 154.044 20.4349C153.884 21.0228 153.665 21.8273 153.22 21.9229C152.924 21.9874 152.578 21.8986 152.177 21.7956C151.882 21.7198 151.552 21.635 151.201 21.6072C152.869 19.2366 154.093 16.3312 154.728 13.1843Z" fill="url(#paint4_linear_811_30983)"/>
<path d="M10.6402 16.8111C10.1919 18.6941 9.422 21.1247 7.44435 21.9587C5.65076 22.7095 3.54711 22.241 1.66817 22.2286C1.1125 24.0272 0.557993 25.8281 0 27.624C4.40239 27.9255 11.6743 28.48 13.5782 23.4269C15.0954 19.4166 15.8264 15.0306 17.4882 11.0746C17.5817 10.8431 17.6972 10.6202 17.8064 10.3984L12.3101 10.8856C11.6215 12.7844 11.1343 14.7511 10.6402 16.8111Z" fill="#1E2973"/>
<path d="M26.811 5.5048C27.2175 3.76499 27.6344 2.02801 28.0408 0.289329C26.0783 -0.114646 23.5624 0.652568 21.6747 1.13179C18.7047 1.88713 16.7416 3.22579 14.9921 5.66492C13.792 7.3357 12.9634 9.08173 12.3125 10.8855L17.8088 10.3983C19.538 7.17219 23.2093 5.69377 26.811 5.5048Z" fill="#D61518"/>
<path d="M47.9359 7.64337L25.921 7.60547C25.921 7.60547 24.0183 7.65639 22.5301 8.67085C21.0553 9.68136 20.4352 11.4229 20.4352 11.4229L16.0938 27.536L28.765 27.5666L30.194 22.5378L22.749 22.5192L23.5584 19.8186L30.7566 19.8351L31.9957 15.2867L24.6076 15.268C24.6076 15.268 25.0472 12.6269 27.0155 12.6348C28.9856 12.6416 36.6744 12.6569 36.6744 12.6569L33.0118 27.6266L37.8677 27.6373L41.5942 12.671L46.5087 12.6755L47.9359 7.64337Z" fill="#1E2973"/>
<path d="M174.046 15.0028L175.407 17.305L175.642 16.9536C175.642 16.9536 175.759 16.8818 175.584 16.4116L174.912 14.1219C174.912 14.1219 174.785 13.8282 174.996 13.5674L175.944 12.188C175.944 12.188 176.136 11.7976 175.782 11.5328C175.782 11.5328 175.363 11.3172 175.039 11.7303L174.094 13.1419C174.094 13.1419 174.018 13.2975 173.657 13.3354L171.041 13.689C171.041 13.689 170.763 13.7111 170.654 13.9244L170.492 14.1779L173.229 14.4206L172.486 15.5448C172.486 15.5448 172.396 15.6767 172.214 15.6942L171.201 15.7525L171.295 16.0563L172.319 16.411C172.319 16.411 172.405 16.4201 172.532 16.5525L173.412 17.3746L173.68 17.3129L173.29 16.3284C173.29 16.3284 173.236 16.1412 173.348 15.9822C173.514 15.7474 174.075 14.9621 174.075 14.9621" fill="url(#paint5_linear_811_30983)"/>
</g>
<defs>
<linearGradient id="paint0_linear_811_30983" x1="119.095" y1="14.6739" x2="323.488" y2="14.6739" gradientUnits="userSpaceOnUse">
<stop stop-color="#006BB8"/>
<stop offset="1" stop-color="#002F7E"/>
</linearGradient>
<linearGradient id="paint1_linear_811_30983" x1="119.094" y1="15.0581" x2="323.487" y2="15.0581" gradientUnits="userSpaceOnUse">
<stop stop-color="#006BB8"/>
<stop offset="1" stop-color="#002F7E"/>
</linearGradient>
<linearGradient id="paint2_linear_811_30983" x1="119.096" y1="15.2068" x2="323.488" y2="15.2068" gradientUnits="userSpaceOnUse">
<stop stop-color="#006BB8"/>
<stop offset="1" stop-color="#002F7E"/>
</linearGradient>
<linearGradient id="paint3_linear_811_30983" x1="119.094" y1="7.72708" x2="323.486" y2="7.72708" gradientUnits="userSpaceOnUse">
<stop stop-color="#006BB8"/>
<stop offset="1" stop-color="#002F7E"/>
</linearGradient>
<linearGradient id="paint4_linear_811_30983" x1="119.095" y1="15.2911" x2="323.488" y2="15.2911" gradientUnits="userSpaceOnUse">
<stop stop-color="#006BB8"/>
<stop offset="1" stop-color="#002F7E"/>
</linearGradient>
<linearGradient id="paint5_linear_811_30983" x1="172.671" y1="16.1723" x2="175.249" y2="12.0073" gradientUnits="userSpaceOnUse">
<stop stop-color="#006BB8"/>
<stop offset="1" stop-color="#002F7E"/>
</linearGradient>
<clipPath id="clip0_811_30983">
<rect width="176" height="28" fill="white"/>
</clipPath>
</defs>
</svg>
