<?xml version="1.0" encoding="UTF-8"?>
<svg id="_圖層_1" data-name="圖層_1" xmlns="http://www.w3.org/2000/svg" xmlns:xlink="http://www.w3.org/1999/xlink" version="1.1" viewBox="0 0 176 28">
  <!-- Generator: Adobe Illustrator 30.6.0, SVG Export Plug-In . SVG Version: 2.1.4 Build 109)  -->
  <defs>
    <style>
      .st0 {
        fill: none;
      }

      .st1 {
        fill: url(#_未命名漸層);
      }

      .st1, .st2 {
        fill-rule: evenodd;
      }

      .st3 {
        fill: #d61518;
      }

      .st4 {
        fill: #1e2973;
      }

      .st5 {
        fill: url(#_未命名漸層_5);
      }

      .st6 {
        fill: url(#_未命名漸層_6);
      }

      .st7 {
        fill: url(#_未命名漸層_3);
      }

      .st8 {
        fill: url(#_未命名漸層_4);
      }

      .st2 {
        fill: url(#_未命名漸層_2);
      }

      .st9 {
        clip-path: url(#clippath);
      }
    </style>
    <clipPath id="clippath">
      <rect class="st0" width="176" height="28"/>
    </clipPath>
    <linearGradient id="_未命名漸層" data-name="未命名漸層" x1="119.1" y1="15.33" x2="323.49" y2="15.33" gradientTransform="translate(0 30) scale(1 -1)" gradientUnits="userSpaceOnUse">
      <stop offset="0" stop-color="#006bb8"/>
      <stop offset="1" stop-color="#002f7e"/>
    </linearGradient>
    <linearGradient id="_未命名漸層_2" data-name="未命名漸層 2" x1="119.09" y1="14.94" x2="323.49" y2="14.94" gradientTransform="translate(0 30) scale(1 -1)" gradientUnits="userSpaceOnUse">
      <stop offset="0" stop-color="#006bb8"/>
      <stop offset="1" stop-color="#002f7e"/>
    </linearGradient>
    <linearGradient id="_未命名漸層_3" data-name="未命名漸層 3" x1="119.1" y1="14.79" x2="323.49" y2="14.79" gradientTransform="translate(0 30) scale(1 -1)" gradientUnits="userSpaceOnUse">
      <stop offset="0" stop-color="#006bb8"/>
      <stop offset="1" stop-color="#002f7e"/>
    </linearGradient>
    <linearGradient id="_未命名漸層_4" data-name="未命名漸層 4" x1="119.09" y1="22.27" x2="323.49" y2="22.27" gradientTransform="translate(0 30) scale(1 -1)" gradientUnits="userSpaceOnUse">
      <stop offset="0" stop-color="#006bb8"/>
      <stop offset="1" stop-color="#002f7e"/>
    </linearGradient>
    <linearGradient id="_未命名漸層_5" data-name="未命名漸層 5" x1="119.1" y1="14.71" x2="323.49" y2="14.71" gradientTransform="translate(0 30) scale(1 -1)" gradientUnits="userSpaceOnUse">
      <stop offset="0" stop-color="#006bb8"/>
      <stop offset="1" stop-color="#002f7e"/>
    </linearGradient>
    <linearGradient id="_未命名漸層_6" data-name="未命名漸層 6" x1="172.69" y1="13.82" x2="175.27" y2="17.98" gradientTransform="translate(0 30) scale(1 -1)" gradientUnits="userSpaceOnUse">
      <stop offset="0" stop-color="#006bb8"/>
      <stop offset="1" stop-color="#002f7e"/>
    </linearGradient>
  </defs>
  <g class="st9">
    <g>
      <path class="st1" d="M110.18,5.72c-1.38-.01-2.8,0-4.18,0-2.06,0-4.18.02-6.21-.03.05-.39.18-.74.32-1.11.18-.49.37-1,.35-1.61v-.28s-.29-.07-.29-.07c-.54-.13-1.59-.32-2.53-.23l-.33.03v.32c-.02.13-.02.27-.02.4-.02.82-.05,1.81-.26,2.58h-11.02l-.09.25c-.07.21-.1.43-.13.64-.02.12-.03.24-.06.34l-.09.44h.46c1.41.02,2.87.01,4.27,0,2.1,0,4.26-.02,6.33.03-.07.34-.13.7-.18,1.04-.1.59-.2,1.2-.34,1.75h-9.7l-.46,2.5c-.83,4.49-1.68,9.13-2.47,13.73l-.07.43h2.75l.06-.3c.42-2.17.82-4.41,1.2-6.57.48-2.68.97-5.45,1.51-8.11h3.02s-.04.08-.06.12l-.06.15.07.15c.15.33.3.66.45.98.26.57.54,1.16.78,1.76h-2.96l-.06.3c-.02.1-.04.2-.05.3-.04.22-.07.43-.13.62l-.13.46h.49c.65.02,1.33.01,1.99,0,.89,0,1.81-.02,2.67.02-.12.75-.26,1.53-.43,2.36h-5.9v.37c0,.14-.03.27-.06.41-.03.15-.07.33-.08.54v.37s.37,0,.37,0c.73.01,1.48,0,2.21,0,1.05,0,2.13-.02,3.15.03-.11.72-.25,1.44-.38,2.13-.15.83-.31,1.69-.44,2.56l-.06.42h2.73l.06-.29c.18-.83.33-1.69.48-2.53.13-.77.27-1.56.43-2.32h5.83l.06-.29c.03-.14.05-.28.08-.41.03-.19.06-.36.1-.51l.13-.47h-5.92c.06-.32.12-.63.17-.95.08-.48.17-.97.27-1.43h5.06l.06-.29c.03-.12.04-.25.06-.37.03-.2.06-.38.11-.53l.17-.49h-2.95c.27-.25.55-.52.87-.8.05-.05.16-.13.29-.23.9-.71,1.33-1.13,1.31-1.54-.01-.24-.12-.42-.27-.56.23,0,.47,0,.7,0,.76,0,1.54-.02,2.27.02-.27,1.57-.57,3.22-.89,4.96-.32,1.72-.64,3.5-.93,5.19-.04.2-.07.44-.1.7-.1.77-.27,2.06-.65,2.37-.44.35-1.22.15-1.97-.04-.42-.11-.82-.21-1.19-.23l-.5-.03.11.48c.03.12.04.26.06.41.04.35.08.72.29.99l.11.15h.19c.39,0,.82.02,1.24.04.42.02.85.05,1.27.05.86,0,1.67-.1,2.26-.53,1.07-.78,1.35-2.35,1.61-3.86.03-.2.07-.41.11-.61.33-1.76.66-3.64.98-5.45.37-2.1.72-4.09,1.06-5.87l.08-.43h-.45c-1.21-.01-2.45,0-3.65,0-1.83,0-3.72.02-5.52-.03.07-.34.12-.69.18-1.02.1-.6.2-1.21.35-1.77h10.75l.07-.28c.04-.16.07-.32.09-.48.03-.17.05-.32.09-.46l.12-.46h-.49ZM97.72,14.93s.02.09.03.12h-1.95c.03-.06.06-.12.07-.19.11-.52-.23-1.01-.56-1.48-.1-.14-.2-.28-.27-.41l-.19-.32c-.17-.28-.31-.53-.44-.76h5.45c-.56.94-1.24,1.79-2.06,2.73l-.11.12.02.16Z"/>
      <path class="st2" d="M80.91,5.54c-1.34-.01-2.73,0-4.06,0-2.04,0-4.14.02-6.15-.03.06-.21.15-.4.25-.6.18-.37.39-.78.39-1.39v-.27l-.26-.08c-.72-.23-1.82-.35-2.74-.29l-.3.02-.05.29c-.04.29-.06.62-.09.97-.03.46-.06.97-.15,1.38h-10.79l-.04.33c-.03.24-.07.48-.12.72-.02.11-.04.23-.06.34l-.07.43h.44c1.34.01,2.72,0,4.05,0,2.07,0,4.2-.02,6.23.03-.04.23-.08.46-.12.69-.07.42-.14.84-.23,1.25h-7.29l-.05.31c-.27,1.66-.57,3.31-.87,4.91-.27,1.47-.55,2.99-.8,4.52l-.07.43h4.99c-2.34,2.15-5.39,3.87-9.3,5.24l-.29.1.04.3c.04.29.14.53.23.74.06.13.11.26.15.39l.1.35.36-.09c4.36-1.1,7.72-3.31,10.67-5.39-.07.4-.14.8-.21,1.2-.26,1.48-.54,3.01-.83,4.49l-.09.44h2.99l.06-.3c.35-1.85.74-3.92,1.1-6.02,1.75,2.4,4.34,4.21,8.07,5.67l.17.07.16-.09c.23-.13.36-.35.47-.55.04-.07.08-.14.12-.2.03-.04.08-.1.14-.15.16-.17.46-.48.25-.83l-.07-.12-.13-.04c-2.99-1.01-5.39-2.8-6.96-5.19h5.34l.06-.3c.43-2.31.86-4.68,1.27-6.97.15-.82.29-1.64.44-2.46l.08-.43h-.44c-.92-.02-1.87-.01-2.8,0-1.34,0-2.73.02-4.04-.03.01-.09.03-.17.04-.26.09-.59.19-1.16.32-1.68h10.62l.1-.42c.07-.31.15-.63.16-1.01l.02-.38h-.39ZM73.32,14.98c-.04.24-.09.48-.13.72-.12.64-.25,1.3-.35,1.97h-4.31c.04-.24.08-.49.13-.72.11-.66.23-1.33.37-1.97h4.3ZM69.34,13.21c.1-.71.23-1.42.38-2.1h4.29c-.07.42-.15.84-.23,1.25-.05.28-.1.57-.15.85h-4.3ZM66.01,14.98c-.08.5-.17,1-.26,1.48-.07.39-.15.8-.22,1.21h-4.27c.03-.19.07-.39.1-.57.12-.71.24-1.44.4-2.12h4.26ZM66.71,11.1c-.11.73-.25,1.43-.38,2.1h-4.26c.09-.65.21-1.34.38-2.1h4.26Z"/>
      <path class="st7" d="M136.46,12.76s-.02,0-.03,0c-.84,0-1.49.91-1.97,1.58-.12.17-.24.34-.33.44-.45.51-1,1.13-1.54,1.5-.08-.43,0-.93.07-1.41.04-.24.08-.47.09-.69l.02-.22-.19-.12c-.38-.24-.92-.26-1.37-.2.51-.55,1.02-1.08,1.55-1.59.36-.1,1.11-.35,1.11-1.05,0-.61-.62-.98-1.12-1.28-.2-.12-.46-.28-.52-.37l-.28-.4-.32.38c-2.23,2.62-4.81,5.23-7.9,7.97,0-.05.02-.1.02-.15.24-1.49.46-2.89.75-4.07l.11-.45h-.47c-.57-.02-1.17-.02-1.75,0-.78,0-1.58.02-2.32-.02.13-.82.28-1.67.48-2.63h4.62l.07-.29c.08-.33.16-.69.19-1.09l.03-.39h-.4c-.4-.02-.83-.02-1.24-.01-.49,0-.98.01-1.44,0,.1-.47.16-.95.21-1.42.07-.64.14-1.25.32-1.79.03-.1.09-.2.14-.31.15-.29.34-.65.17-1.1l-.07-.18-.19-.05c-.84-.21-1.93-.28-2.63-.28h-.22s-.11.17-.11.17c-.22.34-.15.69-.1.95.02.09.04.18.04.26.04.83-.17,1.7-.38,2.55-.1.42-.2.82-.27,1.21h-3.84l-.05.31c-.03.23-.08.46-.12.68-.02.12-.04.23-.06.35l-.07.41.43.02c.31.01.64,0,.95,0,.34,0,.68-.01,1,0-1.03,7.29-2.85,12.4-5.71,16.05l-.27.35.4.2c.15.07.28.18.42.3.13.11.27.22.44.32l.26.15.21-.21c2.89-2.87,4.9-6.93,6.32-12.74.21,0,.42,0,.62,0,.33,0,.68-.01.99,0-.17.89-.33,1.83-.49,2.82-.35,2.12-.7,4.31-1.28,6.13l-.02.07c-.15.49-.62,1.96-1.1,2.08-.39.09-.79-.02-1.25-.15-.39-.11-.8-.22-1.25-.22h-.42s.03.4.03.4c.02.25.06.48.1.7.04.19.07.37.09.57l.03.34h.35c.45-.01.88,0,1.29.03.7.03,1.36.07,2.05-.04,1.57-.24,2.42-2.08,2.93-3.44.62-1.65.98-3.71,1.32-5.76.08.14.16.26.24.38.13.19.25.37.33.57l.16.37.36-.19c.56-.29,1.03-.71,1.48-1.12.04-.03.08-.07.12-.1-.21,1.2-.42,2.39-.64,3.55-.31,1.69-.63,3.43-.91,5.18l-.07.43h2.93l.06-.3c.4-1.96.77-4.1,1.13-6.18.22-1.28.45-2.6.68-3.85.03-.17.05-.34.08-.51.04-.32.09-.65.18-.86,0,0,0,0,0-.01.02.26.06.53.1.8.02.14.04.27.05.38.58,5.12,2.12,8.76,4.57,10.8l.11.09h.33l.11-.09c.34-.29.75-.54,1.14-.78l.44-.27-.3-.32c-1.54-1.68-2.51-3.62-3.06-6.1-.03-.14-.07-.28-.11-.41-.05-.17-.13-.44-.12-.52.04-.1.34-.3.5-.4.12-.08.24-.16.34-.24.47-.37.86-.71,1.24-1.03.24-.21.49-.42.76-.64.12-.1.25-.22.37-.32.2-.18.41-.37.54-.45.13-.07.26-.1.4-.14.29-.07.7-.17.84-.67.12-.42-.02-.96-.4-1.46-.34-.45-.77-.72-1.16-.73Z"/>
      <path class="st8" d="M130.6,7.03c.46-.65.88-1.27,1.27-1.86.04-.03.08-.05.13-.08.22-.13.58-.34.56-.82,0-.23-.16-.46-.45-.71-.52-.43-1.43-.84-2.01-.77-.63.07-.83.6-1,1.03-.04.1-.08.21-.13.32-1.45,3.15-4.12,6.36-4.9,7.27l-.32.38.46.2c.37.16.69.35,1.01.56l.22.14.21-.16c1.01-.75,1.88-1.65,2.72-2.51.37-.38.76-.78,1.15-1.16h9.18l.09-.24c.08-.22.12-.46.16-.7.02-.15.05-.3.08-.42l.12-.46h-8.55Z"/>
      <path class="st5" d="M163.71,23.3l-.03.02s-2.45,1.5-8.32,1.5c-.11,0-.21,0-.32,0-2.98-.03-4.62-.61-5.52-1.17l.02-.02c.4-.42.78-.86,1.15-1.33.02.13.04.25.07.38.04.2.07.38.09.58l.02.34h.35c.21,0,.42,0,.62,0,1.42.02,2.65.04,3.5-.63,1.13-.89,1.44-2.44,1.73-3.93.11-.57.23-1.16.39-1.71.36,0,.73,0,1.08,0,.59,0,1.19-.02,1.74.01-.1.51-.18,1.05-.26,1.57-.16,1.1-.32,2.24-.73,3.08-.43.04-.88-.02-1.31-.09-.17-.03-.35-.05-.52-.07l-.46-.05.04.45c.02.21.06.4.09.59.04.21.08.41.09.62l.02.32.36.02c1.28.08,2.61.16,3.4-.33,1.3-.81,1.54-2.47,1.77-4.08.1-.7.2-1.41.39-2.04h2.27l.08-.27c.06-.22.1-.46.14-.69.02-.1.03-.19.05-.29l.08-.42h-.44c-.54-.02-.83-.01-1.05,0-.25,0-.43.01-.83-.02,0-.02,0-.03.01-.05.03-.12.06-.26.07-.42.3-.24.62-.52.95-.82.21-.19.42-.38.65-.58.2-.17.44-.35.66-.51.44-.32.89-.65,1.16-1.05.41-.61.34-1.07.2-1.35-.2-.41-.68-.69-1.31-.75-1-.1-2.19-.06-3.34-.01-.91.03-1.86.07-2.71.03.25-.27.5-.54.74-.81.07-.08.17-.21.3-.38.2-.26.66-.86.84-.96.22-.06.63-.03.99,0,.2.01.41.03.6.03h5.51v-.37c0-.15.03-.28.06-.43.03-.14.07-.31.08-.5l.02-.39h-6.1c.17-.23.36-.49.58-.75.07-.08.18-.19.3-.3.41-.39.92-.87.79-1.4-.16-.71-2-1.03-2.33-1.01h-.23s-.1.22-.1.22c-.65,1.42-1.4,2.8-2.29,4.15v-.25s-.36-.01-.36-.01c-.34-.01-.71,0-1.06,0-.4,0-.81.01-1.18,0,.04-.23.08-.45.11-.67.05-.33.1-.65.17-.95.05-.19.13-.38.23-.58.19-.41.4-.87.29-1.43l-.05-.25-.43-.07c-.74-.12-1.57-.26-2.34-.2l-.23.02-.09.2c-.16.35-.13.74-.09,1.12.02.22.04.45.02.66-.05.59-.21,1.23-.35,1.8-.03.12-.06.23-.08.34h-3.05l-.07.28c-.06.26-.12.52-.16.79-.07-.1-.15-.2-.22-.3-1.03-1.42-2.09-2.88-3.22-4.25l-.27-.32-.3.3c-.12.12-.26.22-.41.33-.2.15-.4.3-.58.5l-.19.21.16.23c1.31,1.92,2.2,3.67,2.82,5.5l.16.48.42-.3c.57-.41,1.15-.89,1.84-1.52l.23-.21c.25,0,.51,0,.77,0,.31,0,.63-.01.92,0-.18.89-.33,1.78-.47,2.65-.28,1.73-.55,3.37-1.1,4.84-.69,1.86-1.62,3.63-2.99,5.67,0-.14,0-.28.02-.42.06-.82.24-1.7.41-2.55.06-.31.13-.63.19-.94.08-.42.16-.84.24-1.24.15-.78.3-1.51.41-2.24l.07-.42h-1.86s.07-.04.1-.06c.4-.23.81-.46,1.14-.81l.15-.17-.08-.21c-.72-1.89-1.55-3.86-2.68-5.49l-.25-.36-.32.29c-.09.08-.21.16-.34.23-.21.12-.45.26-.62.49l-.13.17.08.19c.71,1.74,1.18,3.76,1.64,5.72h-2.23l-.11.17c-.15.22-.18.5-.22.74-.02.13-.03.25-.06.35l-.15.46.5.02c.35.01.72,0,1.08,0,.43,0,.87-.01,1.27,0-.31,1.8-.64,3.6-.96,5.35-.1.52-.19,1.05-.29,1.57-.26.22-.57.42-.89.62-.15.1-.31.2-.47.3-.18.12-.35.26-.52.39-.3.24-.6.48-.9.61-.04.02-.11.03-.18.04-.21.03-.55.09-.74.44l-.07.12.04.14c.19.75.5,1.56,1.32,1.92l.24.11.18-.19c.78-.79,1.71-1.7,2.76-2.53.32.27.68.51,1.08.73,1.51,1.11,3.83,2.42,7.72,2.42,1.2,0,2.55-.12,4.07-.42,3.92-.75,7.14-3.24,9.15-5.2,2.17-2.11,3.41-4.02,3.46-4.1l-.61-.43c-2.98,3.43-7.31,5.62-7.35,5.64ZM157.9,10.25c.14.07.26.16.4.25.15.1.3.2.48.29l.19.1c-.03.16-.06.32-.1.46l-.15.48h5.37s-.03.04-.04.06c-.29.44-.56.86-.88,1.24h-2.07l-.07.29c-.08.34-.14.7-.19,1.05-.06.4-.13.82-.23,1.19-.36,0-.73,0-1.08,0-.57,0-1.16.02-1.7-.01.11-.55.21-1.11.3-1.66.12-.69.25-1.41.39-2.08l.1-.43h-.46c-.46-.02-.94-.02-1.41-.01-.6,0-1.21.02-1.77-.01.04-.23.08-.46.12-.69.12-.69.24-1.4.39-2.08h3.04c-.25.34-.51.69-.78,1.03l-.27.35.4.2ZM154.73,13.18c.13,0,.26,0,.39,0,.21,0,.43-.01.62,0-.38,2.14-.99,4.75-1.64,7.07-.02.06-.03.12-.05.19-.16.59-.38,1.39-.82,1.49-.3.06-.64-.02-1.04-.13-.29-.08-.62-.16-.98-.19,1.67-2.37,2.89-5.28,3.53-8.42Z"/>
      <path class="st4" d="M10.64,16.81c-.45,1.88-1.22,4.31-3.2,5.15-1.79.75-3.9.28-5.78.27-.56,1.8-1.11,3.6-1.67,5.4,4.4.3,11.67.86,13.58-4.2,1.52-4.01,2.25-8.4,3.91-12.35.09-.23.21-.45.32-.68l-5.5.49c-.69,1.9-1.18,3.87-1.67,5.93Z"/>
      <path class="st3" d="M26.81,5.5c.41-1.74.82-3.48,1.23-5.22-1.96-.4-4.48.36-6.37.84-2.97.76-4.93,2.09-6.68,4.53-1.2,1.67-2.03,3.42-2.68,5.22l5.5-.49c1.73-3.23,5.4-4.7,9-4.89Z"/>
      <path class="st4" d="M47.94,7.64l-22.01-.04s-1.9.05-3.39,1.07c-1.47,1.01-2.09,2.75-2.09,2.75l-4.34,16.11,12.67.03,1.43-5.03-7.44-.02.81-2.7,7.2.02,1.24-4.55-7.39-.02s.44-2.64,2.41-2.63c1.97,0,9.66.02,9.66.02l-3.66,14.97h4.86s3.73-14.96,3.73-14.96h4.91s1.43-5.03,1.43-5.03Z"/>
      <path class="st6" d="M174.05,15l1.36,2.3.24-.35s.12-.07-.06-.54l-.67-2.29s-.13-.29.08-.55l.95-1.38s.19-.39-.16-.66c0,0-.42-.22-.74.2l-.95,1.41s-.08.16-.44.19l-2.62.35s-.28.02-.39.24l-.16.25,2.74.24-.74,1.12s-.09.13-.27.15l-1.01.06.09.3,1.02.35s.09,0,.21.14l.88.82.27-.06-.39-.98s-.05-.19.06-.35c.17-.23.73-1.02.73-1.02"/>
    </g>
  </g>
</svg>