<svg width="197" height="32" viewBox="0 0 197 32" fill="none" xmlns="http://www.w3.org/2000/svg">
<path fill-rule="evenodd" clip-rule="evenodd" d="M123.014 6.31597C121.47 6.30312 119.888 6.31597 118.35 6.31597C116.051 6.32881 113.68 6.33524 111.42 6.27743C111.478 5.82781 111.62 5.42958 111.775 5.01207C111.975 4.45326 112.188 3.87518 112.169 3.17506V2.8539L111.846 2.77683C111.239 2.63552 110.07 2.40429 109.017 2.50706L108.649 2.54559L108.636 2.91171C108.636 3.05944 108.629 3.2136 108.623 3.37418C108.597 4.30553 108.565 5.44242 108.332 6.30954H96.0276L95.9308 6.59859C95.8532 6.82982 95.8145 7.08674 95.7822 7.33082C95.7628 7.47213 95.7434 7.60059 95.7176 7.72263L95.6143 8.22363H96.1245C97.7006 8.2429 99.3283 8.23648 100.891 8.22363C103.23 8.21079 105.652 8.20437 107.964 8.26217C107.887 8.65398 107.822 9.05222 107.757 9.44403C107.648 10.1185 107.531 10.8122 107.376 11.4416H96.5444L96.0341 14.2935C95.1105 19.4063 94.161 24.6925 93.2761 29.9402L93.1921 30.4284H96.2666L96.3312 30.0879C96.8027 27.615 97.2484 25.0651 97.6747 22.605C98.2044 19.554 98.7534 16.4003 99.3605 13.3621H102.726C102.7 13.4071 102.674 13.4521 102.655 13.497L102.584 13.664L102.655 13.831C102.816 14.2036 102.991 14.5825 103.152 14.9422C103.449 15.591 103.753 16.259 104.024 16.9462H100.723L100.659 17.2931C100.639 17.4023 100.62 17.5179 100.601 17.6335C100.562 17.884 100.517 18.1281 100.459 18.3401L100.316 18.8603L100.859 18.8732C101.589 18.886 102.345 18.8796 103.075 18.8732C104.076 18.8668 105.103 18.8539 106.059 18.8989C105.923 19.7531 105.768 20.6395 105.581 21.5837H98.9924V22.0012C98.9924 22.1618 98.9601 22.3031 98.9213 22.4637C98.8826 22.6371 98.8374 22.8362 98.8374 23.0739V23.4978H99.2507C100.065 23.5171 100.904 23.5107 101.718 23.4978C102.894 23.485 104.095 23.4786 105.232 23.5299C105.103 24.3521 104.954 25.1678 104.812 25.9579C104.638 26.9021 104.463 27.8784 104.321 28.8804L104.25 29.3621H107.305L107.376 29.0281C107.577 28.0839 107.744 27.1012 107.906 26.1441C108.055 25.2706 108.21 24.3649 108.39 23.5042H114.901L114.972 23.1702C115.005 23.0161 115.03 22.8555 115.056 22.7014C115.088 22.4894 115.121 22.2903 115.172 22.1169L115.321 21.5837H108.713C108.784 21.224 108.843 20.8579 108.901 20.5046C108.991 19.9587 109.088 19.3999 109.204 18.8732H114.85L114.921 18.5392C114.946 18.3979 114.972 18.2566 114.992 18.1152C115.024 17.8904 115.056 17.6785 115.114 17.5115L115.308 16.9527H112.014C112.311 16.6636 112.634 16.3617 112.989 16.0342C113.047 15.9763 113.17 15.88 113.306 15.7708C114.313 14.9551 114.791 14.4862 114.772 14.0109C114.759 13.7347 114.636 13.5291 114.468 13.375C114.727 13.375 114.992 13.375 115.25 13.3686C116.103 13.3621 116.975 13.3493 117.782 13.3878C117.478 15.1799 117.142 17.0619 116.787 19.0466C116.438 21.0057 116.07 23.0354 115.747 24.9623C115.709 25.1935 115.67 25.4697 115.638 25.7652C115.528 26.6452 115.34 28.116 114.914 28.4629C114.423 28.8611 113.551 28.6363 112.712 28.4179C112.24 28.2959 111.801 28.1867 111.381 28.161L110.825 28.1289L110.942 28.6684C110.974 28.8033 110.987 28.9703 111.006 29.1373C111.045 29.542 111.09 29.9531 111.329 30.2678L111.458 30.4348H111.672C112.111 30.4348 112.589 30.4605 113.054 30.4862C113.525 30.5119 114.003 30.5376 114.468 30.5376C115.437 30.5376 116.335 30.4219 116.987 29.9338C118.189 29.0474 118.492 27.2618 118.79 25.534C118.828 25.3027 118.867 25.0715 118.912 24.8403C119.274 22.8298 119.649 20.6909 120.004 18.6291C120.417 16.2333 120.811 13.9723 121.186 11.9362L121.276 11.4416H120.773C119.423 11.4224 118.034 11.4352 116.69 11.4416C114.649 11.4545 112.537 11.4609 110.528 11.4031C110.599 11.0177 110.664 10.6195 110.729 10.2341C110.838 9.55322 110.955 8.8531 111.116 8.21079H123.124L123.201 7.88963C123.246 7.70978 123.272 7.52351 123.304 7.34367C123.337 7.1574 123.363 6.97755 123.401 6.82339L123.543 6.2967H123.001L123.014 6.31597ZM109.101 16.8114C109.107 16.8627 109.12 16.9077 109.133 16.9527H106.956C106.995 16.8884 107.021 16.8178 107.04 16.7407C107.163 16.1498 106.782 15.5974 106.414 15.0578C106.304 14.8973 106.194 14.7431 106.11 14.5954L105.904 14.2357C105.716 13.9145 105.555 13.6383 105.413 13.375H111.497C110.871 14.4412 110.115 15.4111 109.204 16.4902L109.088 16.6315L109.114 16.8114H109.101Z" fill="white"/>
<path fill-rule="evenodd" clip-rule="evenodd" d="M90.3307 6.11043C88.8322 6.09758 87.2885 6.11043 85.7964 6.11043C83.5228 6.12327 81.1781 6.1297 78.9304 6.07189C78.995 5.83423 79.0983 5.62227 79.2081 5.39104C79.4083 4.97353 79.6409 4.49822 79.6409 3.80453V3.50264L79.3502 3.40629C78.5428 3.13652 77.3156 3.00806 76.295 3.07871L75.9592 3.10441L75.9075 3.43841C75.8558 3.76599 75.8365 4.14495 75.8106 4.54319C75.7783 5.06988 75.7396 5.64796 75.6427 6.11043H63.5964L63.5512 6.48297C63.5189 6.75916 63.4672 7.02251 63.422 7.29871C63.3962 7.42717 63.3704 7.56205 63.351 7.69052L63.267 8.17867H63.7644C65.2629 8.19152 66.8002 8.1851 68.2922 8.17867C70.5981 8.16583 72.9751 8.1594 75.2551 8.21721C75.2099 8.48056 75.1647 8.74391 75.1195 9.00083C75.042 9.47614 74.958 9.9643 74.8611 10.4268H66.7226L66.6645 10.78C66.3674 12.6684 66.0251 14.5504 65.6956 16.3682C65.3921 18.0446 65.082 19.7788 64.7978 21.5195L64.7203 22.0077H70.2945C67.6786 24.4613 64.2682 26.4203 59.9083 27.9812L59.5853 28.0968L59.637 28.4372C59.6887 28.7712 59.7985 29.041 59.8954 29.2786C59.96 29.4264 60.0181 29.5677 60.0568 29.7218L60.1666 30.1265L60.5736 30.0237C65.4373 28.7712 69.19 26.2469 72.4842 23.8832C72.4067 24.3393 72.3227 24.7953 72.2452 25.2449C71.9481 26.9278 71.6445 28.6684 71.3215 30.3641L71.2246 30.8651H74.564L74.6286 30.5183C75.0161 28.4115 75.4554 26.0542 75.8558 23.6584C77.8065 26.3882 80.7002 28.4565 84.8663 30.1136L85.0536 30.1907L85.2345 30.0879C85.4928 29.9402 85.6285 29.6897 85.7577 29.4649C85.8029 29.3814 85.8481 29.3043 85.8933 29.2401C85.9256 29.1951 85.9837 29.1309 86.0419 29.0667C86.2227 28.874 86.5586 28.5207 86.3261 28.116L86.2485 27.9812L86.1 27.9298C82.7542 26.78 80.0865 24.7375 78.3361 22.0141H84.2979L84.3625 21.6672C84.8469 19.0273 85.3249 16.336 85.7835 13.7218C85.945 12.7905 86.1129 11.8527 86.2808 10.9213L86.3648 10.4332H85.8675C84.8405 10.4139 83.7747 10.4203 82.7477 10.4332C81.2492 10.446 79.699 10.4525 78.2392 10.4011C78.2522 10.3047 78.2715 10.202 78.2845 10.1056C78.3878 9.43118 78.4911 8.78887 78.6397 8.19152H90.4922L90.602 7.70978C90.6795 7.35651 90.7635 6.9904 90.7828 6.56005L90.8022 6.12327H90.363L90.3307 6.11043ZM81.8628 16.8692C81.8111 17.1454 81.7595 17.4151 81.7142 17.6849C81.5786 18.4107 81.443 19.1622 81.3267 19.933H76.5147C76.5599 19.6568 76.6115 19.3806 76.6568 19.1044C76.7795 18.3529 76.9087 17.5821 77.0701 16.8627H81.8693L81.8628 16.8692ZM77.4189 14.8459C77.5287 14.0366 77.6773 13.2337 77.8452 12.4501H82.6379C82.5539 12.9318 82.47 13.4071 82.386 13.876C82.3279 14.1971 82.2697 14.5247 82.2116 14.8459H77.4125H77.4189ZM73.6985 16.8692C73.6081 17.4408 73.5047 18.0061 73.4014 18.5584C73.3174 19.0081 73.2334 19.4705 73.1559 19.9394H68.3826C68.4214 19.721 68.4537 19.5026 68.4924 19.2843C68.6281 18.4749 68.7637 17.6464 68.9381 16.8692H73.6985ZM74.48 12.4501C74.3509 13.2851 74.2023 14.0815 74.0537 14.8459H69.2998C69.4032 14.1008 69.5388 13.3236 69.7261 12.4501H74.48Z" fill="white"/>
<path d="M152.351 14.3384H152.319C151.382 14.3384 150.652 15.379 150.116 16.1433C149.974 16.3425 149.845 16.5287 149.748 16.6444C149.244 17.2289 148.631 17.929 148.023 18.3529C147.927 17.8583 148.023 17.2995 148.107 16.7535C148.153 16.4773 148.191 16.2204 148.211 15.9699L148.23 15.7194L148.017 15.5845C147.591 15.3148 146.99 15.2826 146.48 15.3533C147.048 14.7303 147.623 14.1265 148.217 13.542C148.624 13.4328 149.457 13.1373 149.457 12.3409C149.457 11.6536 148.766 11.2232 148.211 10.8828C147.985 10.7415 147.701 10.5681 147.623 10.4589L147.307 10.0028L146.951 10.4332C144.465 13.4199 141.577 16.3938 138.135 19.5155L138.16 19.3421C138.425 17.6464 138.671 16.047 139 14.711L139.123 14.2036L138.593 14.1907C137.954 14.1779 137.288 14.1843 136.643 14.1907C135.777 14.1971 134.879 14.21 134.052 14.165C134.195 13.2337 134.369 12.2638 134.589 11.1718H139.749L139.827 10.8443C139.917 10.4653 140.008 10.0542 140.04 9.59818L140.079 9.15499L139.633 9.14214C139.181 9.1293 138.703 9.14214 138.244 9.14214C137.702 9.14856 137.146 9.16141 136.63 9.1293C136.746 8.59618 136.804 8.05021 136.869 7.51067C136.953 6.77843 137.03 6.08474 137.23 5.47454C137.269 5.35892 137.327 5.24331 137.392 5.12127C137.566 4.78726 137.779 4.37618 137.586 3.86233L137.508 3.65679L137.295 3.59899C136.358 3.36133 135.131 3.27783 134.362 3.27783H134.111L133.988 3.47052C133.742 3.86233 133.82 4.26057 133.878 4.54961C133.897 4.6588 133.917 4.75515 133.923 4.84507C133.968 5.78927 133.736 6.78486 133.503 7.74832C133.387 8.22364 133.284 8.6861 133.206 9.1293H128.917L128.866 9.48899C128.827 9.75234 128.782 10.0157 128.73 10.2662C128.704 10.4011 128.685 10.5295 128.659 10.6644L128.575 11.1333L129.053 11.1526C129.395 11.1654 129.764 11.159 130.119 11.1526C130.493 11.1462 130.881 11.1397 131.23 11.1526C130.074 19.4577 128.045 25.277 124.855 29.4456L124.551 29.8439L124.997 30.0751C125.158 30.1586 125.307 30.2806 125.462 30.4155C125.61 30.5376 125.765 30.666 125.953 30.7816L126.237 30.9551L126.476 30.7174C129.699 27.4416 131.947 22.8234 133.536 16.1947C133.768 16.1947 134.001 16.1947 134.233 16.1883C134.608 16.1819 134.989 16.1755 135.338 16.1883C135.144 17.1967 134.976 18.2758 134.795 19.4063C134.408 21.815 134.014 24.3136 133.368 26.3882L133.342 26.4653C133.174 27.0177 132.651 28.7006 132.115 28.829C131.682 28.9382 131.236 28.8097 130.726 28.662C130.287 28.5336 129.835 28.4051 129.337 28.4051H128.872L128.905 28.8547C128.924 29.1437 128.976 29.4007 129.014 29.6512C129.053 29.8696 129.092 30.0751 129.111 30.2999L129.15 30.6917H129.544C130.048 30.6725 130.526 30.6981 130.984 30.7238C131.759 30.7624 132.496 30.8009 133.271 30.6789C135.021 30.4027 135.977 28.3087 136.546 26.7543C137.237 24.8788 137.644 22.5279 138.012 20.1899C138.096 20.3441 138.193 20.4854 138.283 20.6267C138.425 20.8451 138.554 21.0506 138.658 21.2754L138.839 21.6929L139.246 21.4745C139.866 21.1405 140.395 20.6652 140.906 20.2028C140.951 20.1642 140.99 20.1257 141.035 20.0871C140.802 21.4488 140.557 22.8105 140.324 24.1337C139.975 26.0542 139.62 28.0454 139.304 30.043L139.226 30.5311H142.501L142.566 30.1907C143.011 27.9619 143.425 25.5147 143.825 23.151C144.071 21.6993 144.329 20.1899 144.581 18.7704C144.613 18.5841 144.639 18.385 144.671 18.1923C144.723 17.8262 144.775 17.4472 144.871 17.2096V17.1967C144.897 17.4858 144.943 17.8005 144.988 18.1024C145.007 18.2566 145.033 18.4107 145.046 18.5392C145.692 24.3778 147.41 28.5207 150.155 30.8395L150.271 30.9422H150.639L150.756 30.8395C151.137 30.5119 151.589 30.2228 152.028 29.9466L152.519 29.6319L152.19 29.2658C150.472 27.3517 149.38 25.1357 148.773 22.3095C148.74 22.1554 148.695 21.9948 148.65 21.8407C148.598 21.6544 148.501 21.3332 148.521 21.2433C148.56 21.1341 148.902 20.9029 149.083 20.7808C149.218 20.6909 149.348 20.601 149.457 20.5111C149.981 20.0871 150.42 19.7018 150.84 19.3356C151.111 19.098 151.389 18.8603 151.686 18.6034C151.821 18.4878 151.964 18.3593 152.093 18.2309C152.312 18.0253 152.545 17.8069 152.7 17.7234C152.842 17.6464 152.991 17.6078 153.152 17.5629C153.481 17.4794 153.927 17.3637 154.095 16.8049C154.231 16.3296 154.069 15.713 153.649 15.1478C153.268 14.6275 152.797 14.3256 152.358 14.3128L152.351 14.3384Z" fill="white"/>
<path d="M145.808 7.80613C146.325 7.06105 146.796 6.36735 147.229 5.6865C147.274 5.65439 147.326 5.62227 147.378 5.59015C147.617 5.44242 148.023 5.19834 148.004 4.6588C147.991 4.39545 147.83 4.13211 147.5 3.84949C146.925 3.36133 145.898 2.89244 145.259 2.96952C144.561 3.05302 144.329 3.65679 144.142 4.13853C144.096 4.26057 144.051 4.38261 143.993 4.49822C142.372 8.08233 139.394 11.7435 138.522 12.7776L138.16 13.208L138.677 13.4328C139.084 13.6126 139.446 13.8374 139.808 14.0687L140.059 14.2293L140.298 14.0494C141.422 13.1951 142.391 12.1739 143.328 11.1911C143.741 10.7543 144.174 10.3047 144.607 9.87438H154.857L154.961 9.59818C155.051 9.34768 155.096 9.07149 155.141 8.80814C155.167 8.63472 155.193 8.47414 155.232 8.32641L155.368 7.79971H145.814L145.808 7.80613Z" fill="white"/>
<path d="M182.786 26.3497L182.748 26.369C182.748 26.369 180.015 28.0775 173.466 28.0775C173.35 28.0775 173.227 28.0775 173.104 28.0775C169.778 28.0454 167.943 27.3838 166.942 26.7415L166.962 26.7222C167.407 26.2469 167.834 25.7395 168.247 25.2C168.266 25.3477 168.292 25.489 168.324 25.6303C168.37 25.8551 168.408 26.0606 168.421 26.2983L168.447 26.6901H168.841C169.08 26.6901 169.313 26.6901 169.539 26.6965C171.128 26.7222 172.497 26.7351 173.447 25.9771C174.713 24.9687 175.055 23.2024 175.384 21.4938C175.513 20.8387 175.643 20.1706 175.824 19.5476C176.224 19.5476 176.637 19.5476 177.038 19.5412C177.69 19.5348 178.362 19.5219 178.982 19.554C178.866 20.1385 178.782 20.7487 178.698 21.3461C178.517 22.605 178.336 23.9025 177.878 24.8531C177.4 24.9045 176.896 24.8274 176.411 24.7503C176.218 24.7182 176.017 24.6861 175.824 24.6668L175.307 24.609L175.358 25.1293C175.384 25.367 175.423 25.5853 175.462 25.7973C175.507 26.035 175.546 26.2598 175.565 26.5038L175.591 26.8764L175.991 26.9021C177.425 26.992 178.905 27.0819 179.783 26.5295C181.236 25.611 181.501 23.7098 181.759 21.8792C181.869 21.0827 181.986 20.267 182.192 19.554H184.731L184.815 19.2457C184.886 18.9888 184.931 18.719 184.976 18.4557C184.995 18.3465 185.015 18.2373 185.034 18.1281L185.125 17.6464L184.627 17.6335C184.027 17.6207 183.704 17.6335 183.452 17.6335C183.174 17.6399 182.967 17.6464 182.522 17.6142L182.535 17.5564C182.567 17.4151 182.599 17.261 182.618 17.0747C182.954 16.8049 183.31 16.4774 183.678 16.1369C183.91 15.9185 184.149 15.7002 184.401 15.4753C184.627 15.2762 184.886 15.0771 185.144 14.8908C185.635 14.5247 186.139 14.1458 186.436 13.6961C186.894 12.996 186.81 12.4757 186.655 12.1546C186.429 11.6793 185.893 11.371 185.196 11.2939C184.078 11.1783 182.748 11.2297 181.462 11.281C180.442 11.3196 179.389 11.3581 178.439 11.3196C178.724 11.0113 178.995 10.7094 179.26 10.4011C179.344 10.3047 179.454 10.157 179.596 9.97073C179.815 9.67526 180.332 8.98799 180.526 8.87879C180.771 8.80814 181.23 8.84025 181.637 8.86595C181.863 8.87879 182.095 8.89806 182.302 8.89806H188.458V8.48056C188.458 8.30714 188.49 8.1594 188.529 7.98598C188.567 7.8254 188.606 7.63913 188.613 7.42074L188.632 6.98397H181.818C182.011 6.7142 182.218 6.42516 182.463 6.1297C182.541 6.03335 182.67 5.91131 182.806 5.78285C183.258 5.34608 183.826 4.80011 183.691 4.18349C183.516 3.36775 181.456 3.00806 181.088 3.02733L180.829 3.04017L180.726 3.27783C180.003 4.89646 179.156 6.4637 178.168 8.01167V7.72263L177.761 7.70978C177.38 7.69694 176.973 7.70336 176.586 7.70978C176.14 7.71621 175.681 7.72263 175.262 7.70336C175.307 7.44644 175.346 7.18951 175.384 6.94543C175.442 6.56647 175.494 6.20677 175.578 5.86635C175.63 5.64796 175.727 5.436 175.83 5.20477C176.037 4.7423 176.276 4.20918 176.153 3.57972L176.095 3.2971L175.617 3.22002C174.797 3.07871 173.866 2.92456 173.007 2.98879L172.755 3.00806L172.652 3.23929C172.478 3.64395 172.51 4.08714 172.549 4.51749C172.568 4.76799 172.588 5.02492 172.568 5.269C172.51 5.937 172.329 6.67566 172.174 7.3244C172.142 7.45928 172.11 7.58775 172.084 7.71621H168.68L168.602 8.03736C168.531 8.32641 168.473 8.63471 168.421 8.94302C168.337 8.82741 168.26 8.71822 168.176 8.6026C167.033 6.98397 165.844 5.31396 164.578 3.75956L164.281 3.39345L163.952 3.73387C163.822 3.86876 163.661 3.98437 163.5 4.11284C163.28 4.27984 163.047 4.45326 162.854 4.68449L162.647 4.92857L162.821 5.19192C164.281 7.37578 165.282 9.36695 165.973 11.4609L166.154 12.0133L166.626 11.6729C167.259 11.2104 167.918 10.658 168.68 9.94503L168.938 9.70095C169.222 9.70738 169.513 9.70095 169.797 9.70095C170.146 9.69453 170.501 9.68811 170.824 9.70095C170.617 10.7158 170.456 11.7307 170.301 12.7134C169.984 14.6917 169.687 16.5544 169.08 18.2309C168.312 20.3505 167.272 22.3674 165.747 24.6989C165.747 24.5448 165.747 24.3842 165.767 24.2172C165.831 23.2859 166.031 22.2839 166.225 21.314C166.296 20.9607 166.367 20.601 166.432 20.2477C166.516 19.7724 166.613 19.2971 166.697 18.8346C166.865 17.9482 167.026 17.1132 167.155 16.2782L167.233 15.7965H165.153C165.192 15.7772 165.231 15.7515 165.269 15.7323C165.715 15.4753 166.174 15.2056 166.535 14.8073L166.703 14.6211L166.613 14.3834C165.805 12.2317 164.882 9.98999 163.622 8.12729L163.345 7.72263L162.983 8.05663C162.879 8.15298 162.744 8.23006 162.602 8.31998C162.369 8.46129 162.104 8.62187 161.904 8.87879L161.756 9.06506L161.846 9.28345C162.634 11.2618 163.17 13.5677 163.68 15.8029H161.187L161.064 15.9956C160.897 16.2461 160.858 16.5608 160.825 16.837C160.806 16.9848 160.787 17.1261 160.754 17.2353L160.593 17.762L161.148 17.7812C161.542 17.7941 161.956 17.7812 162.356 17.7812C162.834 17.7748 163.325 17.762 163.771 17.7877C163.422 19.8366 163.054 21.892 162.692 23.8832C162.582 24.4806 162.479 25.0779 162.369 25.6753C162.079 25.9322 161.736 26.1506 161.381 26.3818C161.213 26.491 161.039 26.6066 160.858 26.7287C160.664 26.87 160.47 27.0241 160.283 27.1783C159.953 27.448 159.611 27.7242 159.269 27.8784C159.23 27.8977 159.146 27.9105 159.069 27.9234C158.836 27.9619 158.455 28.0261 158.242 28.4244L158.164 28.5657L158.203 28.7198C158.416 29.5677 158.765 30.4926 159.682 30.9037L159.953 31.0257L160.16 30.8138C161.032 29.9081 162.072 28.874 163.248 27.9362C163.609 28.2445 164.01 28.5207 164.449 28.7648C166.128 30.0366 168.725 31.5267 173.072 31.5267C174.409 31.5267 175.92 31.3854 177.613 31.0514C181.986 30.1971 185.583 27.3581 187.831 25.1293C190.253 22.727 191.635 20.556 191.694 20.4597L191.015 19.9651C187.689 23.8704 182.851 26.3625 182.806 26.3882L182.786 26.3497ZM176.295 11.4802C176.444 11.5572 176.592 11.66 176.741 11.7628C176.909 11.8784 177.077 11.994 177.277 12.0968L177.49 12.2124C177.458 12.3987 177.425 12.5785 177.38 12.7327L177.212 13.2786H183.206L183.168 13.3429C182.845 13.8439 182.541 14.3256 182.192 14.7495H179.88L179.802 15.0771C179.712 15.4625 179.647 15.8736 179.589 16.2718C179.518 16.7343 179.441 17.2096 179.331 17.6271C178.93 17.6271 178.523 17.6271 178.123 17.6335C177.484 17.6399 176.831 17.6528 176.23 17.6207C176.353 16.9976 176.463 16.3553 176.573 15.7323C176.708 14.9422 176.844 14.1265 177.012 13.3621L177.122 12.8676L176.612 12.8547C176.101 12.8419 175.559 12.8483 175.036 12.8547C174.37 12.8611 173.692 12.874 173.059 12.8354C173.104 12.5721 173.149 12.3087 173.195 12.0518C173.33 11.2618 173.466 10.4525 173.627 9.68168H177.025C176.747 10.0735 176.457 10.4653 176.159 10.8571L175.856 11.2553L176.301 11.4866L176.295 11.4802ZM172.755 14.8266C172.898 14.8266 173.046 14.8266 173.188 14.8202C173.427 14.8202 173.666 14.8073 173.886 14.8202C173.459 17.261 172.781 20.2349 172.051 22.8812C172.032 22.9519 172.013 23.0225 171.993 23.0932C171.812 23.7612 171.567 24.6797 171.076 24.7889C170.747 24.8595 170.359 24.7632 169.913 24.6411C169.584 24.5576 169.216 24.4613 168.822 24.4292C170.682 21.725 172.051 18.4171 172.762 14.833L172.755 14.8266Z" fill="white"/>
<path d="M11.8719 18.9567C11.368 21.102 10.509 23.8704 8.30642 24.821C6.30409 25.6753 3.95298 25.1421 1.86022 25.1293C1.24015 27.1783 0.620075 29.2337 0 31.2762C4.91539 31.6166 13.0345 32.2525 15.1595 26.491C16.8518 21.9242 17.6721 16.927 19.5259 12.4179C19.6292 12.1546 19.7584 11.8977 19.8812 11.6472L13.745 12.1995C12.9764 14.3641 12.4338 16.6058 11.8783 18.9503L11.8719 18.9567Z" fill="white"/>
<path d="M29.9251 6.07188C30.3772 4.08713 30.8423 2.10881 31.3009 0.130488C29.1112 -0.331977 26.3015 0.541568 24.1958 1.08753C20.8823 1.94823 18.6862 3.47051 16.7356 6.25172C15.3985 8.15297 14.4684 10.1441 13.745 12.1995L19.8812 11.6472C21.8124 7.97313 25.9075 6.28384 29.9315 6.07188H29.9251Z" fill="white"/>
<path d="M53.5138 8.50625L28.9304 8.46129C28.9304 8.46129 26.8053 8.5191 25.1453 9.67526C23.4983 10.825 22.8071 12.8097 22.8071 12.8097L17.9628 31.167L32.1083 31.1991L33.7037 25.4697L25.3908 25.4504L26.2951 22.3738L34.3302 22.393L35.7124 17.2096L27.4641 17.1903C27.4641 17.1903 27.955 14.1779 30.1511 14.1907C32.3537 14.1971 40.9379 14.2164 40.9379 14.2164L36.8492 31.2762L42.2684 31.2891L46.4281 14.2357H51.9184L53.5138 8.50625Z" fill="white"/>
<path d="M194.322 16.8949L195.84 19.5155L196.105 19.1173C196.105 19.1173 196.234 19.0338 196.041 18.5006L195.291 15.8928C195.291 15.8928 195.149 15.5588 195.382 15.2634L196.441 13.6897C196.441 13.6897 196.654 13.2465 196.26 12.9446C196.26 12.9446 195.795 12.7006 195.433 13.1694L194.381 14.7752C194.381 14.7752 194.297 14.9551 193.896 14.9936L190.977 15.3983C190.977 15.3983 190.667 15.424 190.544 15.668L190.363 15.9571L193.418 16.2333L192.591 17.5115C192.591 17.5115 192.488 17.6592 192.288 17.6785L191.157 17.7427L191.261 18.0896L192.404 18.4942C192.404 18.4942 192.501 18.5071 192.643 18.6548L193.625 19.5926L193.922 19.5219L193.489 18.3979C193.489 18.3979 193.431 18.1859 193.554 18.0061C193.741 17.7363 194.368 16.8435 194.368 16.8435" fill="white"/>
</svg>
