<?xml version="1.0" encoding="UTF-8"?>
<svg id="_圖層_1" data-name="圖層_1" xmlns="http://www.w3.org/2000/svg" version="1.1" viewBox="0 0 196.5 31.53">
  <!-- Generator: Adobe Illustrator 30.6.0, SVG Export Plug-In . SVG Version: 2.1.4 Build 109)  -->
  <defs>
    <style>
      .st0 {
        fill-rule: evenodd;
      }

      .st0, .st1 {
        fill: #fff;
      }
    </style>
  </defs>
  <path class="st0" d="M123.01,6.32c-1.54-.01-3.13,0-4.66,0-2.3.01-4.67.02-6.93-.04.06-.45.2-.85.36-1.27.2-.56.41-1.14.39-1.84v-.32l-.32-.08c-.61-.14-1.78-.37-2.83-.27l-.37.04v.37c-.01.15-.02.3-.03.46-.03.93-.06,2.07-.29,2.94h-12.3l-.1.29c-.08.23-.12.49-.15.73-.02.14-.04.27-.06.39l-.1.5h.51c1.58.02,3.2.01,4.77,0,2.34-.01,4.76-.02,7.07.04-.08.39-.14.79-.21,1.18-.11.67-.23,1.37-.38,2h-10.83l-.51,2.85c-.92,5.11-1.87,10.4-2.76,15.65l-.08.49h3.07l.06-.34c.47-2.47.92-5.02,1.34-7.48.53-3.05,1.08-6.2,1.69-9.24h3.37s-.05.09-.07.13l-.07.17.07.17c.16.37.34.75.5,1.11.3.65.6,1.32.87,2h-3.3l-.06.35c-.02.11-.04.22-.06.34-.04.25-.08.49-.14.71l-.14.52h.54c.73.03,1.49.02,2.22.01,1,0,2.03-.02,2.98.03-.14.85-.29,1.74-.48,2.68h-6.59v.42c0,.16-.03.3-.07.46-.04.17-.08.37-.08.61v.42h.41c.81.02,1.65.01,2.47,0,1.18-.01,2.38-.02,3.51.03-.13.82-.28,1.64-.42,2.43-.17.94-.35,1.92-.49,2.92l-.07.48h3.06l.07-.33c.2-.94.37-1.93.53-2.88.15-.87.3-1.78.48-2.64h6.51l.07-.33c.03-.15.06-.31.08-.47.03-.21.07-.41.12-.58l.15-.53h-6.61c.07-.36.13-.73.19-1.08.09-.55.19-1.1.3-1.63h5.65l.07-.33c.03-.14.05-.28.07-.42.03-.22.06-.44.12-.6l.19-.56h-3.29c.3-.29.62-.59.97-.92.06-.06.18-.15.32-.26,1.01-.82,1.49-1.28,1.47-1.76-.01-.28-.14-.48-.3-.64.26,0,.52,0,.78,0,.85,0,1.72-.02,2.53.02-.3,1.79-.64,3.67-.99,5.66-.35,1.96-.72,3.99-1.04,5.92-.04.23-.08.51-.11.8-.11.88-.3,2.35-.72,2.7-.49.4-1.36.17-2.2-.05-.47-.12-.91-.23-1.33-.26l-.56-.03.12.54c.03.13.04.3.06.47.04.4.08.82.32,1.13l.13.17h.21c.44,0,.92.03,1.38.05.47.03.95.05,1.41.05.97,0,1.87-.12,2.52-.6,1.2-.89,1.5-2.67,1.8-4.4.04-.23.08-.46.12-.69.36-2.01.74-4.15,1.09-6.21.41-2.4.81-4.66,1.18-6.69l.09-.49h-.5c-1.35-.02-2.74,0-4.08,0-2.04.01-4.15.02-6.16-.04.07-.39.14-.78.2-1.17.11-.68.23-1.38.39-2.02h12.01l.08-.32c.05-.18.07-.37.1-.55.03-.19.06-.37.1-.52l.14-.53h-.54v.02ZM109.1,16.81c0,.05.02.1.03.14h-2.18c.04-.06.07-.13.08-.21.12-.59-.26-1.14-.63-1.68-.11-.16-.22-.31-.3-.46l-.21-.36c-.19-.32-.35-.6-.49-.86h6.08c-.63,1.07-1.38,2.04-2.29,3.12l-.12.14.03.18h-.01Z"/>
  <path class="st0" d="M90.33,6.11c-1.5-.01-3.04,0-4.53,0-2.27.01-4.62.02-6.87-.04.06-.24.17-.45.28-.68.2-.42.43-.89.43-1.59v-.3l-.29-.1c-.81-.27-2.03-.4-3.06-.33l-.34.03-.05.33c-.05.33-.07.71-.1,1.1-.03.53-.07,1.1-.17,1.57h-12.05l-.05.37c-.03.28-.08.54-.13.82-.03.13-.05.26-.07.39l-.08.49h.5c1.5.01,3.04,0,4.53,0,2.31-.01,4.68-.02,6.96.04-.05.26-.09.53-.14.78-.08.48-.16.96-.26,1.43h-8.14l-.06.35c-.3,1.89-.64,3.77-.97,5.59-.3,1.68-.61,3.41-.9,5.15l-.08.49h5.57c-2.62,2.45-6.03,4.41-10.39,5.97l-.32.12.05.34c.05.33.16.6.26.84.06.15.12.29.16.44l.11.4.41-.1c4.86-1.25,8.62-3.78,11.91-6.14-.08.46-.16.91-.24,1.36-.3,1.68-.6,3.42-.92,5.12l-.1.5h3.34l.06-.35c.39-2.11.83-4.46,1.23-6.86,1.95,2.73,4.84,4.8,9.01,6.46l.19.08.18-.1c.26-.15.39-.4.52-.62.05-.08.09-.16.14-.22.03-.05.09-.11.15-.17.18-.19.52-.55.28-.95l-.08-.13-.15-.05c-3.35-1.15-6.01-3.19-7.76-5.92h5.96l.06-.35c.48-2.64.96-5.33,1.42-7.95.16-.93.33-1.87.5-2.8l.08-.49h-.5c-1.03-.02-2.09-.01-3.12,0-1.5.01-3.05.02-4.51-.03.01-.1.03-.2.05-.3.1-.67.21-1.32.36-1.91h11.85l.11-.48c.08-.35.16-.72.18-1.15l.02-.44h-.47ZM81.86,16.87c-.05.28-.1.55-.15.82-.14.73-.27,1.48-.39,2.25h-4.81c.05-.28.1-.55.14-.83.12-.75.25-1.52.41-2.24h4.8,0ZM77.42,14.85c.11-.81.26-1.61.43-2.4h4.79c-.08.48-.17.96-.25,1.43-.06.32-.12.65-.17.97h-4.8,0ZM73.7,16.87c-.09.57-.19,1.14-.3,1.69-.08.45-.17.91-.25,1.38h-4.77c.04-.22.07-.44.11-.66.14-.81.27-1.64.45-2.42h4.76ZM74.48,12.45c-.13.84-.28,1.63-.43,2.4h-4.75c.1-.75.24-1.52.43-2.4h4.75Z"/>
  <path class="st1" d="M152.35,14.34h-.03c-.94,0-1.67,1.04-2.2,1.8-.14.2-.27.39-.37.5-.5.58-1.12,1.28-1.73,1.71-.1-.49,0-1.05.08-1.6.05-.28.08-.53.1-.78l.02-.25-.21-.13c-.43-.27-1.03-.3-1.54-.23.57-.62,1.14-1.23,1.74-1.81.41-.11,1.24-.4,1.24-1.2,0-.69-.69-1.12-1.25-1.46-.23-.14-.51-.31-.59-.42l-.32-.46-.36.43c-2.49,2.99-5.37,5.96-8.82,9.08l.03-.17c.26-1.7.51-3.3.84-4.63l.12-.51h-.53c-.64-.03-1.31-.02-1.95-.01-.87,0-1.76.02-2.59-.03.14-.93.32-1.9.54-2.99h5.16l.08-.33c.09-.38.18-.79.21-1.25l.04-.44h-.45c-.45-.03-.93-.01-1.39-.01-.54,0-1.1.02-1.61-.01.12-.53.17-1.08.24-1.62.08-.73.16-1.43.36-2.04.04-.12.1-.23.16-.35.17-.33.39-.75.19-1.26l-.08-.21-.21-.06c-.94-.24-2.16-.32-2.93-.32h-.25l-.12.19c-.25.39-.17.79-.11,1.08.02.11.04.21.04.3.04.94-.19,1.94-.42,2.9-.12.48-.22.94-.3,1.38h-4.29l-.05.36c-.04.26-.08.53-.14.78-.03.13-.04.26-.07.4l-.08.47.48.02c.34.01.71,0,1.07,0,.37,0,.76-.01,1.11,0-1.16,8.31-3.18,14.12-6.37,18.29l-.3.4.45.23c.16.08.31.21.46.34.15.12.3.25.49.37l.28.17.24-.24c3.22-3.28,5.47-7.89,7.06-14.52.23,0,.47,0,.7,0,.38,0,.76-.01,1.1,0-.19,1.01-.36,2.09-.54,3.22-.39,2.41-.78,4.91-1.43,6.98l-.03.08c-.17.55-.69,2.24-1.23,2.36-.43.11-.88-.02-1.39-.17-.44-.13-.89-.26-1.39-.26h-.47l.03.45c.02.29.07.55.11.8.04.22.08.42.1.65l.04.39h.39c.5-.02.98,0,1.44.03.78.04,1.51.08,2.29-.04,1.75-.28,2.71-2.37,3.28-3.92.69-1.88,1.1-4.23,1.47-6.56.08.15.18.3.27.44.14.22.27.42.38.65l.18.42.41-.22c.62-.33,1.15-.81,1.66-1.27.04-.04.08-.08.13-.12-.23,1.36-.48,2.72-.71,4.05-.35,1.92-.7,3.91-1.02,5.91l-.08.49h3.28l.06-.34c.45-2.23.86-4.68,1.26-7.04.25-1.45.5-2.96.76-4.38.03-.19.06-.39.09-.58.05-.37.1-.75.2-.98h0c.03.28.07.59.12.89.02.15.04.31.06.44.65,5.84,2.36,9.98,5.11,12.3l.12.1h.37l.12-.1c.38-.33.83-.62,1.27-.89l.49-.31-.33-.37c-1.72-1.91-2.81-4.13-3.42-6.96-.03-.15-.08-.31-.12-.47-.05-.19-.15-.51-.13-.6.04-.11.38-.34.56-.46.14-.09.27-.18.37-.27.52-.42.96-.81,1.38-1.18.27-.24.55-.48.85-.73.13-.12.28-.24.41-.37.22-.21.45-.42.61-.51.14-.08.29-.12.45-.16.33-.08.78-.2.94-.76.14-.48-.03-1.09-.45-1.66-.38-.52-.85-.82-1.29-.84v.03Z"/>
  <path class="st1" d="M145.81,7.81c.52-.75.99-1.44,1.42-2.12.04-.03.1-.06.15-.1.24-.15.64-.39.63-.93-.01-.26-.17-.53-.5-.81-.57-.49-1.6-.96-2.24-.88-.7.08-.93.69-1.12,1.17-.05.12-.09.24-.15.36-1.62,3.58-4.6,7.25-5.47,8.28l-.36.43.52.22c.41.18.77.4,1.13.64l.25.16.24-.18c1.12-.85,2.09-1.88,3.03-2.86.41-.44.85-.89,1.28-1.32h10.25l.1-.28c.09-.25.13-.53.18-.79.03-.17.05-.33.09-.48l.14-.53h-9.56Z"/>
  <path class="st1" d="M182.79,26.35l-.04.02s-2.73,1.71-9.28,1.71h-.36c-3.33-.03-5.16-.69-6.16-1.34l.02-.02c.44-.48.87-.98,1.28-1.52.02.15.05.29.08.43.05.22.08.43.1.67l.03.39h.39c.24,0,.47,0,.7,0,1.59.03,2.96.04,3.91-.72,1.27-1.01,1.61-2.77,1.94-4.48.13-.66.26-1.32.44-1.95.4,0,.81,0,1.21,0,.65,0,1.32-.02,1.94.01-.12.58-.2,1.19-.28,1.79-.18,1.26-.36,2.56-.82,3.51-.48.05-.98-.03-1.47-.1-.19-.03-.39-.06-.59-.08l-.52-.06.05.52c.03.24.07.46.1.67.04.24.08.46.1.71l.03.37.4.03c1.43.09,2.91.18,3.79-.37,1.45-.92,1.72-2.82,1.98-4.65.11-.8.23-1.61.43-2.33h2.54l.08-.31c.07-.26.12-.53.16-.79.02-.11.04-.22.06-.33l.09-.48h-.5c-.6-.03-.92-.01-1.18-.01-.28,0-.49.01-.93-.02v-.06c.04-.14.08-.3.1-.48.34-.27.69-.6,1.06-.94.23-.22.47-.44.72-.66.23-.2.49-.4.74-.58.49-.37,1-.75,1.29-1.19.46-.7.37-1.22.22-1.54-.23-.48-.76-.78-1.46-.86-1.12-.12-2.45-.06-3.73-.01-1.02.04-2.07.08-3.02.04.29-.31.56-.61.82-.92.08-.1.19-.24.34-.43.22-.3.74-.98.93-1.09.24-.07.7-.04,1.11-.01.23.01.46.03.67.03h6.16v-.42c0-.17.03-.32.07-.49.04-.16.08-.35.08-.57l.02-.44h-6.81c.19-.27.4-.56.65-.85.08-.1.21-.22.34-.35.45-.44,1.02-.98.88-1.6-.17-.82-2.24-1.18-2.6-1.16h-.26s-.1.25-.1.25c-.72,1.62-1.57,3.19-2.56,4.73v-.29h-.41c-.38-.03-.79-.02-1.18-.01-.45,0-.9.01-1.32,0,.05-.26.08-.51.12-.76.06-.38.11-.74.19-1.08.05-.22.15-.43.25-.66.21-.46.45-1,.32-1.63l-.06-.28-.48-.08c-.82-.14-1.75-.3-2.61-.23l-.25.02-.1.23c-.17.4-.14.85-.1,1.28.02.25.04.51.02.75-.06.67-.24,1.41-.39,2.06-.03.13-.06.26-.09.39h-3.4l-.08.32c-.07.29-.13.6-.18.91-.08-.12-.16-.22-.25-.34-1.14-1.62-2.33-3.29-3.6-4.84l-.3-.37-.33.34c-.13.13-.29.25-.45.38-.22.17-.45.34-.65.57l-.21.24.17.26c1.46,2.18,2.46,4.18,3.15,6.27l.18.55.47-.34c.63-.46,1.29-1.01,2.05-1.73l.26-.24c.28,0,.57,0,.86,0,.35,0,.7-.01,1.03,0-.21,1.01-.37,2.03-.52,3.01-.32,1.98-.61,3.84-1.22,5.52-.77,2.12-1.81,4.14-3.33,6.47,0-.15,0-.31.02-.48.06-.93.26-1.93.46-2.9.07-.35.14-.71.21-1.07.08-.48.18-.95.26-1.41.17-.89.33-1.72.46-2.56l.08-.48h-2.08s.08-.05.12-.06c.45-.26.9-.53,1.27-.93l.17-.19-.09-.24c-.81-2.15-1.73-4.39-2.99-6.26l-.28-.4-.36.33c-.1.1-.24.17-.38.26-.23.14-.5.3-.7.56l-.15.19.09.22c.79,1.98,1.32,4.28,1.83,6.52h-2.49l-.12.19c-.17.25-.21.57-.24.84-.02.15-.04.29-.07.4l-.16.53.55.02c.39.01.81,0,1.21,0,.48,0,.97-.02,1.41,0-.35,2.05-.72,4.1-1.08,6.1-.11.6-.21,1.19-.32,1.79-.29.26-.63.48-.99.71-.17.11-.34.22-.52.35-.19.14-.39.3-.57.45-.33.27-.67.55-1.01.7-.04.02-.12.03-.2.05-.23.04-.61.1-.83.5l-.08.14.04.15c.21.85.56,1.77,1.48,2.18l.27.12.21-.21c.87-.91,1.91-1.94,3.09-2.88.36.31.76.58,1.2.83,1.68,1.27,4.28,2.76,8.62,2.76,1.34,0,2.85-.14,4.54-.48,4.37-.85,7.97-3.69,10.22-5.92,2.42-2.4,3.8-4.57,3.86-4.67l-.68-.49c-3.33,3.91-8.16,6.4-8.21,6.42l-.02-.04ZM176.29,11.48c.15.08.3.18.45.28.17.12.34.23.54.33l.21.12c-.03.19-.07.37-.11.52l-.17.55h5.99l-.04.06c-.32.5-.63.98-.98,1.41h-2.31l-.08.33c-.09.39-.15.8-.21,1.19-.07.46-.15.94-.26,1.36-.4,0-.81,0-1.21,0-.64,0-1.29.02-1.89-.01.12-.62.23-1.27.34-1.89.13-.79.27-1.61.44-2.37l.11-.49h-.51c-.51-.03-1.05-.02-1.58-.01-.67,0-1.34.02-1.98-.02.04-.26.09-.53.14-.78.13-.79.27-1.6.43-2.37h3.4c-.28.39-.57.78-.87,1.18l-.3.4.44.23h0ZM172.76,14.83c.14,0,.29,0,.43,0,.24,0,.48-.01.7,0-.43,2.44-1.1,5.41-1.84,8.06-.02.07-.04.14-.06.21-.18.67-.43,1.59-.92,1.7-.33.07-.72-.03-1.16-.15-.33-.08-.7-.18-1.09-.21,1.86-2.7,3.23-6.01,3.94-9.6h0Z"/>
  <path class="st1" d="M11.87,18.96c-.5,2.15-1.36,4.91-3.57,5.86-2,.85-4.35.32-6.45.31-.62,2.05-1.24,4.1-1.86,6.15,4.92.34,13.03.98,15.16-4.79,1.69-4.57,2.51-9.56,4.37-14.07.1-.26.23-.52.36-.77l-6.14.55c-.77,2.16-1.31,4.41-1.87,6.75h0Z"/>
  <path class="st1" d="M29.93,6.07c.45-1.98.92-3.96,1.38-5.94-2.19-.46-5,.41-7.11.96-3.31.86-5.51,2.38-7.46,5.16-1.34,1.9-2.27,3.89-2.99,5.95l6.14-.55c1.93-3.67,6.03-5.36,10.05-5.58h0Z"/>
  <path class="st1" d="M53.51,8.51l-24.58-.04s-2.13.06-3.79,1.21c-1.65,1.15-2.34,3.13-2.34,3.13l-4.84,18.36,14.15.03,1.6-5.73-8.31-.02.9-3.08,8.04.02,1.38-5.18-8.25-.02s.49-3.01,2.69-3c2.2,0,10.79.03,10.79.03l-4.09,17.06h5.42s4.16-17.04,4.16-17.04h5.49l1.6-5.73Z"/>
  <path class="st1" d="M194.32,16.89l1.52,2.62.26-.4s.13-.08-.06-.62l-.75-2.61s-.14-.33.09-.63l1.06-1.57s.21-.44-.18-.75c0,0-.46-.24-.83.22l-1.05,1.61s-.08.18-.49.22l-2.92.4s-.31.03-.43.27l-.18.29,3.05.28-.83,1.28s-.1.15-.3.17l-1.13.06.1.35,1.14.4s.1.01.24.16l.98.94.3-.07-.43-1.12s-.06-.21.07-.39c.19-.27.81-1.16.81-1.16"/>
</svg>