<svg width="226" height="128" viewBox="0 0 226 128" fill="none" xmlns="http://www.w3.org/2000/svg">
<path d="M198.723 0.53676L155.451 16.2863C155.451 16.2863 155.496 16.3073 155.518 16.3178C155.935 16.6496 155.679 17.1146 154.956 17.4148C154.299 17.6912 153.8 17.5383 153.695 17.1488C153.671 17.0831 153.68 17.0055 153.688 16.928L127.539 26.4454C127.922 26.734 127.747 27.1693 127.053 27.4963C126.365 27.8398 125.671 27.8134 125.457 27.4267C125.433 27.361 125.409 27.2953 125.417 27.2178L109.666 32.9508C109.606 33.1402 109.515 33.2474 109.273 33.2426C109.218 33.244 109.178 33.1843 109.16 33.135L69.4304 47.5954L69.4424 47.6282C69.4472 47.7938 69.4238 47.9325 69.3676 48.0831C69.3219 48.2113 69.2315 48.3186 69.1352 48.4094L68.2226 48.035L68.1409 48.0647L68.1083 48.0766L5.8207 70.7474C1.21768 72.4228 -1.1414 77.5208 0.543798 82.1508L14.9696 121.785C16.6488 126.399 21.7389 128.804 26.3419 127.129L115.513 94.6733L115.465 94.3376L114.812 94.5753L114.645 94.1155L116.437 93.556L116.102 94.3103L115.546 94.3079L115.465 94.3376L115.546 94.6615L130.301 89.2908C130.301 89.2908 130.346 89.1074 130.391 88.9792C130.613 89.0287 130.735 89.0588 130.873 89.0829L202.546 62.996C202.546 62.996 202.575 62.8737 202.608 62.8618C202.657 62.844 202.745 62.8307 202.816 62.8233C202.822 62.8398 202.795 62.8681 202.791 62.9068L219.244 56.9183C223.831 55.2489 226.206 50.145 224.521 45.5149L210.095 5.88035C208.41 1.2503 203.326 -1.1386 198.723 0.53676ZM217.017 38.001L217.009 37.725L216.98 37.2894L216.975 37.1238L217.232 37.0675L217.268 37.9283L217.334 38.1089C217.334 38.1089 217.236 38.1446 217.203 38.1565C217.203 38.1565 217.105 38.1921 217.05 38.1935L217.045 38.0279L217.017 38.001ZM181.44 10.8992C181.538 10.8636 181.664 10.8548 181.845 10.8447C181.777 10.9624 181.758 11.0623 181.709 11.0802C181.611 11.1158 181.479 11.1081 181.396 11.0826C181.38 11.0886 181.413 10.9275 181.462 10.9097L181.44 10.8992ZM177.028 13.1L176.946 12.721L177.535 12.5623L178.212 12.3903C178.241 12.8259 177.857 13.2445 177.221 13.4762C177.188 13.4881 177.139 13.5059 177.106 13.5178L177.006 13.0895L177.028 13.1ZM174.858 10.6919C174.939 10.6621 175.078 10.6862 175.265 10.6925C175.142 10.8116 175.09 10.9234 175.002 10.9367C174.904 10.9724 174.793 10.92 174.677 10.9064C174.724 10.8334 174.76 10.7275 174.841 10.6978L174.858 10.6919ZM168.483 13.0864C168.468 12.9432 168.447 12.7835 168.448 12.6343C168.49 12.1914 168.855 11.8727 169.542 11.6784C169.76 11.6176 169.962 11.5627 170.186 11.5183C170.787 11.3925 171.257 11.4633 171.464 11.7784C171.619 12.0009 171.837 12.1445 172.144 12.2747C172.355 12.3467 172.508 12.514 172.584 12.6723C172.806 13.1306 172.378 13.7325 171.683 14.0044C170.725 14.3714 169.859 14.2775 169.593 13.7982C169.5 13.6459 169.418 13.4713 169.314 13.2861C168.555 13.4878 168.539 13.4937 168.489 13.1028L168.483 13.0864ZM166.348 13.2128C166.474 13.204 166.617 13.1893 166.743 13.1806C166.712 13.2477 166.693 13.3476 166.611 13.3773C166.546 13.4011 166.414 13.3934 166.326 13.4067C166.335 13.3291 166.333 13.2739 166.348 13.2128ZM156.472 19.2431C157.121 18.6907 158.5 18.4676 159.214 18.8029C159.899 19.1113 159.888 20.0451 159.204 20.5542C158.521 21.0633 157.354 21.2091 156.634 20.8574C155.899 20.5116 155.839 19.7896 156.472 19.2431ZM154.773 20.0101L154.9 20.0014C155.447 19.9321 155.847 20.0655 155.987 20.3492L155.346 20.6197L154.922 20.7741L154.958 20.8726L154.928 20.7906L154.699 20.8737C154.711 20.9066 154.75 20.9111 154.766 20.9052C154.766 20.9052 154.75 20.9111 154.695 20.9125L151.176 21.3007L154.767 19.9937L154.773 20.0101ZM144.963 23.9342C144.963 23.9342 145.028 23.9104 145.049 23.8657L145.27 23.7109L145.532 23.6711C145.811 23.6253 146.043 23.6525 146.199 23.7258C146.288 23.7677 146.345 23.8215 146.391 23.8977L145.756 24.1846L145.626 24.2321L145.867 24.3862C145.867 24.3862 145.732 24.4725 145.672 24.5126C145.64 24.5245 145.591 24.5423 145.564 24.5706L145.386 24.4868L145.413 24.3093L145.218 24.3806L144.638 24.1082C144.734 24.0174 144.859 23.9534 144.945 23.885L144.963 23.9342ZM142.074 25.3945C142.074 25.3945 142.45 25.2579 142.523 25.3057C142.656 25.3686 142.672 25.5118 142.804 25.7238C142.403 25.7396 142.114 25.8078 142.025 25.7659C141.93 25.7075 141.99 25.5182 142.058 25.4004L142.074 25.3945ZM135.546 27.213C135.881 27.0166 136.386 26.9816 136.419 27.1741C136.467 27.3054 136.312 27.4917 136.287 27.5752C135.832 27.7967 135.392 27.8079 135.272 27.6287C135.157 27.466 135.329 27.329 135.546 27.213ZM132.905 24.5296C132.905 24.5296 133.048 24.5149 133.152 24.4957C133.104 24.5687 133.084 24.6135 133.018 24.6372C132.986 24.6491 132.898 24.6624 132.892 24.646C132.88 24.6131 132.901 24.5684 132.899 24.5132L132.905 24.5296ZM133.499 28.7015C133.499 28.7015 133.577 28.7105 133.654 28.7196C133.611 28.7539 133.574 28.8045 133.515 28.8447C133.498 28.8506 133.437 28.8356 133.382 28.837C133.419 28.7864 133.44 28.7417 133.499 28.7015ZM129.482 31.2236C129.482 31.2236 129.587 31.2596 129.648 31.2746C129.599 31.2924 129.552 31.3654 129.536 31.3713C129.481 31.3728 129.43 31.3354 129.369 31.3204C129.402 31.3085 129.445 31.2742 129.488 31.24L129.482 31.2236ZM115.25 30.9742C115.25 30.9742 115.403 30.9372 115.545 30.9225C115.406 31.0475 115.359 31.1206 115.31 31.1384C115.261 31.1562 115.194 31.1248 115.117 31.1157C115.154 31.065 115.191 31.0144 115.234 30.9801L115.25 30.9742ZM115.659 33.5213C115.659 33.5213 115.688 33.5481 115.671 33.5541C115.671 33.5541 115.639 33.566 115.612 33.5943C115.606 33.5779 115.594 33.545 115.572 33.5345C115.588 33.5286 115.621 33.5167 115.637 33.5108L115.659 33.5213ZM110.233 33.5439C111.755 33.5106 111.761 33.527 111.922 34.5282C110.116 34.7953 110.071 34.7744 110.233 33.5439ZM95.334 40.603C95.5135 40.5377 95.7453 40.5649 96.1076 40.5446C95.9062 40.8038 95.8397 40.9768 95.6618 41.0973C95.4512 41.2297 95.1765 41.2368 95.0677 41.0904C94.953 40.9276 95.0521 40.7428 95.3237 40.6254L95.334 40.603ZM91.2484 39.8402C91.2484 39.8402 91.2321 39.8462 91.2158 39.8521L91.2484 39.8402C91.3137 39.8165 91.3507 39.7658 91.3997 39.748L91.5976 39.9362L91.651 39.8796L92.0837 39.4433C92.3007 39.5316 92.3278 39.7077 92.3577 39.7898L92.4772 40.1181L92.0174 40.3785C92.0174 40.3785 91.9847 40.3904 91.9684 40.3963C91.9684 40.3963 91.9031 40.4201 91.8764 40.4484C91.8764 40.4484 91.8112 40.4721 91.7785 40.484L91.5208 40.1315L91.5029 40.0823L91.3234 40.1476L91.4464 40.0285L91.2631 39.7791L91.2484 39.8402ZM91.0279 40.1994L91.022 40.183C91.022 40.183 91.0339 40.2158 91.0399 40.2322C91.0399 40.2322 91.0741 40.2755 91.0964 40.286L91.0311 40.3098C91.0192 40.2769 91.0072 40.2441 90.9953 40.2113L91.0279 40.1994ZM83.7736 47.1349C84.0603 47.1607 84.3127 47.1432 84.3307 47.1924C84.3665 47.291 84.2941 47.4475 84.1814 47.5443C84.1384 47.5785 83.7984 47.6093 83.7419 47.5555C83.6793 47.4853 83.7518 47.3288 83.7736 47.1349ZM77.2797 46.5607C77.2797 46.5607 77.3733 46.5638 77.4119 46.5683C77.4179 46.5847 77.3972 46.6295 77.3868 46.6518C77.3542 46.6637 77.2769 46.6546 77.2546 46.6442C77.2487 46.6277 77.2694 46.583 77.2797 46.5607ZM75.9259 46.1423C75.9259 46.1423 76.0195 46.1454 76.0581 46.15C76.0314 46.1783 76.033 46.2335 76.0004 46.2454C75.9677 46.2572 75.9231 46.2363 75.8682 46.2377C75.8949 46.2094 75.8992 46.1706 75.9259 46.1423ZM76.9332 49.7733C77.5972 49.1598 78.0873 49.1859 78.5421 49.3179C79.074 49.459 79.1478 49.9156 78.7178 50.258C78.2716 50.6063 77.6824 50.765 77.324 50.5422C77.0325 50.3508 77.0273 49.9808 76.9392 49.7897L76.9332 49.7733ZM75.8399 49.6135C75.9378 49.5778 76.0624 49.5139 76.1011 49.5184C76.162 49.5334 76.1532 49.611 76.1771 49.6766C76.0792 49.7123 75.9546 49.7762 75.916 49.7717C75.8551 49.7567 75.8638 49.6791 75.8236 49.6194L75.8399 49.6135ZM71.0544 50.6859C71.3422 50.5625 71.7611 50.596 71.8698 50.7424C71.9726 50.8723 71.6438 51.2895 71.3396 51.4188C71.0132 51.5376 70.8348 51.4538 70.7097 51.3133C70.5564 51.146 70.7236 50.8435 71.044 50.7082L71.0544 50.6859ZM61.5377 51.8626L61.6193 51.8329C61.6193 51.8329 61.5867 51.8448 61.5763 51.8672C61.5437 51.879 61.5393 51.9178 61.529 51.9402C61.529 51.9402 61.523 51.9238 61.5214 51.8686L61.5377 51.8626ZM61.6357 51.827L61.6846 51.8092L62.2518 51.0821C62.2518 51.0821 62.3127 51.0971 62.335 51.1076C62.4183 51.1331 62.4851 51.1645 62.5461 51.1795C62.5684 51.19 62.613 51.211 62.6293 51.205L62.8566 51.271L62.9164 51.4352C63.0081 51.941 62.6435 52.2597 62.4002 52.404L61.9152 51.9855L61.8248 52.0928C61.8248 52.0928 61.697 52.0464 61.6138 52.0209C61.5915 52.0104 61.5469 51.9894 61.5246 51.979L61.652 51.821L61.6357 51.827ZM61.5376 53.1828C61.8059 52.955 62.0747 52.9316 62.4016 53.0171C62.1854 53.3375 61.89 53.3892 61.581 53.3529C61.5201 53.3379 61.4946 53.2171 61.5213 53.1888L61.5376 53.1828ZM61.9842 54.359C62.1327 54.3607 62.3569 54.3163 62.4297 54.3642C62.4863 54.418 62.3915 54.564 62.3577 54.7251C62.1483 54.7083 61.9285 54.714 61.8943 54.6706C61.8644 54.5886 61.9325 54.4708 61.9619 54.3485L61.9842 54.359ZM58.1536 56.1251C58.1536 56.1251 58.4267 56.0629 58.455 56.0898C58.5338 56.1541 58.5148 56.254 58.5685 56.4017C58.3161 56.4192 58.1676 56.4175 58.0251 56.4322C58.0605 56.3263 58.0796 56.2264 58.1596 56.1415L58.1536 56.1251ZM51.3238 56.1008C51.3238 56.1008 51.4293 56.1368 51.4799 56.1742C51.5973 56.243 51.7104 56.3506 51.7909 56.47L51.8088 56.5193L51.8267 56.5685C51.8538 56.7446 51.8423 56.9161 51.7536 57.0786C51.6545 57.2634 51.4945 57.4332 51.2735 57.588L50.8913 57.2995L50.5536 57.0319L50.5209 57.0438C50.5209 57.0438 50.5149 57.0274 50.509 57.011C50.509 57.011 50.509 57.011 50.503 56.9946C50.497 56.9781 50.491 56.9617 50.491 56.9617L51.3564 56.0889L51.3238 56.1008ZM39.9772 59.208L40.1062 59.1052L40.2531 59.0518L40.4725 58.8418C40.4725 58.8418 40.4888 58.8358 40.5111 58.8463C40.6389 58.8928 40.7341 58.9511 40.8233 58.993L40.8961 59.0409L41.6559 59.4523L40.7092 59.7969L40.3163 60.0886L39.8018 59.7924C39.8018 59.7924 39.6783 59.7072 39.6234 59.7086L40.0664 59.2499L39.9713 59.1915L39.9772 59.208ZM35.1012 63.028L35.2469 63.1237L35.2708 63.1894C35.454 63.4388 35.3625 63.6952 35.2515 63.8472C35.1301 64.0216 34.9314 64.1868 34.6762 64.2983C34.6109 64.3221 34.5457 64.3458 34.4804 64.3696L34.3988 64.3993L34.1326 63.5665C34.1326 63.5665 33.9933 63.6916 33.9949 63.7468L33.3198 62.6537L35.0729 63.0011L35.1012 63.028ZM27.459 64.3778C27.9363 63.9624 28.809 63.7191 29.6985 63.6743L29.1732 63.1961L30.3229 62.6475C30.3229 62.6475 30.3349 62.6803 30.3408 62.6967C30.5093 63.0073 30.3987 63.3636 30.0385 63.6435C30.6325 63.6504 31.2015 63.7408 31.6474 63.9504C32.6955 64.4428 32.6789 65.0067 31.5671 65.9134C30.5249 66.7575 28.5581 67.1945 27.6825 66.7694C26.9853 66.4282 26.8305 64.8855 27.453 64.3614L27.459 64.3778ZM7.1874 73.6898C7.82631 73.1598 9.0836 72.9067 9.58176 73.2088C10.0293 73.4736 9.89892 74.2834 9.33404 74.7121C8.78549 75.1349 7.76706 75.2824 7.24224 75.0086C6.7011 74.7407 6.67149 74.1007 7.17108 73.6958L7.1874 73.6898ZM8.00367 86.4455C7.21768 86.2667 6.61767 86.2434 6.31423 86.0191C6.15653 85.8906 6.39888 85.3376 6.67476 85.1814C7.31849 84.8169 7.98103 84.9105 8.21801 85.3076C8.35064 85.5197 8.13015 85.8788 7.98734 86.4514L8.00367 86.4455ZM57.9104 111.679C57.9104 111.679 57.8364 111.78 57.783 111.836C57.7667 111.842 57.746 111.887 57.7297 111.893L56.4851 111.825C56.5368 111.714 56.6272 111.606 56.7072 111.521C56.7398 111.51 56.7605 111.465 56.7709 111.443L57.9474 111.628L57.9104 111.679ZM65.5579 109.379C65.554 109.622 65.4239 109.874 65.2208 110.078C65.1142 110.191 64.9792 110.277 64.822 110.353C64.7567 110.377 64.6751 110.406 64.6098 110.43L64.5445 110.454L64.4277 110.032L64.3229 109.642L64.274 109.66C64.274 109.66 64.274 109.66 64.2576 109.666C64.2576 109.666 64.2576 109.666 64.2783 109.621C64.2604 109.572 64.2484 109.539 64.2484 109.539L65.197 108.692C65.4364 108.791 65.5793 108.98 65.6363 109.238L65.6602 109.304L65.5579 109.379ZM95.3071 100.001L94.5454 100.092L94.4659 100.382L94.3233 100.396C94.2134 100.399 94.1095 100.418 94.0383 100.426L94.0422 100.182L94.1564 100.141L94.0466 100.144L94.0581 99.9722L94.0779 99.5187C94.2694 99.4862 94.4445 99.4596 94.6094 99.4554L95.0919 99.4099L95.2349 99.5996C95.3094 99.7027 95.3409 99.84 95.3114 99.9622L95.3071 100.001ZM108.338 92.4318C108.218 92.4569 108.065 92.494 107.998 92.4626C107.948 92.4252 107.999 92.3134 108.025 92.2299C108.134 92.2271 108.298 92.1677 108.348 92.2051C108.399 92.2424 108.341 92.3378 108.332 92.4154L108.338 92.4318ZM116.953 92.1785C116.953 92.1785 116.824 92.2812 116.748 92.3273C116.715 92.3392 116.672 92.3734 116.646 92.4017L115.666 91.9959C115.666 91.9959 115.709 91.9617 115.72 91.9393C115.805 91.8708 115.908 91.7964 115.983 91.7503C116.016 91.7384 116.065 91.7206 116.086 91.6759L116.969 92.1725L116.953 92.1785ZM126.03 84.9699C126.078 85.1012 126.038 85.2459 125.96 85.386L125.1 85.3085L124.708 85.4511L124.871 85.3917L124.953 85.362L125.083 85.3145L125.377 85.2075L126 84.8878L125.371 85.1911L126.006 84.9042C126.006 84.9042 126.03 84.9699 126.036 84.9863L126.03 84.9699ZM130.054 86.6291C130.074 86.938 129.915 87.163 129.749 87.3163L128.753 86.9165C128.753 86.9165 128.753 86.9165 128.737 86.9224C128.704 86.9343 128.7 86.9731 128.7 86.9731C128.7 86.9731 128.694 86.9567 128.692 86.9015L130.016 86.4754C130.034 86.5247 130.052 86.5739 130.031 86.6187L130.054 86.6291ZM139.914 81.7758C139.816 81.8114 139.723 81.8083 139.619 81.8275C139.634 81.7664 139.648 81.7053 139.679 81.6382C139.773 81.6413 139.866 81.6444 139.95 81.6699C139.966 81.664 139.947 81.7639 139.931 81.7698L139.914 81.7758ZM150.804 81.4754C150.071 81.7979 149.41 81.7596 149.211 81.3669C149.065 81.0668 149.366 80.6228 149.523 79.989C150.395 80.0993 151.059 80.0437 151.405 80.2337C151.886 80.4866 151.494 81.1871 150.804 81.4754ZM167.307 71.9172C166.948 72.0479 166.474 72.0158 166.376 71.8471C166.277 71.6784 166.452 71.4474 166.805 71.3003C167.136 71.1427 167.5 71.1776 167.643 71.3673C167.764 71.5465 167.601 71.8103 167.313 71.9336L167.307 71.9172ZM167.944 70.5697C167.944 70.5697 167.845 70.5501 167.839 70.5337C167.839 70.5337 167.892 70.4771 167.919 70.4488C167.957 70.4533 168.002 70.4743 168.024 70.4848C167.998 70.5131 167.971 70.5414 167.944 70.5697ZM171.905 68.7561C171.604 68.7914 171.256 68.7505 171.056 68.6562C170.967 68.6143 171.195 68.3268 171.345 68.0302C171.756 68.1412 172.097 68.1656 172.239 68.3001C172.317 68.3644 171.999 68.7592 171.911 68.7725L171.905 68.7561ZM176.926 66.5011C176.811 66.3383 176.953 66.1192 177.257 65.9899C177.529 65.8725 177.777 65.8938 177.892 66.0566C178.006 66.2194 177.87 66.4548 177.55 66.5901C177.272 66.6911 177.063 66.6743 176.948 66.5115L176.926 66.5011ZM178.485 67.7372L178.403 67.7669L177.731 67.1378C177.731 67.1378 177.812 67.1081 177.839 67.0798L177.921 67.0501L178.587 67.6628C178.555 67.6747 178.506 67.6925 178.463 67.7267L178.485 67.7372ZM189.834 61.1334C189.834 61.1334 189.619 61.1003 189.519 61.0807C189.62 60.9511 189.698 60.811 189.827 60.7083C189.87 60.674 190.075 60.7296 190.356 60.739C190.125 60.9161 190.002 61.0353 189.834 61.1334ZM192.351 61.6491C192.277 61.7504 191.599 61.8672 191.459 61.7879C191.236 61.6831 191.261 61.3953 191.123 61.0176C191.776 60.9844 192.29 60.8718 192.436 60.9675C192.604 61.0737 192.515 61.4405 192.351 61.6491ZM199.527 61.1011C199.405 61.4246 198.774 61.8771 198.319 61.8943C197.824 61.9069 197.349 61.8197 196.949 61.6863C196.626 61.5619 196.881 61.2461 197.001 61.0165C197.147 60.7587 197.227 60.4694 197.629 60.3045C198.215 60.0354 198.747 59.9721 199.175 60.1324C199.67 60.3241 199.681 60.7105 199.527 61.1011ZM202.19 60.5967C202.036 60.5785 201.844 60.611 201.749 60.5527C201.705 60.5318 201.816 60.3798 201.894 60.2397C202.087 60.2624 202.268 60.2522 202.308 60.3119C202.349 60.3717 202.226 60.4908 202.19 60.5967ZM203.533 60.0707C203.225 60.2388 203.014 60.1669 202.771 59.7533C203.345 59.4514 203.656 59.3937 203.799 59.5834C203.914 59.7461 203.793 59.9205 203.527 60.0543L203.533 60.0707ZM210.547 57.9084C210.376 57.8962 210.25 57.905 210.222 57.8781C210.193 57.8512 210.251 57.7558 210.266 57.6947C210.359 57.6978 210.479 57.6726 210.54 57.6876C210.585 57.7086 210.56 57.7921 210.563 57.9025L210.547 57.9084ZM212.067 53.6549C212.377 53.4555 212.657 53.4465 212.908 53.6279C212.545 53.6482 212.342 53.6479 212.067 53.6549ZM215.56 54.466C215.418 54.4807 215.28 54.4566 215.147 54.4489C215.178 54.3819 215.226 54.3088 215.284 54.2135C215.422 54.2376 215.554 54.2452 215.659 54.2812C215.682 54.2917 215.577 54.4601 215.56 54.466ZM218.416 47.7368C218.865 48.9682 218.233 50.3322 217.009 50.7778L180.528 64.0559L180.678 64.1128L180.865 64.1191L180.949 64.3489C181.424 65.552 181.618 65.9834 182.05 66.105C182.066 66.099 182.095 66.1259 182.127 66.114L181.445 67.0319C180.439 66.8587 180.189 66.2243 179.643 64.8242L179.499 64.4302L153.122 74.0308L153.106 74.0367C153.106 74.0367 153.089 74.0427 153.079 74.065L153.046 74.0769L133.241 81.2669C133.4 81.4507 133.441 81.7148 133.612 82.1357C132.821 82.1449 132.35 82.2232 132.023 82.1377C131.796 82.0717 131.699 81.9581 131.674 81.8373L24.1069 120.988C22.8827 121.434 21.5225 120.795 21.0743 119.563L6.64851 79.9289C6.20031 78.6975 6.83147 77.3336 8.05568 76.888L69.6251 54.4786C69.7003 54.2281 69.869 53.9807 70.121 53.7588C70.9526 53.0471 72.3671 52.7182 73.1416 53.0685C73.1862 53.0895 73.2205 53.1328 73.2487 53.1597L77.5743 51.5853C77.411 51.6447 77.1586 51.6622 77.0041 51.6441C76.9046 51.6245 76.8448 51.4603 76.8802 51.3545C76.957 51.1592 77.2138 51.1029 77.4766 51.063C77.7453 51.0396 78.0081 50.9997 78.4031 50.9676C78.1451 51.173 77.9481 51.3935 77.6885 51.5437L94.501 45.4245C94.5794 45.2844 94.7231 45.1205 94.9707 44.9374L95.0566 44.869L95.1546 44.8333C95.1546 44.8333 95.2688 44.7917 95.3178 44.7739C95.7259 44.6254 96.0838 44.6438 96.384 44.7577L113.751 38.4365C113.71 38.3215 113.657 38.229 113.622 38.1305C113.906 37.8967 114.166 37.7465 114.352 37.5484C114.849 37.033 115.456 36.7192 116.29 36.6758C116.504 36.6538 116.718 36.6317 116.915 36.6156C117.064 36.6174 117.294 36.5894 117.35 36.6432C117.469 36.7672 117.599 36.8688 117.734 36.9869L133.845 31.1231C133.874 31.0008 133.92 30.8726 134.025 30.7042C134.293 30.272 134.81 29.712 135.369 29.4712C136.847 28.859 138.351 28.7763 140.001 28.7894C139.948 28.846 139.872 28.8921 139.819 28.9487L162.605 20.6551C162.761 20.5241 162.978 20.408 163.249 20.2906C163.267 20.3399 163.279 20.3727 163.291 20.4056L200.964 6.69374C202.188 6.24817 203.548 6.88731 203.997 8.1187L218.422 47.7533L218.416 47.7368ZM217.654 44.2211C217.654 44.2211 217.577 44.212 217.532 44.1911C217.598 44.1673 217.651 44.1107 217.71 44.0705C217.722 44.1034 217.728 44.1198 217.757 44.1467C217.724 44.1586 217.687 44.2092 217.654 44.2211ZM224.099 52.3807C223.995 52.7535 223.78 53.1291 223.239 53.4191C222.733 53.6033 222.279 53.6756 221.862 53.5482C221.735 53.5017 221.583 53.3896 221.608 53.3061C221.73 52.9826 221.902 52.6412 222.096 52.3104C222.137 52.221 222.421 52.1364 222.59 52.0934C222.863 52.0312 223.132 52.0077 223.401 51.9843C223.789 51.9357 224.175 52.1302 224.099 52.3807ZM211.574 17.4094C210.989 17.5293 210.765 17.3693 210.89 16.9518C211.445 16.7498 211.803 16.7683 211.879 17.1309C211.903 17.1966 211.678 17.3901 211.574 17.4094ZM79.873 72.0198C79.7854 72.0331 79.6755 72.0359 79.5759 72.0164C79.6559 71.9314 79.7256 71.8689 79.8012 71.8228L77.1061 64.418L69.4018 67.2221L74.2841 80.6361C74.3581 80.5348 74.511 80.4978 74.6699 80.4771C74.8673 80.4611 75.0811 80.439 75.3662 80.4096C75.1676 80.5749 75.0075 80.7447 74.8133 80.8712C74.705 80.9292 74.5238 80.9394 74.3917 80.9317L76.9732 88.0245C77.1381 88.0203 77.2762 88.0444 77.3388 88.1146C77.4132 88.2177 77.3305 88.3965 77.1525 88.5171L77.774 90.2246L95.7943 83.6658L93.6071 77.6566L83.2912 81.4113L79.8789 72.0362L79.873 72.0198ZM73.551 76.7938C73.551 76.7938 73.4961 76.7952 73.4575 76.7906C73.4678 76.7683 73.4782 76.7459 73.5048 76.7176C73.5375 76.7057 73.5821 76.7267 73.5984 76.7207C73.5881 76.7431 73.5837 76.7819 73.551 76.7938ZM71.3763 67.6191C71.3763 67.6191 71.6717 67.5674 71.8409 67.5244C71.8294 67.6959 71.8239 67.8838 71.7737 68.0508C71.7737 68.0508 71.462 68.1085 71.1829 68.1543C71.2478 67.9262 71.2652 67.7711 71.3763 67.6191ZM73.3009 74.4304C73.085 74.1929 73.292 73.7457 73.6821 73.5479C74.1702 73.3145 74.6929 73.3288 74.9044 73.6051C75.1159 73.8814 74.9384 74.2063 74.4237 74.468C73.9519 74.6955 73.5064 74.6903 73.2905 74.4528L73.3009 74.4304ZM74.5322 77.2548C74.5322 77.2548 74.5023 77.1727 74.474 77.1458C74.4903 77.1398 74.5067 77.1339 74.523 77.128C74.523 77.128 74.5437 77.0832 74.5377 77.0668C74.5704 77.0549 74.615 77.0759 74.6313 77.07C74.6313 77.07 74.6313 77.07 74.6373 77.0864C74.6373 77.0864 74.6699 77.0745 74.6862 77.0686C74.7248 77.0731 74.7161 77.1506 74.7503 77.194C74.6851 77.2177 74.5871 77.2534 74.5545 77.2653L74.5322 77.2548ZM78.5208 86.0296C78.5208 86.0296 78.5088 85.9967 78.5029 85.9803C78.7091 85.8866 78.899 85.7989 79.0992 85.6889C79.1112 85.7217 79.1231 85.7545 79.1514 85.7814C78.9392 85.8587 78.727 85.9359 78.5148 86.0131L78.5208 86.0296ZM78.2783 82.4177C78.0617 82.5337 77.7751 82.5079 77.656 82.3839C77.5369 82.2599 77.636 82.075 77.8852 81.9471C78.1344 81.8193 78.4092 81.8122 78.5223 81.9198C78.6413 82.0438 78.5112 82.2957 78.2946 82.4117L78.2783 82.4177ZM75.2925 67.6626C75.3665 67.5613 75.4242 67.4659 75.5206 67.3751C75.5532 67.3632 75.7077 67.3813 75.9171 67.3981C75.7452 67.535 75.6488 67.6259 75.5242 67.6898C75.4752 67.7077 75.3697 67.6717 75.2865 67.6462L75.2925 67.6626ZM79.7994 77.8106C79.7994 77.8106 79.504 77.8624 79.4697 77.819C79.4132 77.7653 79.4812 77.6475 79.4824 77.4983C79.6918 77.5151 79.8893 77.499 79.9072 77.5482C79.9311 77.6139 79.8854 77.7421 79.8054 77.827L79.7994 77.8106ZM77.4601 68.0823C77.4601 68.0823 76.8932 68.2514 76.7817 68.199C76.6196 68.1093 76.6355 67.899 76.5116 67.6094C77.0164 67.5744 77.3935 67.4929 77.5169 67.5781C77.6404 67.6634 77.5875 67.9243 77.4661 68.0987L77.4601 68.0823ZM89.7216 84.9092C89.8984 84.9378 90.0959 84.9217 90.0915 84.9605C90.1051 85.0485 90.043 85.1827 89.951 85.2347C89.8531 85.2704 89.6927 85.2358 89.5501 85.2505C89.6078 85.1551 89.6492 85.0657 89.7216 84.9092ZM148.568 41.6618C147.015 41 145.355 40.6557 143.573 40.635C141.791 40.6143 139.97 40.9425 138.093 41.6257C136.215 42.309 134.642 43.2164 133.274 44.3838C131.905 45.5511 130.855 46.8816 130.091 48.387C129.326 49.8924 128.889 51.4834 128.784 53.1764C128.771 53.2927 128.78 53.4195 128.783 53.5299C128.795 53.5628 128.769 53.5911 128.764 53.6298C128.732 55.1663 128.986 56.7285 129.566 58.3211C130.193 60.0451 131.106 61.5353 132.274 62.7649C133.017 63.5358 133.827 64.189 134.729 64.7349C134.945 64.4145 135.39 64.2153 136.12 63.9867C135.965 64.5265 135.694 64.8483 135.227 65.037C135.595 65.2375 135.975 65.4156 136.354 65.5937C136.765 65.76 137.208 65.8591 137.624 65.9866C137.689 65.9628 137.737 65.8898 137.802 65.866C138.584 65.5257 139.556 65.6555 139.938 66.1484C140.013 66.2514 140.032 66.3559 140.058 66.4768C140.483 66.5267 140.897 66.5989 141.343 66.6041C143.141 66.6189 144.963 66.2906 146.84 65.6074C148.717 64.9242 150.29 64.0167 151.642 62.8553C152.994 61.6939 154.044 60.3635 154.809 58.858C155.443 57.6045 155.844 56.2685 156.018 54.8666C155.837 54.8767 155.692 54.8362 155.645 54.7049C155.591 54.5571 155.69 54.3723 155.758 54.0502C155.902 54.0907 156.001 54.1102 156.101 54.1298C156.095 54.1134 156.105 54.091 156.116 54.0686C156.22 52.3757 155.961 50.6478 155.334 48.9239C154.706 47.1999 153.788 45.6933 152.62 44.4638C151.451 43.2342 150.093 42.2967 148.54 41.6349L148.568 41.6618ZM131.905 60.2775C131.501 60.1829 131.198 60.1631 131.052 60.0673C130.973 60.0031 131.091 59.7183 131.232 59.6485C131.557 59.4744 131.905 59.5153 132.015 59.7168C132.073 59.8258 131.974 60.0106 131.894 60.2999L131.905 60.2775ZM131.391 50.74C131.391 50.74 131.501 50.7372 131.529 50.7641C131.535 50.7806 131.498 50.8312 131.494 50.87C131.455 50.8655 131.378 50.8564 131.372 50.84C131.366 50.8235 131.403 50.7729 131.407 50.7341L131.391 50.74ZM132.6 54.3162C132.326 54.5276 131.8 54.6073 131.549 54.4756C131.276 54.3335 131.256 54.0246 131.508 53.8028C131.835 53.5348 132.475 53.4135 132.732 53.5616C132.967 53.6992 132.897 54.1153 132.6 54.3162ZM142.286 44.2086C142.286 44.2086 142.38 44.2118 142.424 44.2327C142.424 44.2327 142.426 44.2879 142.409 44.2939C142.361 44.3117 142.312 44.3295 142.257 44.3309C142.261 44.2921 142.271 44.2698 142.276 44.231L142.286 44.2086ZM138.41 44.0205C138.631 43.8657 138.883 43.8482 139.008 43.9886C139.099 44.0857 139.114 44.229 139.214 44.4529C138.813 44.4686 138.567 44.5026 138.416 44.4456C138.167 44.3692 138.156 44.1872 138.404 44.0041L138.41 44.0205ZM137.578 47.9305C137.699 47.9605 137.783 47.986 137.86 47.9951C137.807 48.0517 137.759 48.1247 137.7 48.1649C137.667 48.1768 137.535 48.1691 137.523 48.1363C137.505 48.087 137.536 48.0199 137.572 47.9141L137.578 47.9305ZM138.504 58.2473C138.435 58.3099 138.248 58.3036 138.111 58.3347C138.14 58.2125 138.17 58.0902 138.198 57.9127C138.423 57.9235 138.627 57.9238 138.639 57.9567C138.669 58.0388 138.607 58.1729 138.504 58.2473ZM149.763 59.114C149.763 59.114 149.737 58.9932 149.785 58.9202C149.801 58.9142 149.981 58.8489 150.009 58.8758C150.076 58.9072 150.083 58.9788 150.142 59.0878C149.944 59.1039 149.791 59.1409 149.741 59.1036L149.763 59.114ZM148.079 54.3348C148.075 55.1359 147.937 55.8741 147.643 56.5389C147.349 57.2038 146.947 57.7774 146.423 58.2659C145.898 58.7544 145.277 59.1293 144.558 59.3907C143.84 59.6521 143.156 59.7524 142.462 59.726C142.421 59.8154 142.308 59.9122 142.151 59.988C141.804 60.1516 141.452 60.1495 141.342 59.948C141.306 59.8494 141.313 59.7167 141.369 59.5661C141.02 59.4701 140.697 59.3458 140.363 59.1886C139.71 58.8683 139.13 58.3915 138.612 57.7806C138.094 57.1697 137.67 56.4127 137.342 55.5096C137.013 54.6066 136.851 53.7546 136.855 52.9535C136.859 52.1525 136.997 51.4143 137.291 50.7494C137.585 50.0846 137.986 49.5109 138.511 49.0224C139.036 48.534 139.657 48.1591 140.375 47.8977C141.094 47.6363 141.811 47.524 142.526 47.561C143.242 47.5979 143.918 47.7795 144.571 48.0997C145.224 48.42 145.804 48.8968 146.322 49.5077C146.84 50.1187 147.264 50.8757 147.592 51.7787C147.921 52.6817 148.083 53.5338 148.079 54.3348ZM147.641 50.2363C147.641 50.2363 147.46 50.2465 147.393 50.215C147.393 50.215 147.412 50.1151 147.445 50.1032C147.526 50.0735 147.63 50.0543 147.783 50.0173C147.725 50.1126 147.706 50.2126 147.641 50.2363ZM148.158 45.5113C148.158 45.5113 148.011 45.5648 147.909 45.6392C147.917 45.5617 147.893 45.496 147.936 45.4617C147.985 45.4439 148.083 45.4083 148.161 45.4173C148.161 45.4173 148.19 45.4994 148.174 45.5054L148.158 45.5113ZM147.131 44.0627C147.078 43.9149 147.214 43.6795 147.298 43.3514C147.745 43.4118 148.069 43.3869 148.247 43.4708C148.498 43.6024 148.294 43.9556 147.941 44.1028C147.577 44.2722 147.236 44.2478 147.142 44.0403L147.131 44.0627ZM150.457 49.6948C150.704 49.5117 151 49.46 151.174 49.5826C151.297 49.6678 151.275 49.8617 151.359 50.0916C150.954 50.1461 150.687 50.2248 150.494 50.2021C150.223 50.1703 150.232 49.8884 150.463 49.7112L150.457 49.6948ZM152.503 53.4871C152.503 53.4871 152.413 53.4452 152.369 53.4242C152.369 53.4242 152.4 53.3571 152.422 53.3676C152.471 53.3498 152.532 53.3648 152.593 53.3798C152.566 53.4081 152.529 53.4588 152.503 53.4871ZM34.1908 63.6755L34.1967 63.6919L34.1549 63.577L34.1908 63.6755ZM170.483 36.6605C170.675 36.4788 170.855 36.4135 171.278 36.4082C170.922 36.6493 170.72 36.7042 170.495 36.6934L173.005 43.5892C173.148 43.9832 173.263 44.3504 173.356 44.7071C173.374 44.7563 173.42 44.8325 173.45 44.9146C173.456 44.931 173.484 44.9579 173.507 44.9684C173.523 44.9624 173.556 44.9505 173.572 44.9446C173.564 44.873 173.557 44.8014 173.565 44.7238C173.907 44.7482 174.066 44.932 173.953 45.1779C173.88 45.3344 173.753 45.4924 173.625 45.6503C173.609 45.6562 173.56 45.674 173.55 45.6964C173.66 46.4559 173.618 47.1032 173.425 47.6384C173.073 48.603 172.356 49.2732 171.262 49.6712C170.169 50.0693 169.221 50.0051 168.316 49.498C167.41 48.9908 166.652 47.8723 166.013 46.1155L165.505 44.7199L165.472 44.7318C165.45 44.7213 165.454 44.6826 165.475 44.6378L163.586 39.4496C163.34 39.4835 163.126 39.5055 162.972 39.4874C162.872 39.4678 162.876 39.2247 162.977 39.095C163.051 38.9937 163.208 38.9179 163.367 38.8973L161.484 33.7254L153.78 36.5296L158.381 49.1719C159.63 52.6034 161.584 54.9232 164.236 56.1148C166.888 57.3064 169.96 57.2666 173.47 55.9893C176.979 54.7119 179.358 52.7675 180.624 50.15C181.889 47.5326 181.895 44.4999 180.646 41.0684L176.044 28.426L168.471 31.1827L170.472 36.6829L170.483 36.6605ZM161.903 35.0791L162.003 35.0986C161.992 35.121 161.949 35.1552 161.939 35.1776C161.917 35.1671 161.862 35.1685 161.856 35.1521C161.856 35.1521 161.876 35.1074 161.903 35.0791ZM157.299 45.0291C157.299 45.0291 157.334 44.9232 157.371 44.8726C157.371 44.8726 157.502 44.8251 157.53 44.852C157.558 44.8789 157.56 44.934 157.59 45.0161C157.464 45.0249 157.392 45.0322 157.315 45.0232L157.299 45.0291ZM160.683 50.9746C160.58 51.049 160.389 51.0815 160.149 51.1319C160.182 50.9708 160.151 50.8335 160.243 50.7815C160.335 50.7294 160.571 50.7178 160.687 50.7314C160.748 50.7465 160.758 50.9285 160.683 50.9746ZM156.312 39.2709C156.133 39.3363 155.89 39.3314 155.838 39.2388C155.802 39.1403 155.876 39.039 156.05 38.9572C156.23 38.8919 156.417 38.8981 156.469 38.9907C156.537 39.0773 156.459 39.2174 156.296 39.2769L156.312 39.2709ZM156.633 38.5778C156.633 38.5778 156.578 38.5792 156.572 38.5628C156.572 38.5628 156.605 38.5509 156.615 38.5285C156.615 38.5285 156.654 38.533 156.676 38.5435C156.676 38.5435 156.649 38.5718 156.633 38.5778ZM162.243 52.8238C162.243 52.8238 162.156 52.8371 162.101 52.8385C162.089 52.8057 162.115 52.7774 162.103 52.7446C162.175 52.7372 162.23 52.7358 162.301 52.7285C162.28 52.7732 162.276 52.812 162.243 52.8238ZM158.235 40.7463C158.317 40.7166 158.417 40.7362 158.575 40.7155C158.491 40.8392 158.466 40.9227 158.39 40.9688C158.321 41.0314 158.128 41.0087 158.104 40.943C158.074 40.8609 158.099 40.7774 158.229 40.7299L158.235 40.7463ZM159.501 44.1719C159.385 44.1583 159.281 44.1775 159.269 44.1447C159.251 44.0954 159.288 44.0447 159.303 43.9836C159.374 43.9763 159.5 43.9675 159.529 43.9944C159.557 44.0213 159.509 44.0943 159.501 44.1719ZM159.118 43.4746C159.118 43.4746 159.077 43.4149 159.088 43.3925C159.217 43.2898 159.359 43.2751 159.536 43.3037C159.431 43.4721 159.272 43.4928 159.112 43.4582L159.118 43.4746ZM156.977 35.8678C156.866 35.8154 156.9 35.6544 156.822 35.4409C157.207 35.4311 157.48 35.3689 157.646 35.4199C157.746 35.4394 157.774 35.6707 157.672 35.7451C157.48 35.9268 157.162 35.9681 156.977 35.8678ZM158.646 37.6591C158.487 37.6797 158.316 37.6675 158.221 37.6092C158.177 37.5882 158.294 37.4527 158.366 37.2961C158.571 37.3517 158.742 37.3639 158.821 37.4281C158.849 37.455 158.701 37.6577 158.652 37.6755L158.646 37.6591ZM162.901 44.4219C163.015 44.3803 163.102 44.3671 163.272 44.3241C163.136 44.4601 163.013 44.4927 162.901 44.4219ZM160.117 35.3015C160.117 35.3015 160.164 35.2285 160.197 35.2166C160.23 35.2047 160.285 35.2033 160.362 35.2124C160.325 35.263 160.304 35.3078 160.272 35.3196C160.223 35.3375 160.178 35.3165 160.117 35.3015ZM160.787 35.4666C161.02 35.3447 161.284 35.36 161.393 35.5064C161.502 35.6528 161.43 35.8093 161.229 35.9193C160.996 36.0413 160.677 36.0274 160.574 35.8974C160.472 35.7675 160.554 35.5886 160.804 35.4607L160.787 35.4666ZM166.485 51.5775C166.485 51.5775 166.375 51.5803 166.33 51.5594C166.351 51.5147 166.372 51.4699 166.421 51.4521C166.47 51.4343 166.53 51.4493 166.624 51.4524C166.571 51.509 166.534 51.5597 166.485 51.5775ZM161.208 36.522C161.146 36.4518 161.23 36.3281 161.371 36.2582C161.518 36.2047 161.634 36.2183 161.696 36.2885C161.749 36.3811 161.675 36.4824 161.517 36.5583C161.387 36.6058 161.271 36.5922 161.208 36.522ZM163.182 40.4708C163.182 40.4708 163.177 40.5095 163.145 40.5214C163.145 40.5214 163.112 40.5333 163.09 40.5228C163.09 40.5228 163.116 40.4945 163.11 40.4781C163.127 40.4722 163.143 40.4662 163.182 40.4708ZM166.298 48.373C166.182 48.3594 166.111 48.3667 166.066 48.3458C166.044 48.3353 166.069 48.2518 166.102 48.2399C166.167 48.2161 166.271 48.1969 166.316 48.2179C166.344 48.2448 166.313 48.3118 166.314 48.367L166.298 48.373ZM166.359 47.8301C166.359 47.8301 166.252 47.7389 166.202 47.7015C166.288 47.6331 166.316 47.66 166.359 47.8301ZM164.075 42.4696C163.912 42.529 163.823 42.4871 163.761 42.4169C163.676 42.3362 163.764 42.1738 163.928 42.1143C164.075 42.0609 164.278 42.0612 164.347 42.1478C164.387 42.2076 164.228 42.4326 164.081 42.486L164.075 42.4696ZM169.896 51.656C169.896 51.656 169.77 51.6648 169.731 51.6603C169.731 51.6603 169.74 51.5827 169.756 51.5768C169.805 51.5589 169.86 51.5575 169.948 51.5442C169.911 51.5949 169.896 51.656 169.88 51.662L169.896 51.656ZM171.42 52.6445C171.42 52.6445 171.365 52.6459 171.327 52.6414C171.343 52.6354 171.364 52.5907 171.374 52.5684C171.391 52.5624 171.429 52.567 171.484 52.5655C171.457 52.5938 171.437 52.6386 171.42 52.6445ZM177.354 45.4832C177.354 45.4832 177.173 45.4933 177.079 45.4902C177.11 45.4231 177.141 45.356 177.199 45.2606C177.315 45.2743 177.447 45.2819 177.453 45.2983C177.471 45.3476 177.413 45.443 177.354 45.4832ZM178.649 41.9811C178.37 42.0269 178.091 42.0727 177.659 42.1556C177.651 41.8796 177.65 41.6752 177.65 41.4709C177.957 41.4519 178.393 41.3303 178.556 41.4201C178.718 41.5098 178.632 41.7827 178.649 41.9811ZM181.507 45.9239C181.507 45.9239 181.54 45.912 181.578 45.9165C181.562 45.9225 181.558 45.9612 181.541 45.9672C181.541 45.9672 181.503 45.9626 181.497 45.9462C181.497 45.9462 181.507 45.9239 181.518 45.9015L181.507 45.9239ZM178.04 40.1573C178.179 40.1813 178.288 40.1785 178.339 40.2159C178.412 40.2638 178.354 40.3591 178.24 40.4007C178.158 40.4304 178.036 40.4004 177.97 40.369C177.941 40.3421 178.005 40.2631 178.04 40.1573ZM176.405 37.2383C176.303 37.3127 176.16 37.3274 176.108 37.2349C176.045 37.1646 176.097 37.0528 176.244 36.9994C176.326 36.9697 176.458 36.9773 176.639 36.9672C176.538 37.0968 176.497 37.1862 176.405 37.2383ZM174.847 33.0082C174.899 33.1008 174.835 33.1798 174.711 33.2437C174.559 33.336 174.448 33.2836 174.321 33.088C174.614 32.9258 174.778 32.9216 174.847 33.0082ZM173.245 29.7239C173.08 29.7281 172.97 29.7309 172.811 29.7515C172.989 29.6991 173.134 29.6899 173.245 29.7239ZM172.799 30.481C172.799 30.481 172.903 30.4617 172.958 30.4603C172.958 30.4603 172.938 30.5051 172.944 30.5215C172.911 30.5334 172.85 30.5183 172.811 30.5138C172.811 30.5138 172.805 30.4974 172.816 30.475L172.799 30.481ZM173.878 33.3423C173.878 33.3423 174.065 33.3486 174.093 33.3755C174.105 33.4083 174.052 33.4649 174.031 33.5097C173.954 33.5006 173.866 33.5139 173.799 33.4824C173.783 33.4884 173.841 33.393 173.872 33.3259L173.878 33.3423ZM174.252 34.6751C174.252 34.6751 174.317 34.6513 174.35 34.6394C174.356 34.6558 174.352 34.6946 174.335 34.7006C174.319 34.7065 174.27 34.7243 174.221 34.7421C174.242 34.6974 174.236 34.681 174.268 34.6691L174.252 34.6751ZM175.53 41.9448C175.558 41.7674 175.635 41.5721 175.772 41.3918C175.9 41.2339 176.185 41.2045 176.409 41.1601C176.984 41.0626 177.312 41.4077 177.027 41.7906C176.942 41.9143 176.858 42.0379 176.741 42.1735C176.505 42.1851 176.275 42.213 176.055 42.2187C175.764 42.2316 175.502 42.1223 175.53 41.9448ZM170.578 31.7917C170.578 31.7917 170.643 31.7679 170.725 31.7382C170.645 31.8231 170.612 31.835 170.602 31.8573C170.596 31.8409 170.557 31.8364 170.535 31.8259C170.535 31.8259 170.555 31.7812 170.572 31.7752L170.578 31.7917ZM173.8 42.0167C173.8 42.0167 173.932 42.0243 174.026 42.0275C173.973 42.0841 173.942 42.1512 173.909 42.163C173.844 42.1868 173.777 42.1554 173.705 42.1627C173.742 42.1121 173.757 42.0509 173.8 42.0167ZM42.796 90.7209C42.3417 90.7933 41.7564 90.7088 41.404 90.5024C41.1914 90.3753 41.0185 90.1035 40.9452 89.8513C40.9066 89.8468 40.8783 89.8199 40.8397 89.8153C39.9036 89.5796 38.944 89.4826 37.9328 89.4974C36.9215 89.5122 35.94 89.6091 34.9766 89.7553C34.0131 89.9014 33.1209 90.0402 32.3162 90.1658C31.5116 90.2913 30.8359 90.3141 30.2952 90.2506C29.7545 90.187 29.4125 89.9583 29.2691 89.5642C29.1734 89.3015 29.1817 89.0196 29.2836 88.7408C29.3855 88.462 29.6299 88.1685 30.0228 87.8768C30.4157 87.585 30.9794 87.3055 31.7139 87.0381C32.7096 86.6757 33.7917 86.4492 34.9543 86.3422C36.1169 86.2351 37.3659 86.2639 38.7013 86.4287L38.9754 79.9699C37.5388 79.7304 35.9987 79.7145 34.3775 79.9327C32.7563 80.1509 31.1786 80.5393 29.6279 81.1037C27.2774 81.9592 25.4442 83.0169 24.1178 84.2991C22.7915 85.5814 21.9569 86.945 21.5814 88.4019C21.2058 89.8587 21.2862 91.2983 21.8061 92.7268C22.1646 93.7119 22.637 94.451 23.1938 95.0665C23.4951 95.0312 23.7922 95.0347 23.9542 95.1244C24.1892 95.262 24.2091 95.5709 24.0746 95.8615C24.7038 96.3205 25.3907 96.6841 26.144 96.8747C27.0801 97.1104 28.056 97.2015 29.0673 97.1867C30.0786 97.1719 31.066 97.0914 32.0295 96.9453C32.993 96.7991 33.8748 96.6827 34.6854 96.5736C35.496 96.4645 36.1717 96.4417 36.7184 96.5216C37.265 96.6015 37.6131 96.8467 37.7625 97.2572C37.8581 97.5199 37.8438 97.7854 37.7137 98.0373C37.5835 98.2892 37.3272 98.5498 36.9387 98.8028C36.5501 99.0558 35.9804 99.3189 35.2459 99.5863C33.9891 100.044 32.6115 100.322 31.1356 100.432C29.6597 100.541 28.2666 100.472 26.9399 100.229L26.5145 106.78C27.3495 106.941 28.2808 107.012 29.3144 107.007C29.3525 106.807 29.4767 106.539 29.571 106.189C30.2439 106.26 30.7324 106.231 31.006 106.373C31.2126 106.484 31.1967 106.694 31.0546 106.913C31.2358 106.903 31.3783 106.888 31.5595 106.878C33.0561 106.724 34.5523 106.365 36.0289 105.902C36.0289 105.902 36.0289 105.902 36.0229 105.886C36.0229 105.886 36.0556 105.874 36.0615 105.89C36.4919 105.752 36.9179 105.653 37.326 105.504C39.6928 104.643 41.5363 103.563 42.8464 102.286C44.1564 101.01 44.985 99.6301 45.3605 98.1733C45.7361 96.7164 45.6557 95.2768 45.1478 93.8812C44.7115 92.6826 44.1125 91.7479 43.3627 91.1097C43.1767 90.9543 42.97 90.8435 42.7737 90.7105L42.796 90.7209ZM38.3422 81.0742C38.3422 81.0742 38.4907 81.076 38.5516 81.091C38.5516 81.091 38.5428 81.1685 38.5265 81.1745C38.4612 81.1983 38.3736 81.2115 38.3024 81.2189C38.3231 81.1742 38.3215 81.119 38.3422 81.0742ZM32.5172 80.8144C32.8508 80.5628 33.2191 80.5589 33.423 80.7636C33.5703 80.9145 33.5871 81.1129 33.7349 81.4682C33.1468 81.4777 32.7638 81.5427 32.5364 81.4767C32.165 81.3702 32.1569 81.0942 32.5232 80.8308L32.5172 80.8144ZM22.1159 91.0893C22.1159 91.0893 21.9451 91.0771 21.9168 91.0502C21.9048 91.0174 21.9522 90.9444 21.9729 90.8997C22.0338 90.9147 22.1437 90.9119 22.172 90.9388C22.1839 90.9716 22.1366 91.0446 22.1159 91.0893ZM41.8898 99.4551C41.5764 99.4576 41.3523 99.502 41.2082 99.4615C41.1472 99.4465 41.2001 99.1855 41.2654 99.1617C41.445 99.0964 41.6914 99.0625 41.8622 99.0747C41.9395 99.0838 41.879 99.2731 41.8898 99.4551ZM63.9838 72.448C62.4304 71.7862 60.7709 71.442 58.9888 71.4212C57.2066 71.4005 55.3852 71.7288 53.5081 72.412C51.631 73.0952 50.0573 74.0026 48.6891 75.17C47.3209 76.3373 46.2709 77.6678 45.5064 79.1732C44.7419 80.6787 44.3043 82.2697 44.1996 83.9626C44.0948 85.6556 44.348 87.367 44.9875 89.1238C45.6269 90.8806 46.527 92.338 47.6955 93.5675C48.8639 94.7971 50.2278 95.751 51.7811 96.4128C53.3344 97.0746 54.994 97.4189 56.7924 97.4336C58.5909 97.4484 60.4123 97.1202 62.2894 96.437C64.1665 95.7537 65.7402 94.8463 67.0921 93.6849C68.4439 92.5235 69.4939 91.193 70.2584 89.6876C71.0229 88.1821 71.4546 86.5747 71.5593 84.8818C71.664 83.1888 71.4049 81.461 70.7774 79.737C70.1499 78.0131 69.2319 76.5064 68.0634 75.2769C66.895 74.0473 65.5371 73.1098 63.9838 72.448ZM47.1528 83.0365C47.0668 83.105 46.9466 83.1301 46.773 83.2119C46.7861 83.0956 46.7503 82.997 46.8036 82.9404C46.8793 82.8943 47.0218 82.8796 47.1317 82.8768C47.148 82.8709 47.1735 82.9917 47.1468 83.0201L47.1528 83.0365ZM51.966 89.9121C51.3632 89.9827 50.9491 90.1148 50.6565 90.0726C50.248 90.0168 50.2634 89.6021 50.6074 89.3281C50.9676 89.0483 51.4219 88.9759 51.6851 89.1404C51.8814 89.2735 51.8345 89.5509 51.966 89.9121ZM61.2458 78.1302C61.3764 78.0827 61.5308 78.1008 61.7669 78.0892C61.6455 78.2636 61.5998 78.3918 61.4871 78.4886C61.3745 78.5854 61.1041 78.5536 61.046 78.4446C60.9878 78.3356 61.0499 78.2015 61.2458 78.1302ZM58.8283 74.7893C58.8283 74.7893 58.8892 74.8043 58.9115 74.8148C58.8952 74.8207 58.8745 74.8655 58.8581 74.8714C58.8418 74.8774 58.7809 74.8623 58.7749 74.8459C58.7749 74.8459 58.8179 74.8117 58.8283 74.7893ZM57.9891 75.4294C58.2443 75.318 58.531 75.3438 58.6234 75.4961C58.7098 75.632 58.5944 75.8227 58.3718 75.9223C58.0943 76.0233 57.7364 76.0048 57.6663 75.863C57.5859 75.7435 57.7236 75.5633 57.9951 75.4458L57.9891 75.4294ZM65.9656 91.2501C65.8039 91.3647 65.5352 91.3881 65.1641 91.486C65.223 91.2414 65.1839 91.0325 65.3026 90.9522C65.4539 90.8599 65.7835 90.8515 65.9663 90.8965C66.0658 90.9161 66.0515 91.1816 65.9492 91.256L65.9656 91.2501ZM63.0078 82.5649C63.0615 82.7127 63.0871 82.8336 63.1245 82.9873C63.1572 82.9754 63.1958 82.9799 63.2018 82.9964C63.236 83.0397 63.205 83.1068 63.1799 83.1902C63.37 83.8648 63.4931 84.508 63.4945 85.1211C63.4903 85.9221 63.3523 86.6603 63.0582 87.3252C62.7641 87.99 62.3629 88.5637 61.8383 89.0521C61.3136 89.5406 60.6922 89.9155 59.974 90.1769C59.2558 90.4383 58.5387 90.5506 57.8229 90.5136C57.107 90.4767 56.4309 90.2951 55.7783 89.9748C55.1256 89.6546 54.5454 89.1778 54.0273 88.5668C53.5092 87.9559 53.0858 87.1989 52.7571 86.2959C52.4284 85.3929 52.2662 84.5408 52.2704 83.7398C52.2746 82.9387 52.4126 82.2005 52.7066 81.5357C53.0007 80.8708 53.4019 80.2971 53.9266 79.8087C54.4512 79.3202 55.0727 78.9453 55.7909 78.6839C56.5091 78.4225 57.2261 78.3103 57.942 78.3472C58.6579 78.3841 59.334 78.5657 59.9866 78.886C60.6392 79.2062 61.2194 79.683 61.7376 80.294C62.1306 80.7645 62.4557 81.3528 62.7437 81.9917C62.8742 81.9442 63.0331 81.9235 63.1995 81.9745C63.1048 82.1206 62.9802 82.1845 62.8436 82.2156C62.8915 82.347 62.9659 82.45 63.0137 82.5814L63.0078 82.5649ZM61.8698 73.4963C61.6397 73.5243 61.3694 73.4926 61.2133 73.4192C61.1464 73.3878 61.3271 73.1733 61.4246 72.9332C61.7351 73.0247 61.9995 73.0401 62.1066 73.1312C62.1632 73.185 61.9188 73.4785 61.8475 73.4859L61.8698 73.4963ZM68.5796 77.7107C68.5796 77.7107 68.6508 77.7034 68.6731 77.7139C68.6568 77.7198 68.6524 77.7586 68.6258 77.7869C68.6094 77.7928 68.5708 77.7883 68.5322 77.7837C68.5425 77.7614 68.5529 77.739 68.5796 77.7107ZM68.2568 83.6294C68.42 83.57 68.5566 83.5389 68.8297 83.4767C68.6193 83.6772 68.4283 83.7282 68.2568 83.6294ZM70.0088 80.7233C69.764 80.8124 69.6302 80.7496 69.5334 80.6361C69.4083 80.4956 69.5504 80.2766 69.7893 80.171C70.0178 80.0879 70.3371 80.1018 70.4116 80.2048C70.4861 80.3079 70.2313 80.6237 70.0088 80.7233ZM108.04 54.7396C105.757 54.5107 103.353 54.8649 100.807 55.7917L89.5441 59.8909L97.9103 82.877L105.517 80.1085C105.819 79.924 106.15 79.7664 106.572 79.7059C106.604 79.6941 106.621 79.6881 106.643 79.6986L109.173 78.7777C111.719 77.8509 113.788 76.5773 115.39 74.9345C115.903 74.4132 116.343 73.844 116.738 73.2539C116.305 73.4859 115.693 73.6341 115.409 73.5144C114.997 73.3481 115.011 72.8782 115.419 72.5253C115.843 72.1665 116.558 71.9991 116.954 72.1713C117.11 72.2446 117.196 72.3805 117.228 72.5178C117.803 71.5088 118.235 70.4593 118.482 69.3096C118.948 67.1876 118.739 64.9392 117.873 62.5585C117.006 60.1778 115.733 58.3543 114.018 57.0448C112.302 55.7354 110.323 54.9684 108.04 54.7396ZM98.0653 79.6969C98.0653 79.6969 97.9004 79.7011 97.8069 79.698C97.8276 79.6532 97.8363 79.5757 97.8853 79.5579C97.9669 79.5282 98.0605 79.5313 98.203 79.5166C98.1453 79.612 98.1142 79.6791 98.0653 79.6969ZM92.486 61.9811C92.7273 61.8313 92.9396 61.8222 93.1231 61.9537C92.8484 61.9608 92.6835 61.965 92.486 61.9811ZM95.1546 62.6089C95.0447 62.6117 94.9511 62.6085 94.8353 62.5949C94.8723 62.5443 94.893 62.4996 94.9344 62.4101C95.0339 62.4297 95.1498 62.4433 95.233 62.4688C95.233 62.4688 95.1709 62.6029 95.1546 62.6089ZM94.5176 59.2335C94.2858 59.2063 94.0824 59.206 94.0035 59.1417C93.8801 59.0565 93.9422 58.9223 94.1424 58.8123C94.3263 58.7081 94.6234 58.7116 94.6489 58.8325C94.6847 58.931 94.5944 59.0382 94.5339 59.2276L94.5176 59.2335ZM98.8973 66.8991C98.8973 66.8991 98.7739 66.8139 98.7946 66.7691C98.873 66.629 99.0378 66.6248 99.2249 66.6311C99.1911 66.7922 99.1008 66.8994 98.8973 66.8991ZM100.932 67.869C99.5474 68.0756 99.5191 68.0487 99.6403 67.1121C100.414 67.1034 100.844 67.3557 100.932 67.869ZM100.122 60.9684C100.122 60.9684 100.371 60.8405 100.507 60.8094C100.715 60.7709 100.913 60.7548 101.12 60.7164C101.422 60.6811 101.712 60.8173 101.651 61.0066C101.572 61.2959 101.415 61.5761 100.998 61.8022C100.623 61.9388 100.256 61.9979 99.9453 61.9064C99.8398 61.8704 99.7327 61.7793 99.7474 61.7181C99.8389 61.4617 99.9691 61.2098 100.122 60.9684ZM108.49 73.4482C108.49 73.4482 108.403 73.4614 108.38 73.451C108.38 73.451 108.385 73.4122 108.389 73.3734C108.422 73.3615 108.454 73.3496 108.503 73.3318C108.499 73.3706 108.489 73.393 108.484 73.4317L108.49 73.4482ZM109.789 76.5083C109.789 76.5083 109.718 76.5156 109.695 76.5052L109.683 76.4723C109.716 76.4604 109.749 76.4486 109.781 76.4367C109.787 76.4531 109.777 76.4755 109.773 76.5142L109.789 76.5083ZM110.511 68.6405C110.353 69.6278 109.944 70.4834 109.277 71.1909C108.946 71.5529 108.543 71.867 108.112 72.1542C108.112 72.1542 108.128 72.1483 108.144 72.1423C108.032 72.2391 107.984 72.3121 107.919 72.3359C107.87 72.3537 107.819 72.3164 107.775 72.2954C107.423 72.4977 107.066 72.6836 106.641 72.8381L103.41 74.0144L99.4415 63.1124L102.673 61.9361C103.767 61.5381 104.791 61.4069 105.757 61.5203C106.723 61.6338 107.586 62.026 108.336 62.6641C109.086 63.3023 109.673 64.2042 110.097 65.37C110.522 66.5357 110.664 67.6368 110.505 68.6241L110.511 68.6405ZM111.918 68.24C111.636 68.3798 111.356 68.3704 111.33 68.2495C111.3 68.1674 111.385 68.0437 111.465 67.9588C111.524 67.9186 111.595 67.9113 111.677 67.8816C111.71 67.8697 111.759 67.8519 111.797 67.8564C111.797 67.8564 111.797 67.8564 111.787 67.8788C111.864 67.8878 111.947 67.9133 111.965 67.9626C111.995 68.0447 111.917 68.1848 111.902 68.2459L111.918 68.24ZM114.345 65.4603C114.345 65.4603 114.262 65.4348 114.217 65.4138C114.25 65.4019 114.276 65.3736 114.303 65.3453C114.342 65.3499 114.386 65.3708 114.425 65.3754C114.392 65.3872 114.339 65.4438 114.339 65.4438L114.345 65.4603ZM117.612 71.5413C117.38 71.7185 117.075 71.7926 116.907 71.6864C116.761 71.5907 116.75 71.4087 116.708 71.2937C117.04 70.987 117.305 71.0023 117.526 71.0519C117.792 71.1224 117.837 71.3477 117.622 71.5189L117.612 71.5413ZM117.376 63.4274C117.376 63.4274 117.437 63.4424 117.492 63.441C117.449 63.4752 117.428 63.5199 117.379 63.5378C117.363 63.5437 117.318 63.5227 117.279 63.5182C117.306 63.4899 117.327 63.4452 117.37 63.4109L117.376 63.4274ZM191.706 23.209C191.408 23.3547 190.867 23.2912 190.73 23.1179C190.73 23.1179 190.718 23.0851 190.712 23.0687L177.507 27.8749L179.695 33.8841L186.387 31.4483L190.988 44.0907C191.152 44.0313 191.345 44.054 191.413 44.1406C191.482 44.2272 191.399 44.4061 191.225 44.4879C191.193 44.4997 191.176 44.5057 191.144 44.5176L192.572 48.4416L200.276 45.6375L199.272 42.8791C199.272 42.8791 199.256 42.8851 199.24 42.891C198.987 42.9085 198.744 42.8485 198.555 42.787C198.388 42.736 198.51 42.5617 198.578 42.4439C198.64 42.3098 198.696 42.1592 198.892 42.0879C198.925 42.076 198.941 42.0701 198.957 42.0641L196.818 36.1863C196.516 36.0172 196.465 35.7755 196.585 35.5459L194.087 28.683L200.779 26.2472L198.592 20.2379L192.079 22.6084C192.173 22.8159 192.033 23.0902 191.686 23.2537L191.706 23.209ZM179.037 29.9956C179.199 29.8994 179.338 29.8922 179.454 29.9739C179.273 29.9841 179.163 29.9869 179.037 29.9956ZM180.814 30.4087C180.814 30.4087 180.666 30.407 180.611 30.4084C180.637 30.3801 180.642 30.3413 180.679 30.2906C180.74 30.3056 180.817 30.3147 180.878 30.3297C180.878 30.3297 180.836 30.4192 180.82 30.4251L180.814 30.4087ZM180.402 28.16C180.248 28.1418 180.122 28.1506 180.049 28.1027C179.976 28.0549 180.001 27.9714 180.136 27.8851C180.261 27.8211 180.442 27.811 180.472 27.8931C180.495 27.9587 180.432 28.0377 180.396 28.1436L180.402 28.16ZM184.708 29.8838C184.447 29.9789 184.217 30.0068 184.012 29.9513C183.951 29.9363 183.872 29.872 183.877 29.8333C183.943 29.6603 184.032 29.4979 184.137 29.3295C184.158 29.2848 184.31 29.2477 184.398 29.2344C184.535 29.2033 184.677 29.1886 184.803 29.1799C185.001 29.1638 185.196 29.2416 185.156 29.3863C185.095 29.5756 184.996 29.7605 184.72 29.9167L184.708 29.8838ZM186.107 31.0854C186.107 31.0854 185.958 31.0837 185.871 31.097C185.881 31.0746 185.902 31.0299 185.906 30.9911C185.967 31.0061 186.05 31.0316 186.111 31.0466C186.111 31.0466 186.101 31.069 186.091 31.0913L186.107 31.0854ZM186.08 25.0707C186.196 25.0843 186.306 25.0815 186.302 25.1202C186.314 25.1531 186.266 25.2261 186.213 25.2827C186.18 25.2946 186.032 25.2929 186.026 25.2764C186.014 25.2436 186.045 25.1765 186.07 25.093L186.08 25.0707ZM190.854 41.9453C190.724 41.9929 190.581 42.0076 190.551 41.9255C190.534 41.8762 190.575 41.7868 190.604 41.6645C190.781 41.6931 190.907 41.6844 190.958 41.7217C191.053 41.7801 190.995 41.8755 190.871 41.9394L190.854 41.9453ZM189.189 36.8618C189.189 36.8618 189.236 36.7888 189.269 36.7769C189.318 36.7591 189.379 36.7741 189.489 36.7713C189.419 36.8339 189.382 36.8845 189.333 36.9023C189.301 36.9142 189.217 36.8887 189.189 36.8618ZM189.706 37.622C189.706 37.622 189.657 37.6398 189.629 37.6129C189.629 37.6129 189.617 37.58 189.633 37.5741C189.649 37.5682 189.682 37.5563 189.698 37.5503C189.704 37.5668 189.694 37.5891 189.684 37.6115L189.706 37.622ZM190.579 39.6655C190.579 39.6655 190.547 39.6774 190.518 39.6505L190.512 39.6341C190.529 39.6282 190.561 39.6163 190.578 39.6103C190.578 39.6103 190.59 39.6432 190.573 39.6491L190.579 39.6655ZM192.885 44.2742C192.885 44.2742 192.808 44.2651 192.769 44.2606C192.786 44.2546 192.806 44.2099 192.833 44.1816C192.878 44.2026 192.916 44.2071 192.944 44.234L192.891 44.2906L192.885 44.2742ZM192.129 40.7749C192.129 40.7749 192.052 40.7658 192.046 40.7494C192.046 40.7494 192.067 40.7047 192.081 40.6435C192.126 40.6645 192.164 40.669 192.17 40.6854C192.176 40.7018 192.133 40.7361 192.129 40.7749ZM189.465 33.5074C189.017 33.5961 188.843 33.4735 188.949 33.156C189.374 33.0015 189.654 33.0109 189.701 33.2914C189.719 33.3407 189.547 33.4776 189.465 33.5074ZM191.991 34.1498C191.801 34.2375 191.614 34.2313 191.601 34.1432C191.583 34.094 191.624 34.0046 191.7 33.9584C191.786 33.8899 192.006 33.8843 192.036 33.9664C192.059 34.0321 192.012 34.1051 191.991 34.1498ZM196.235 41.493C196.235 41.493 196.186 41.5108 196.164 41.5003C196.164 41.5003 196.158 41.4839 196.168 41.4615C196.185 41.4556 196.217 41.4437 196.234 41.4378C196.24 41.4542 196.229 41.4765 196.219 41.4989L196.235 41.493ZM193.599 32.319C193.599 32.319 193.538 32.304 193.515 32.2936C193.532 32.2876 193.564 32.2757 193.575 32.2534C193.591 32.2474 193.636 32.2684 193.658 32.2789C193.625 32.2907 193.605 32.3355 193.599 32.319ZM191.819 25.1947C191.665 25.1765 191.538 25.1853 191.482 25.1315C191.453 25.1046 191.505 24.9928 191.565 24.9526C191.667 24.8782 191.815 24.8799 191.862 24.956C191.879 25.0053 191.832 25.0783 191.813 25.1782L191.819 25.1947ZM198.331 23.94C198.505 23.8582 198.678 23.7765 198.858 23.7111C198.956 23.6755 199.067 23.7279 199.293 23.7387C199.137 23.8697 199.069 23.9874 199.004 24.0112C198.796 24.0497 198.582 24.0717 198.363 24.0773C198.33 24.0892 198.315 23.946 198.331 23.94ZM194.738 23.4629C194.738 23.4629 194.917 23.3976 194.983 23.3738C195.038 23.3724 195.045 23.444 195.085 23.5037C194.971 23.5453 194.857 23.5869 194.796 23.5719C194.757 23.5674 194.766 23.4898 194.748 23.4406L194.738 23.4629Z" fill="#FF2626"/>
</svg>
