<?xml version="1.0" encoding="UTF-8"?>
<svg id="_圖層_1" data-name="圖層_1" xmlns="http://www.w3.org/2000/svg" version="1.1" viewBox="0 0 225.06 127.66">
  <!-- Generator: Adobe Illustrator 30.6.0, SVG Export Plug-In . SVG Version: 2.1.4 Build 109)  -->
  <defs>
    <style>
      .st0 {
        fill: #ff2626;
      }
    </style>
  </defs>
  <path class="st0" d="M198.72.54l-43.27,15.75s.04.02.07.03c.42.33.16.8-.56,1.1-.66.28-1.16.12-1.26-.27-.02-.07-.02-.14,0-.22l-26.15,9.52c.38.29.21.72-.49,1.05-.69.34-1.38.32-1.6-.07-.02-.07-.05-.13-.04-.21l-15.75,5.73c-.06.19-.15.3-.39.29-.06,0-.1-.06-.11-.11l-39.73,14.46v.03c.02.17,0,.3-.06.45-.05.13-.14.24-.23.33l-.91-.37-.08.03h-.03S5.82,70.75,5.82,70.75c-4.6,1.68-6.96,6.77-5.28,11.4l14.43,39.63c1.68,4.61,6.77,7.02,11.37,5.34l89.17-32.46-.05-.34-.65.24-.17-.46,1.79-.56-.33.75h-.56s-.08.03-.08.03l.08.32,14.75-5.37s.04-.18.09-.31c.22.05.34.08.48.1l71.67-26.09s.03-.12.06-.13c.05-.02.14-.03.21-.04,0,.02-.02.04-.02.08l16.45-5.99c4.59-1.67,6.96-6.77,5.28-11.4l-14.43-39.63c-1.68-4.63-6.77-7.02-11.37-5.34ZM217.02,38v-.28s-.04-.44-.04-.44v-.17s.25-.06.25-.06l.04.86.07.18s-.1.04-.13.05c0,0-.1.04-.15.04v-.17s-.03-.03-.03-.03ZM181.44,10.9c.1-.04.22-.04.4-.05-.07.12-.09.22-.14.24-.1.04-.23.03-.31,0-.02,0,.02-.16.07-.17h-.02ZM177.03,13.1l-.08-.38.59-.16.68-.17c.03.44-.36.85-.99,1.09-.03.01-.08.03-.11.04l-.1-.43h.02ZM174.86,10.69c.08-.03.22,0,.41,0-.12.12-.18.23-.26.24-.1.04-.21-.02-.32-.03.05-.07.08-.18.16-.21h.02ZM168.48,13.08c-.01-.14-.04-.3-.04-.45.04-.44.41-.76,1.09-.96.22-.06.42-.12.64-.16.6-.13,1.07-.06,1.28.26.15.22.37.37.68.5.21.07.36.24.44.4.22.46-.21,1.06-.9,1.33-.96.37-1.82.27-2.09-.21-.09-.15-.18-.33-.28-.51-.76.2-.77.21-.82-.18v-.02ZM166.35,13.21c.13,0,.27-.02.39-.03-.03.07-.05.17-.13.2-.06.02-.2.02-.28.03,0-.08,0-.13.02-.19ZM156.47,19.24c.65-.55,2.03-.78,2.74-.44.68.31.67,1.24-.01,1.75-.68.51-1.85.65-2.57.3-.74-.35-.79-1.07-.16-1.61ZM154.77,20.01h.13c.55-.08.95.06,1.09.34l-.64.27-.42.15.04.1-.03-.08-.23.08s.05.04.07.03c0,0-.02,0-.07,0l-3.52.39,3.59-1.31v.02ZM144.96,23.93s.07-.02.09-.07l.22-.15.26-.04c.28-.05.51-.02.67.05.09.04.15.1.19.17l-.64.29-.13.05.24.15s-.14.09-.2.13c-.03.01-.08.03-.11.06l-.18-.08.03-.18-.19.07-.58-.27c.1-.09.22-.15.31-.22l.02.05ZM142.07,25.39s.38-.14.45-.09c.13.06.15.21.28.42-.4.02-.69.08-.78.04-.1-.06-.03-.25.03-.37h.02ZM135.55,27.21c.33-.2.84-.23.87-.04.05.13-.11.32-.13.4-.46.22-.9.23-1.01.05-.12-.16.06-.3.27-.42ZM132.91,24.53s.14-.01.25-.03c-.05.07-.07.12-.13.14-.03.01-.12.03-.13,0-.01-.03,0-.08,0-.13v.02ZM133.5,28.7s.08,0,.16.02c-.04.03-.08.08-.14.13-.02,0-.08,0-.13,0,.04-.05.06-.1.12-.14ZM129.48,31.22s.11.04.17.05c-.05.02-.1.09-.11.1-.05,0-.11-.04-.17-.05.03-.01.08-.05.12-.08v-.02ZM115.25,30.97s.15-.04.29-.05c-.14.12-.19.2-.24.22-.05.02-.12-.01-.19-.02.04-.05.07-.1.12-.14h.02ZM115.66,33.52s.03.03.01.03c0,0-.03.01-.06.04,0-.02-.02-.05-.04-.06.02,0,.05-.02.07-.02h.02ZM110.23,33.54c1.52-.03,1.53-.02,1.69.98-1.81.27-1.85.25-1.69-.98ZM95.33,40.6c.18-.07.41-.04.77-.06-.2.26-.27.43-.45.55-.21.13-.49.14-.59,0-.11-.16-.02-.35.26-.47v-.02ZM91.25,39.84s-.02,0-.03.01h.03c.07-.04.1-.09.15-.1l.2.19.05-.06.43-.44c.22.09.24.26.27.35l.12.33-.46.26s-.03.01-.05.02c0,0-.07.02-.09.05,0,0-.07.02-.1.04l-.26-.35-.02-.05-.18.07.12-.12-.18-.25v.06ZM91.03,40.2v-.02s0,.03.01.05c0,0,.03.04.06.05l-.07.02s-.02-.07-.04-.1h.03ZM83.77,47.13c.29.03.54,0,.56.06.04.1-.04.26-.15.35-.04.03-.38.06-.44.01-.06-.07,0-.23.03-.42ZM77.28,46.56s.09,0,.13,0c0,.02-.01.06-.03.08-.03.01-.11,0-.13,0,0-.02.01-.06.03-.08ZM75.93,46.14s.09,0,.13,0c-.03.03-.03.08-.06.1-.03.01-.08,0-.13,0,.03-.03.03-.07.06-.1ZM76.93,49.77c.66-.61,1.15-.59,1.61-.46.53.14.61.6.18.94-.45.35-1.04.51-1.39.28-.29-.19-.3-.56-.38-.75v-.02ZM75.84,49.61c.1-.04.22-.1.26-.1.06.02.05.09.08.16-.1.04-.22.1-.26.1-.06-.02-.05-.09-.09-.15h.02ZM71.05,50.68c.29-.12.71-.09.82.06.1.13-.23.55-.53.68-.33.12-.5.03-.63-.11-.15-.17.01-.47.33-.61v-.02ZM61.54,51.86l.08-.03s-.03.01-.04.03c-.03.01-.04.05-.05.07,0,0,0-.02,0-.07h.02ZM61.64,51.83l.05-.02.57-.73s.06.01.08.03c.08.03.15.06.21.07.02.01.07.03.08.03l.23.07.06.16c.09.51-.27.82-.52.97l-.49-.42-.09.11s-.13-.05-.21-.07c-.02-.01-.07-.03-.09-.04l.13-.16h-.02ZM61.54,53.18c.27-.23.54-.25.86-.17-.22.32-.51.37-.82.34-.06-.02-.09-.14-.06-.16h.02ZM61.98,54.36c.15,0,.37-.04.45,0,.06.05-.04.2-.07.36-.21-.02-.43-.01-.46-.05-.03-.08.04-.2.07-.32h.02ZM58.15,56.12s.27-.06.3-.04c.08.06.06.16.11.31-.25.02-.4.02-.54.03.04-.11.05-.21.13-.29v-.02ZM51.32,56.1s.11.04.16.07c.12.07.23.18.31.3l.02.05.02.05c.03.18.02.35-.07.51-.1.18-.26.35-.48.51l-.38-.29-.34-.27h-.03s0,0-.01-.02v-.02s-.02-.03-.02-.03l.87-.87h-.03ZM39.98,59.21l.13-.1.15-.05.22-.21s.02,0,.04,0c.13.05.22.1.31.15l.07.05.76.41-.95.34-.39.29-.51-.3s-.12-.09-.18-.08l.44-.46-.1-.06v.02ZM35.1,63.03l.15.1.02.07c.18.25.09.51-.02.66-.12.17-.32.34-.58.45-.07.02-.13.05-.2.07l-.08.03-.27-.83s-.14.13-.14.18l-.68-1.09,1.75.35.03.03ZM27.46,64.38c.48-.42,1.35-.66,2.24-.7l-.53-.48,1.15-.55s.01.03.02.05c.17.31.06.67-.3.95.59,0,1.16.1,1.61.31,1.05.49,1.03,1.06-.08,1.96-1.04.84-3.01,1.28-3.88.86-.7-.34-.85-1.88-.23-2.41v.02ZM7.19,73.69c.64-.53,1.9-.78,2.39-.48.45.26.32,1.07-.25,1.5-.55.42-1.57.57-2.09.3-.54-.27-.57-.91-.07-1.31h.02ZM8,86.44c-.79-.18-1.39-.2-1.69-.43-.16-.13.08-.68.36-.84.64-.36,1.31-.27,1.54.13.13.21-.09.57-.23,1.14h.02ZM57.91,111.68s-.07.1-.13.16c-.02,0-.04.05-.05.06l-1.24-.07c.05-.11.14-.22.22-.3.03-.01.05-.06.06-.08l1.18.18-.04.05ZM65.56,109.38c0,.24-.13.5-.34.7-.11.11-.24.2-.4.27-.07.02-.15.05-.21.08l-.07.02-.12-.42-.1-.39-.05.02h-.02s0,0,.02-.04c-.02-.05-.03-.08-.03-.08l.95-.85c.24.1.38.29.44.55l.02.07-.1.07ZM95.31,100l-.76.09-.08.29h-.14c-.11.02-.21.04-.29.04v-.24s.12-.04.12-.04h-.11s.01-.17.01-.17l.02-.45c.19-.03.37-.06.53-.06l.48-.05.14.19c.07.1.11.24.08.36v.04ZM108.34,92.43c-.12.03-.27.06-.34.03-.05-.04,0-.15.03-.23.11,0,.27-.06.32-.02.05.04,0,.13-.02.21v.02ZM116.95,92.18s-.13.1-.21.15c-.03.01-.08.05-.1.07l-.98-.41s.04-.03.05-.06c.08-.07.19-.14.26-.19.03-.01.08-.03.1-.07l.88.5h-.02ZM126.03,84.97c.05.13,0,.28-.07.42l-.86-.08-.39.14.16-.06.08-.03.13-.05.29-.11.62-.32-.63.3.63-.29s.02.07.03.08v-.02ZM130.05,86.63c.02.31-.14.53-.31.69l-1-.4h-.02s-.04.06-.04.06c0,0,0-.02,0-.07l1.32-.43s.04.1.01.14h.02ZM139.91,81.77c-.1.04-.19.03-.29.05.01-.06.03-.12.06-.19.09,0,.19,0,.27.03.02,0,0,.09-.02.1h-.02ZM150.8,81.47c-.73.32-1.39.28-1.59-.11-.15-.3.15-.74.31-1.38.87.11,1.54.05,1.88.24.48.25.09.95-.6,1.24ZM167.31,71.92c-.36.13-.83.1-.93-.07-.1-.17.08-.4.43-.55.33-.16.7-.12.84.07.12.18-.04.44-.33.57v-.02ZM167.94,70.57s-.1-.02-.1-.04c0,0,.05-.06.08-.08.04,0,.08.03.1.04-.03.03-.05.06-.08.08ZM171.91,68.75c-.3.04-.65,0-.85-.1-.09-.04.14-.33.29-.63.41.11.75.14.89.27.08.06-.24.46-.33.47v-.02ZM176.93,66.5c-.11-.16.03-.38.33-.51.27-.12.52-.1.63.07.11.16-.02.4-.34.53-.28.1-.49.08-.6-.08h-.02ZM178.49,67.74l-.08.03-.67-.63s.08-.03.11-.06l.08-.03.67.61s-.08.03-.12.06h.02ZM189.83,61.13s-.21-.03-.32-.05c.1-.13.18-.27.31-.37.04-.03.25.02.53.03-.23.18-.35.3-.52.39ZM192.35,61.65c-.07.1-.75.22-.89.14-.22-.1-.2-.39-.34-.77.65-.03,1.17-.15,1.31-.05.17.11.08.47-.09.68ZM199.53,61.1c-.12.32-.75.78-1.21.79-.49.01-.97-.07-1.37-.21-.32-.12-.07-.44.05-.67.15-.26.23-.55.63-.71.59-.27,1.12-.33,1.55-.17.49.19.51.58.35.97ZM202.19,60.6c-.15-.02-.35.01-.44-.04-.04-.02.07-.17.15-.31.19.02.37.01.41.07.04.06-.08.18-.12.28ZM203.53,60.07c-.31.17-.52.1-.76-.32.57-.3.89-.36,1.03-.17.12.16,0,.34-.27.47v.02ZM210.55,57.91c-.17-.01-.3,0-.32-.03-.03-.03.03-.12.04-.18.09,0,.21-.02.27,0,.05.02.02.1.02.21h-.02ZM212.07,53.65c.31-.2.59-.21.84-.03-.36.02-.57.02-.84.03ZM215.56,54.46c-.14.01-.28,0-.41-.02.03-.07.08-.14.14-.24.14.02.27.03.38.07.02.01-.08.18-.1.18ZM218.42,47.74c.45,1.23-.18,2.6-1.41,3.04l-36.48,13.28.15.06h.19s.08.24.08.24c.47,1.2.67,1.63,1.1,1.76.02,0,.04.02.08,0l-.68.92c-1.01-.17-1.26-.81-1.8-2.21l-.14-.39-26.38,9.6h-.02s-.02.01-.03.03h-.03s-19.81,7.2-19.81,7.2c.16.18.2.45.37.87-.79,0-1.26.09-1.59,0-.23-.07-.32-.18-.35-.3L24.11,120.99c-1.22.45-2.58-.19-3.03-1.42l-14.43-39.63c-.45-1.23.18-2.6,1.41-3.04l61.57-22.41c.08-.25.24-.5.5-.72.83-.71,2.25-1.04,3.02-.69.04.02.08.06.11.09l4.33-1.57c-.16.06-.42.08-.57.06-.1-.02-.16-.18-.12-.29.08-.2.33-.25.6-.29.27-.02.53-.06.93-.1-.26.21-.46.43-.71.58l16.81-6.12c.08-.14.22-.3.47-.49l.09-.07.1-.04s.11-.04.16-.06c.41-.15.77-.13,1.07-.02l17.37-6.32c-.04-.12-.09-.21-.13-.31.28-.23.54-.38.73-.58.5-.52,1.1-.83,1.94-.87.21-.02.43-.04.62-.06.15,0,.38-.03.43.03.12.12.25.23.38.34l16.11-5.86c.03-.12.07-.25.18-.42.27-.43.79-.99,1.34-1.23,1.48-.61,2.98-.69,4.63-.68-.05.06-.13.1-.18.16l22.79-8.29c.16-.13.37-.25.64-.36.02.05.03.08.04.11l37.67-13.71c1.22-.45,2.58.19,3.03,1.42l14.43,39.63v-.02ZM217.65,44.22s-.08,0-.12-.03c.07-.02.12-.08.18-.12.01.03.02.05.05.08-.03.01-.07.06-.1.07ZM224.1,52.38c-.1.37-.32.75-.86,1.04-.51.18-.96.26-1.38.13-.13-.05-.28-.16-.25-.24.12-.32.29-.66.49-1,.04-.09.33-.17.49-.22.27-.06.54-.09.81-.11.39-.05.77.15.7.4ZM211.57,17.41c-.59.12-.81-.04-.68-.46.56-.2.91-.18.99.18.02.07-.2.26-.3.28ZM79.87,72.02c-.09.01-.2.02-.3,0,.08-.09.15-.15.23-.19l-2.7-7.4-7.7,2.8,4.88,13.41c.07-.1.23-.14.39-.16.2-.02.41-.04.7-.07-.2.17-.36.34-.55.46-.11.06-.29.07-.42.06l2.58,7.09c.16,0,.3.02.37.09.07.1,0,.28-.19.4l.62,1.71,18.02-6.56-2.19-6.01-10.32,3.75-3.41-9.38v-.02ZM73.55,76.79s-.05,0-.09,0c.01-.02.02-.04.05-.07.03-.01.08,0,.09,0-.01.02-.01.06-.05.07ZM71.38,67.62s.3-.05.46-.09c-.01.17-.02.36-.07.53,0,0-.31.06-.59.1.06-.23.08-.38.19-.54ZM73.3,74.43c-.22-.24,0-.68.38-.88.49-.23,1.01-.22,1.22.06.21.28.03.6-.48.86-.47.23-.92.22-1.13-.02v-.02ZM74.53,77.25s-.03-.08-.06-.11c.02,0,.03-.01.05-.02,0,0,.02-.04.01-.06.03-.01.08,0,.09,0v.02s.04-.01.05-.02c.04,0,.03.08.06.13-.07.02-.16.06-.2.07h-.02ZM78.52,86.03s-.01-.03-.02-.05c.21-.09.4-.18.6-.29.01.03.02.07.05.09-.21.08-.42.15-.64.23v.02ZM78.28,82.42c-.22.12-.5.09-.62-.03-.12-.12-.02-.31.23-.44.25-.13.52-.13.64-.03.12.12-.01.38-.23.49h-.02ZM75.29,67.66c.07-.1.13-.2.23-.29.03-.01.19,0,.4.02-.17.14-.27.23-.39.29-.05.02-.15-.02-.24-.04v.02ZM79.8,77.81s-.3.05-.33,0c-.06-.05.01-.17.01-.32.21.02.41,0,.42.05.02.07-.02.19-.1.28v-.02ZM77.46,68.08s-.57.17-.68.12c-.16-.09-.15-.3-.27-.59.5-.03.88-.12,1.01-.03.12.09.07.35-.05.52v-.02ZM89.72,84.91c.18.03.37.01.37.05.01.09-.05.22-.14.27-.1.04-.26,0-.4.02.06-.1.1-.18.17-.34ZM148.57,41.66c-1.55-.66-3.21-1.01-4.99-1.03-1.78-.02-3.6.31-5.48.99-1.88.68-3.45,1.59-4.82,2.76-1.37,1.17-2.42,2.5-3.18,4-.76,1.51-1.2,3.1-1.31,4.79-.01.12,0,.24,0,.35.01.03-.01.06-.02.1-.03,1.54.22,3.1.8,4.69.63,1.72,1.54,3.21,2.71,4.44.74.77,1.55,1.42,2.46,1.97.22-.32.66-.52,1.39-.75-.15.54-.43.86-.89,1.05.37.2.75.38,1.13.56.41.17.85.27,1.27.39.07-.02.11-.1.18-.12.78-.34,1.75-.21,2.14.28.07.1.09.21.12.33.43.05.84.12,1.29.13,1.8.01,3.62-.31,5.5-1,1.88-.68,3.45-1.59,4.8-2.75s2.4-2.49,3.17-4c.63-1.25,1.03-2.59,1.21-3.99-.18.01-.33-.03-.37-.16-.05-.15.04-.33.11-.65.14.04.24.06.34.08,0-.02,0-.04.01-.06.1-1.69-.15-3.42-.78-5.14-.63-1.72-1.55-3.23-2.71-4.46-1.17-1.23-2.53-2.17-4.08-2.83l.03.03ZM131.91,60.28c-.4-.09-.71-.11-.85-.21-.08-.06.04-.35.18-.42.33-.17.67-.13.78.07.06.11-.04.29-.12.58v-.02ZM131.39,50.74s.11,0,.14.02c0,.02-.03.07-.04.11-.04,0-.12-.01-.12-.03,0-.02.03-.07.04-.11h-.02ZM132.6,54.31c-.27.21-.8.29-1.05.16-.27-.14-.29-.45-.04-.67.33-.27.97-.39,1.22-.24.24.14.17.55-.13.75ZM142.29,44.21s.09,0,.14.02c0,0,0,.06-.01.06-.05.02-.1.04-.15.04,0-.04.01-.06.02-.1v-.02ZM138.41,44.02c.22-.15.47-.17.6-.03.09.1.11.24.21.46-.4.02-.65.05-.8,0-.25-.08-.26-.26-.01-.44v.02ZM137.58,47.93c.12.03.21.06.28.06-.05.06-.1.13-.16.17-.03.01-.16,0-.18-.03-.02-.05.01-.12.05-.22v.02ZM138.5,58.25c-.07.06-.26.06-.39.09.03-.12.06-.24.09-.42.23.01.43.01.44.04.03.08-.03.22-.14.29ZM149.76,59.11s-.03-.12.02-.19c.02,0,.2-.07.22-.04.07.03.07.1.13.21-.2.02-.35.05-.4.02h.02ZM148.08,54.33c0,.8-.14,1.54-.44,2.2-.29.66-.7,1.24-1.22,1.73-.53.49-1.15.86-1.87,1.12-.72.26-1.4.36-2.1.34-.04.09-.15.19-.31.26-.35.16-.7.16-.81-.04-.04-.1-.03-.23.03-.38-.35-.1-.67-.22-1.01-.38-.65-.32-1.23-.8-1.75-1.41-.52-.61-.94-1.37-1.27-2.27-.33-.9-.49-1.76-.49-2.56,0-.8.14-1.54.44-2.2.29-.66.69-1.24,1.22-1.73.52-.49,1.15-.86,1.86-1.12.72-.26,1.44-.37,2.15-.34.72.04,1.39.22,2.04.54.65.32,1.23.8,1.75,1.41.52.61.94,1.37,1.27,2.27.33.9.49,1.76.49,2.56ZM147.64,50.23s-.18.01-.25-.02c0,0,.02-.1.05-.11.08-.03.18-.05.34-.09-.06.1-.08.2-.14.22ZM148.16,45.51s-.15.05-.25.13c0-.08-.02-.14.03-.18.05-.02.15-.05.22-.04,0,0,.03.08.01.09h-.02ZM147.13,44.06c-.05-.15.08-.38.17-.71.45.06.77.04.95.12.25.13.05.48-.31.63-.36.17-.71.15-.8-.06v.02ZM150.46,49.69c.25-.18.54-.23.72-.11.12.09.1.28.18.51-.4.05-.67.13-.86.11-.27-.03-.26-.31-.03-.49v-.02ZM152.5,53.49s-.09-.04-.13-.06c0,0,.03-.07.05-.06.05-.02.11,0,.17.01-.03.03-.06.08-.09.11ZM34.19,63.67v.02s-.04-.11-.04-.11l.04.1ZM170.48,36.66c.19-.18.37-.25.79-.25-.36.24-.56.3-.78.29l2.51,6.9c.14.39.26.76.35,1.12.02.05.06.13.09.21,0,.02.03.04.06.05.02,0,.05-.02.07-.02,0-.07-.01-.14,0-.22.34.02.5.21.39.45-.07.16-.2.31-.33.47-.02,0-.07.02-.07.05.11.76.07,1.41-.12,1.94-.35.96-1.07,1.63-2.16,2.03-1.09.4-2.04.33-2.95-.17-.91-.51-1.66-1.63-2.3-3.38l-.51-1.4h-.03s-.02-.04,0-.08l-1.89-5.19c-.25.03-.46.06-.61.04-.1-.02-.1-.26,0-.39.07-.1.23-.18.39-.2l-1.88-5.17-7.7,2.8,4.6,12.64c1.25,3.43,3.2,5.75,5.85,6.94,2.65,1.19,5.72,1.15,9.23-.13,3.51-1.28,5.89-3.22,7.15-5.84,1.27-2.62,1.27-5.65.02-9.08l-4.6-12.64-7.57,2.76,2,5.5v-.02ZM161.9,35.08l.1.02s-.05.06-.06.08c-.02-.01-.08,0-.08-.03,0,0,.02-.04.05-.07ZM157.3,45.03s.04-.11.07-.16c0,0,.13-.05.16-.02.03.03.03.08.06.16-.13,0-.2.02-.27,0h-.02ZM160.68,50.97c-.1.07-.29.11-.53.16.03-.16,0-.3.09-.35.09-.05.33-.06.44-.05.06.02.07.2,0,.24ZM156.31,39.27c-.18.07-.42.06-.47-.03-.04-.1.04-.2.21-.28.18-.07.37-.06.42.03.07.09,0,.23-.17.29h.02ZM156.63,38.58s-.05,0-.06-.01c0,0,.03-.01.04-.03,0,0,.04,0,.06.01,0,0-.03.03-.04.03ZM162.24,52.82s-.09.01-.14.01c-.01-.03.01-.06,0-.09.07,0,.13,0,.2-.02-.02.04-.02.08-.06.1ZM158.24,40.74c.08-.03.18-.01.34-.03-.08.12-.11.21-.18.25-.07.06-.26.04-.29-.03-.03-.08,0-.17.12-.21v.02ZM159.5,44.17c-.12-.01-.22,0-.23-.03-.02-.05.02-.1.03-.16.07,0,.2-.02.23.01.03.03-.02.1-.03.18ZM159.12,43.47s-.04-.06-.03-.08c.13-.1.27-.12.45-.09-.1.17-.26.19-.42.15v.02ZM156.98,35.87c-.11-.05-.08-.21-.15-.43.38,0,.66-.07.82-.02.1.02.13.25.03.33-.19.18-.51.22-.69.12ZM158.65,37.66c-.16.02-.33,0-.43-.05-.04-.02.07-.16.15-.31.21.06.38.07.46.13.03.03-.12.23-.17.25v-.02ZM162.9,44.42c.11-.04.2-.05.37-.1-.14.14-.26.17-.37.1ZM160.12,35.3s.05-.07.08-.08c.03-.01.09-.01.16,0-.04.05-.06.1-.09.11-.05.02-.09,0-.15-.02ZM160.79,35.46c.23-.12.5-.11.61.04.11.15.04.3-.16.41-.23.12-.55.11-.65-.02-.1-.13-.02-.31.23-.44h-.02ZM166.49,51.58s-.11,0-.15-.02c.02-.04.04-.09.09-.11.05-.02.11,0,.2,0-.05.06-.09.11-.14.13ZM161.21,36.52c-.06-.07.02-.19.16-.26.15-.05.26-.04.32.03.05.09-.02.19-.18.27-.13.05-.25.03-.31-.04ZM163.18,40.47s0,.04-.04.05c0,0-.03.01-.06,0,0,0,.03-.03.02-.04.02,0,.03-.01.07,0ZM166.3,48.37c-.12-.01-.19,0-.23-.03-.02-.01,0-.09.04-.11.07-.02.17-.04.21-.02.03.03,0,.09,0,.15h-.02ZM166.36,47.83s-.11-.09-.16-.13c.09-.07.11-.04.16.13ZM164.08,42.47c-.16.06-.25.02-.31-.05-.09-.08,0-.24.17-.3.15-.05.35-.05.42.03.04.06-.12.28-.27.34v-.02ZM169.9,51.65s-.13,0-.16,0c0,0,0-.08.02-.08.05-.02.1-.02.19-.03-.04.05-.05.11-.07.12h.02ZM171.42,52.64s-.05,0-.09,0c.02,0,.04-.05.05-.07.02,0,.06,0,.11,0-.03.03-.05.07-.06.08ZM177.35,45.48s-.18.01-.28,0c.03-.07.06-.13.12-.23.12.01.25.02.25.04.02.05-.04.14-.1.18ZM178.65,41.98c-.28.05-.56.09-.99.17,0-.28,0-.48,0-.68.31-.02.74-.14.91-.05.16.09.08.36.09.56ZM181.51,45.92s.03-.01.07,0c-.02,0-.02.04-.04.05,0,0-.04,0-.04-.02,0,0,.01-.02.02-.04v.02ZM178.04,40.16c.14.02.25.02.3.06.07.05.01.14-.1.18-.08.03-.2,0-.27-.03-.03-.03.04-.11.07-.21ZM176.41,37.24c-.1.07-.24.09-.3,0-.06-.07-.01-.18.14-.24.08-.03.21-.02.4-.03-.1.13-.14.22-.23.27ZM174.85,33.01c.05.09-.01.17-.14.24-.15.09-.26.04-.39-.16.29-.16.46-.17.53-.08ZM173.25,29.72c-.16,0-.27,0-.43.03.18-.05.32-.06.43-.03ZM172.8,30.48s.1-.02.16-.02c0,0-.02.04-.01.06-.03.01-.09,0-.13,0,0,0,0-.02,0-.04h-.02ZM173.88,33.34s.19,0,.21.03c.01.03-.04.09-.06.13-.08,0-.17,0-.23-.03-.02,0,.04-.09.07-.16v.02ZM174.25,34.67s.07-.02.1-.04c0,.02,0,.06-.01.06-.02,0-.07.02-.11.04.02-.04.01-.06.05-.07h-.02ZM175.53,41.94c.03-.18.1-.37.24-.55.13-.16.41-.19.64-.23.57-.1.9.25.62.63-.08.12-.17.25-.29.38-.24.01-.47.04-.69.05-.29.01-.55-.1-.52-.27ZM170.58,31.79s.07-.02.15-.05c-.08.08-.11.1-.12.12,0-.02-.04-.02-.07-.03,0,0,.02-.04.04-.05v.02ZM173.8,42.02s.13,0,.23.01c-.05.06-.08.12-.12.14-.07.02-.13,0-.2,0,.04-.05.05-.11.1-.15ZM42.8,90.72c-.45.07-1.04-.01-1.39-.22-.21-.13-.39-.4-.46-.65-.04,0-.07-.03-.11-.04-.94-.24-1.9-.33-2.91-.32-1.01.01-1.99.11-2.96.26-.96.15-1.86.28-2.66.41-.8.13-1.48.15-2.02.08-.54-.06-.88-.29-1.03-.69-.1-.26-.09-.54.01-.82s.35-.57.74-.86c.39-.29.96-.57,1.69-.84,1-.36,2.08-.59,3.24-.7,1.16-.11,2.41-.08,3.75.09l.27-6.46c-1.44-.24-2.98-.26-4.6-.04-1.62.22-3.2.61-4.75,1.17-2.35.86-4.18,1.91-5.51,3.2-1.33,1.28-2.16,2.65-2.54,4.1-.38,1.46-.3,2.9.22,4.32.36.99.83,1.72,1.39,2.34.3-.04.6-.03.76.06.23.14.25.45.12.74.63.46,1.32.82,2.07,1.01.94.24,1.91.33,2.92.31,1.01-.01,2-.1,2.96-.24.96-.15,1.85-.26,2.66-.37.81-.11,1.49-.13,2.03-.05.55.08.89.33,1.04.74.1.26.08.53-.05.78-.13.25-.39.51-.77.77-.39.25-.96.52-1.69.78-1.26.46-2.63.74-4.11.85-1.48.11-2.87.04-4.2-.2l-.43,6.55c.84.16,1.77.23,2.8.23.04-.2.16-.47.26-.82.67.07,1.16.04,1.44.18.21.11.19.32.05.54.18-.01.32-.03.5-.04,1.5-.15,2.99-.51,4.47-.98v-.02s.03-.01.03,0c.43-.14.86-.24,1.26-.39,2.37-.86,4.21-1.94,5.52-3.22,1.31-1.28,2.14-2.66,2.51-4.11.38-1.46.3-2.9-.21-4.29-.44-1.2-1.04-2.13-1.79-2.77-.19-.16-.39-.27-.59-.4h.02ZM38.34,81.07s.15,0,.21.02c0,0,0,.08-.03.08-.07.02-.15.04-.22.04.02-.04.02-.1.04-.14ZM32.52,80.81c.33-.25.7-.26.91-.05.15.15.16.35.31.7-.59,0-.97.07-1.2,0-.37-.11-.38-.38-.01-.65v-.02ZM22.12,91.09s-.17-.01-.2-.04c-.01-.03.04-.11.06-.15.06.02.17.01.2.04.01.03-.04.11-.06.15ZM41.89,99.45c-.31,0-.54.05-.68,0-.06-.01,0-.28.06-.3.18-.07.43-.1.6-.09.08,0,.02.2.03.38ZM63.98,72.45c-1.55-.66-3.21-1.01-4.99-1.03-1.78-.02-3.6.31-5.48.99-1.88.68-3.45,1.59-4.82,2.76-1.37,1.17-2.42,2.5-3.18,4-.76,1.51-1.2,3.1-1.31,4.79-.1,1.69.15,3.4.79,5.16.64,1.76,1.54,3.21,2.71,4.44,1.17,1.23,2.53,2.18,4.09,2.85,1.55.66,3.21,1.01,5.01,1.02,1.8.01,3.62-.31,5.5-1,1.88-.68,3.45-1.59,4.8-2.75,1.35-1.16,2.4-2.49,3.17-4,.76-1.51,1.2-3.11,1.3-4.81.1-1.69-.15-3.42-.78-5.14-.63-1.72-1.55-3.23-2.71-4.46-1.17-1.23-2.53-2.17-4.08-2.83ZM47.15,83.03c-.09.07-.21.09-.38.18.01-.12-.02-.21.03-.27.08-.05.22-.06.33-.06.02,0,.04.11.02.14v.02ZM51.97,89.91c-.6.07-1.02.2-1.31.16-.41-.06-.39-.47-.05-.74.36-.28.81-.35,1.08-.19.2.13.15.41.28.77ZM61.25,78.13c.13-.05.28-.03.52-.04-.12.17-.17.3-.28.4-.11.1-.38.06-.44-.04-.06-.11,0-.24.2-.31ZM58.83,74.79s.06.01.08.03c-.02,0-.04.05-.05.06-.02,0-.08,0-.08-.03,0,0,.04-.03.05-.06ZM57.99,75.43c.26-.11.54-.09.63.07.09.14-.03.33-.25.43-.28.1-.64.08-.71-.06-.08-.12.06-.3.33-.42v-.02ZM65.97,91.25c-.16.11-.43.14-.8.24.06-.24.02-.45.14-.53.15-.09.48-.1.66-.06.1.02.09.29-.02.36h.02ZM63.01,82.56c.05.15.08.27.12.42.03-.01.07,0,.08,0,.03.04,0,.11-.02.19.19.67.31,1.32.31,1.93,0,.8-.14,1.54-.44,2.2-.29.66-.7,1.24-1.22,1.73-.52.49-1.15.86-1.86,1.12-.72.26-1.44.37-2.15.34-.72-.04-1.39-.22-2.04-.54-.65-.32-1.23-.8-1.75-1.41-.52-.61-.94-1.37-1.27-2.27s-.49-1.76-.49-2.56c0-.8.14-1.54.44-2.2.29-.66.7-1.24,1.22-1.73.52-.49,1.15-.86,1.86-1.12s1.44-.37,2.15-.34c.72.04,1.39.22,2.04.54.65.32,1.23.8,1.75,1.41.39.47.72,1.06,1.01,1.7.13-.05.29-.07.46-.02-.09.15-.22.21-.36.24.05.13.12.23.17.37v-.02ZM61.87,73.49c-.23.03-.5,0-.66-.08-.07-.03.11-.25.21-.49.31.09.57.11.68.2.06.05-.19.35-.26.35h.02ZM68.58,77.71s.07,0,.09,0c-.02,0-.02.04-.05.07-.02,0-.06,0-.09,0,.01-.02.02-.04.05-.07ZM68.26,83.63c.16-.06.3-.09.57-.15-.21.2-.4.25-.57.15ZM70.01,80.72c-.24.09-.38.03-.48-.09-.13-.14.02-.36.26-.47.23-.08.55-.07.62.03.07.1-.18.42-.4.52ZM108.04,54.74c-2.28-.23-4.69.13-7.23,1.05l-11.26,4.1,8.37,22.99,7.61-2.77c.3-.18.63-.34,1.06-.4.03-.01.05-.02.07,0l2.53-.92c2.55-.93,4.62-2.2,6.22-3.84.51-.52.95-1.09,1.35-1.68-.43.23-1.04.38-1.33.26-.41-.17-.4-.64.01-.99.42-.36,1.14-.53,1.54-.35.16.07.24.21.27.35.58-1.01,1.01-2.06,1.25-3.21.47-2.12.26-4.37-.61-6.75-.87-2.38-2.14-4.2-3.86-5.51-1.72-1.31-3.69-2.08-5.98-2.31ZM98.07,79.7s-.16,0-.26,0c.02-.04.03-.12.08-.14.08-.03.18-.03.32-.04-.06.1-.09.16-.14.18ZM92.49,61.98c.24-.15.45-.16.64-.03-.27,0-.44.01-.64.03ZM95.15,62.61c-.11,0-.2,0-.32-.01.04-.05.06-.1.1-.18.1.02.22.03.3.06,0,0-.06.13-.08.14ZM94.52,59.23c-.23-.03-.44-.03-.51-.09-.12-.09-.06-.22.14-.33.18-.1.48-.1.51.02.04.1-.05.21-.12.4h-.02ZM98.9,66.9s-.12-.09-.1-.13c.08-.14.24-.14.43-.14-.03.16-.12.27-.33.27ZM100.93,67.87c-1.38.21-1.41.18-1.29-.76.77,0,1.2.24,1.29.76ZM100.12,60.97s.25-.13.39-.16c.21-.04.41-.05.61-.09.3-.04.59.1.53.29-.08.29-.24.57-.65.8-.38.14-.74.2-1.05.1-.11-.04-.21-.13-.2-.19.09-.26.22-.51.37-.75ZM108.49,73.45s-.09.01-.11,0c0,0,0-.04,0-.08.03-.01.07-.02.11-.04,0,.04-.01.06-.02.1v.02ZM109.79,76.51s-.07,0-.09,0v-.03s.05-.02.09-.04c0,.02,0,.04,0,.08h.02ZM110.51,68.64c-.16.99-.57,1.84-1.23,2.55-.33.36-.73.68-1.17.96,0,0,.02,0,.03-.01-.11.1-.16.17-.22.19-.05.02-.1-.02-.14-.04-.35.2-.71.39-1.13.54l-3.23,1.18-3.97-10.9,3.23-1.18c1.09-.4,2.12-.53,3.08-.42.97.11,1.83.51,2.58,1.14.75.64,1.34,1.54,1.76,2.71.43,1.17.57,2.27.41,3.25v.02ZM111.92,68.24c-.28.14-.56.13-.59,0-.03-.08.06-.21.13-.29.06-.04.13-.05.21-.08.03-.01.08-.03.12-.03v.02c.07,0,.15.03.17.08.03.08-.05.22-.06.28h.02ZM114.35,65.46s-.08-.03-.13-.05c.03-.01.06-.04.09-.07.04,0,.08.03.12.03-.03.01-.09.07-.09.07v.02ZM117.61,71.54c-.23.18-.54.25-.71.15-.15-.1-.16-.28-.2-.39.33-.31.6-.29.82-.24.27.07.31.3.1.47v.02ZM117.38,63.43s.06.02.12.01c-.04.03-.06.08-.11.1-.02,0-.06-.02-.1-.02.03-.03.05-.07.09-.11v.02ZM191.71,23.21c-.3.15-.84.08-.98-.09,0,0-.01-.03-.02-.05l-13.21,4.81,2.19,6.01,6.69-2.44,4.6,12.64c.16-.06.36-.04.42.05.07.09-.01.27-.19.35-.03.01-.05.02-.08.03l1.43,3.92,7.7-2.8-1-2.76s-.02,0-.03.01c-.25.02-.5-.04-.69-.1-.17-.05-.04-.23.02-.34.06-.13.12-.28.31-.36.03-.01.05-.02.07-.02l-2.14-5.88c-.3-.17-.35-.41-.23-.64l-2.5-6.86,6.69-2.44-2.19-6.01-6.51,2.37c.09.21-.05.48-.39.65l.02-.04ZM179.04,29.99c.16-.1.3-.1.42-.02-.18.01-.29.01-.42.02ZM180.81,30.41s-.15,0-.2,0c.03-.03.03-.07.07-.12.06.01.14.02.2.04,0,0-.04.09-.06.1v-.02ZM180.4,28.16c-.15-.02-.28,0-.35-.06-.07-.05-.05-.13.09-.22.12-.06.31-.07.34,0,.02.07-.04.14-.08.25v.02ZM184.71,29.88c-.26.1-.49.12-.7.07-.06-.01-.14-.08-.13-.12.07-.17.15-.34.26-.5.02-.04.17-.08.26-.1.14-.03.28-.05.4-.05.2-.02.39.06.35.21-.06.19-.16.37-.44.53v-.03ZM186.11,31.08s-.15,0-.24.01c0-.02.03-.07.04-.11.06.01.14.04.2.06,0,0,0,.02-.02.04h.02ZM186.08,25.07c.12.01.23.01.22.05.01.03-.04.11-.09.16-.03.01-.18.01-.19,0-.01-.03.02-.1.04-.18v-.02ZM190.85,41.94c-.13.05-.27.06-.3-.02-.02-.05.02-.14.05-.26.18.03.3.02.35.06.1.06.04.15-.09.22h-.02ZM189.19,36.86s.05-.07.08-.08c.05-.02.11,0,.22,0-.07.06-.11.11-.16.13-.03.01-.12-.01-.14-.04ZM189.71,37.62s-.05.02-.08,0c0,0-.01-.03,0-.04.02,0,.05-.02.07-.02,0,.02,0,.04-.01.06h.02ZM190.58,39.66s-.03.01-.06-.01v-.02s.04-.02.06-.02c0,0,.01.03,0,.04v.02ZM192.89,44.27s-.08,0-.12-.01c.02,0,.04-.05.06-.08.05.02.08.03.11.05l-.05.06v-.02ZM192.13,40.77s-.08,0-.08-.03c0,0,.02-.04.03-.11.05.02.08.03.09.04,0,.02-.04.05-.04.09ZM189.47,33.51c-.45.09-.62-.03-.52-.35.42-.15.71-.15.75.14.02.05-.15.19-.24.22ZM191.99,34.15c-.19.09-.38.08-.39,0-.02-.05.02-.14.1-.18.09-.07.31-.07.34,0,.02.07-.02.14-.04.18ZM196.24,41.49s-.05.02-.07,0c0,0,0-.02,0-.04.02,0,.05-.02.07-.02,0,.02,0,.04-.01.06h.02ZM193.6,32.32s-.06-.01-.08-.03c.02,0,.05-.02.06-.04.02,0,.06.01.08.03-.03.01-.05.06-.06.04ZM191.82,25.19c-.15-.02-.28,0-.34-.06-.03-.03.02-.14.08-.18.1-.07.25-.07.3,0,.02.05-.03.12-.05.22v.02ZM198.33,23.94c.17-.08.35-.16.53-.23.1-.04.21.02.43.03-.16.13-.22.25-.29.27-.21.04-.42.06-.64.07-.03.01-.05-.13-.03-.14ZM194.74,23.46s.18-.07.24-.09c.05,0,.06.07.1.13-.11.04-.23.08-.29.07-.04,0-.03-.08-.05-.13v.02Z"/>
</svg>