<svg width="17" height="20" viewBox="0 0 17 20" fill="none" xmlns="http://www.w3.org/2000/svg">
<path d="M8.5 9.71429C11.1828 9.71429 13.3571 7.53996 13.3571 4.85714C13.3571 2.17433 11.1828 0 8.5 0C5.81719 0 3.64286 2.17433 3.64286 4.85714C3.64286 7.53996 5.81719 9.71429 8.5 9.71429ZM11.9 10.9286H11.2663C10.4239 11.3156 9.48661 11.5357 8.5 11.5357C7.51339 11.5357 6.57991 11.3156 5.73371 10.9286H5.1C2.28437 10.9286 0 13.2129 0 16.0286V17.6071C0 18.6127 0.815848 19.4286 1.82143 19.4286H15.1786C16.1842 19.4286 17 18.6127 17 17.6071V16.0286C17 13.2129 14.7156 10.9286 11.9 10.9286Z" fill="#2D7CD1"/>
</svg>
