<?xml version="1.0" encoding="UTF-8"?>
<svg id="_圖層_1" data-name="圖層_1" xmlns="http://www.w3.org/2000/svg" version="1.1" viewBox="0 0 17 19.43">
  <!-- Generator: Adobe Illustrator 30.6.0, SVG Export Plug-In . SVG Version: 2.1.4 Build 109)  -->
  <defs>
    <style>
      .st0 {
        fill: #2d7cd1;
      }
    </style>
  </defs>
  <path class="st0" d="M8.5,9.71c2.68,0,4.86-2.17,4.86-4.86S11.18,0,8.5,0,3.64,2.17,3.64,4.86s2.17,4.86,4.86,4.86ZM11.9,10.93h-.63c-.84.39-1.78.61-2.77.61s-1.92-.22-2.77-.61h-.63c-2.82,0-5.1,2.28-5.1,5.1v1.58c0,1.01.82,1.82,1.82,1.82h13.36c1.01,0,1.82-.82,1.82-1.82v-1.58c0-2.82-2.28-5.1-5.1-5.1Z"/>
</svg>