<?xml version="1.0" encoding="UTF-8"?>
<svg id="_圖層_1" data-name="圖層_1" xmlns="http://www.w3.org/2000/svg" version="1.1" viewBox="0 0 20 14.05">
  <!-- Generator: Adobe Illustrator 30.6.0, SVG Export Plug-In . SVG Version: 2.1.4 Build 109)  -->
  <defs>
    <style>
      .st0 {
        fill: #f7f7f7;
      }
    </style>
  </defs>
  <path class="st0" d="M10.06,0h.11c1.03,0,6.23.04,7.64.42.42.12.81.34,1.12.65.31.31.53.7.65,1.12.13.48.22,1.1.27,1.75v.13s.04.32.04.32v.13c.09,1.14.1,2.21.1,2.45v.09c0,.24-.01,1.39-.1,2.57v.13s-.02.13-.02.13c-.06.72-.16,1.43-.29,1.95-.11.42-.34.81-.65,1.12-.31.31-.7.54-1.12.65-1.45.39-6.96.42-7.73.42h-.18c-.39,0-1.98,0-3.66-.06h-.21s-.11-.01-.11-.01l-.43-.02c-1.39-.06-2.71-.16-3.32-.32-.42-.12-.81-.34-1.12-.65-.31-.31-.53-.7-.65-1.12-.14-.52-.23-1.23-.29-1.95l-.02-.26c-.06-.85-.1-1.7-.1-2.54v-.15c0-.27.01-1.2.08-2.22v-.13s.01-.07.01-.07v-.13s.04-.32.04-.32v-.13c.07-.65.16-1.28.29-1.75.11-.42.34-.81.65-1.12.31-.31.7-.54,1.12-.65.61-.16,1.93-.26,3.32-.33h.21s.32-.02.32-.02h.21C7.44.03,8.63,0,9.82,0h.24ZM8,4.01v6.02l5.2-3.01-5.2-3.01Z"/>
</svg>